{"glyphs":{"0":{"ha":758,"x_min":-14,"x_max":701,"o":"m 4 443 q 60 614 24 532 q 150 760 96 697 q 276 862 204 823 q 440 900 349 900 q 589 862 532 900 q 673 760 646 823 q 701 614 700 697 q 682 443 701 532 q 628 272 664 354 q 538 125 591 189 q 412 23 485 61 q 245 -16 339 -16 q 96 23 153 -16 q 13 125 40 61 q -14 272 -14 189 q 4 443 -14 354 m 144 443 q 127 322 132 380 l 549 671 q 503 745 534 717 q 414 774 472 774 q 247 686 317 774 q 144 443 178 599 m 273 111 q 377 140 334 111 q 454 217 421 170 q 508 323 486 264 q 542 443 529 383 q 557 554 554 500 l 139 208 q 184 138 154 164 q 273 111 215 111 z "},"1":{"ha":758,"x_min":36,"x_max":507,"o":"m 461 0 l 36 0 l 62 126 l 205 126 l 313 629 q 267 570 296 596 q 201 527 237 545 q 123 501 165 510 q 37 492 81 492 l 66 632 q 160 647 113 632 q 248 694 207 663 q 321 772 289 725 q 367 885 353 819 l 507 885 l 346 126 l 488 126 l 461 0 z "},"2":{"ha":758,"x_min":-37,"x_max":696,"o":"m 684 643 q 622 515 669 581 q 504 392 575 450 l 172 126 l 432 126 l 457 248 l 583 248 l 532 0 l -37 0 l -9 132 l 419 473 q 505 563 475 521 q 543 643 534 604 q 542 703 550 677 q 517 744 534 728 q 475 767 500 760 q 424 774 450 774 q 282 725 340 774 q 203 581 224 676 l 71 581 q 201 815 103 730 q 450 900 298 900 q 556 883 507 900 q 637 835 604 867 q 683 754 669 803 q 684 643 696 705 z "},"3":{"ha":758,"x_min":-1,"x_max":690,"o":"m 607 240 q 561 135 595 182 q 481 54 528 87 q 378 3 435 21 q 265 -16 322 -16 q 149 2 201 -16 q 62 55 97 20 q 13 146 28 90 q 9 278 -1 201 l 146 300 q 174 162 135 212 q 293 111 214 111 q 407 146 359 111 q 467 240 454 182 q 440 353 484 319 q 267 387 396 387 l 293 514 q 380 523 339 514 q 454 549 421 532 q 508 592 486 567 q 538 650 530 616 q 523 740 549 705 q 433 774 497 774 q 296 729 350 774 q 221 585 241 684 l 87 585 q 139 722 104 663 q 222 820 174 781 q 331 880 271 860 q 460 900 392 900 q 563 883 517 900 q 638 833 608 865 q 679 754 668 800 q 677 650 690 708 q 651 579 669 612 q 604 520 632 546 q 540 478 576 494 q 464 460 504 463 q 540 436 509 456 q 589 387 571 416 q 611 319 607 357 q 607 240 615 281 z "},"4":{"ha":758,"x_min":-17,"x_max":642,"o":"m 566 0 l 140 0 l 167 126 l 309 126 l 332 236 l -17 236 l 9 363 l 444 885 l 608 885 l 497 363 l 642 363 l 615 236 l 471 236 l 447 126 l 591 126 l 566 0 m 358 363 l 435 720 l 136 363 l 358 363 z "},"5":{"ha":758,"x_min":-18,"x_max":708,"o":"m 635 297 q 583 175 621 232 q 490 76 545 118 q 372 9 436 33 q 241 -16 307 -16 q 128 3 178 -16 q 44 58 78 22 q -4 144 11 93 q -8 262 -18 196 l 129 282 q 153 158 119 205 q 269 111 186 111 q 349 126 313 111 q 414 165 385 140 q 463 224 443 191 q 490 297 482 258 q 474 435 510 386 q 364 485 439 485 q 270 465 315 485 q 192 399 225 444 l 52 399 l 154 885 l 708 885 l 682 758 l 268 758 l 218 529 q 418 611 298 611 q 522 589 475 611 q 599 527 568 567 q 640 428 629 486 q 635 297 650 370 z "},"6":{"ha":758,"x_min":-3,"x_max":699,"o":"m 640 301 q 588 170 624 228 q 500 70 551 111 q 386 7 449 29 q 258 -16 323 -16 q 102 23 158 -16 q 22 124 46 61 q -1 270 -3 187 q 21 441 1 353 q 80 614 40 532 q 179 761 119 697 q 315 863 239 825 q 486 900 392 900 q 608 880 553 900 q 699 821 663 860 l 600 718 q 538 761 572 749 q 460 774 504 774 q 354 751 403 774 q 266 686 304 728 q 199 587 227 644 q 157 463 172 530 q 261 578 193 533 q 425 623 329 623 q 528 598 482 623 q 604 531 574 574 q 644 430 633 489 q 640 301 654 371 m 500 301 q 484 441 517 385 q 364 497 450 497 q 219 445 281 497 q 140 309 158 393 q 134 231 131 267 q 155 169 138 196 q 205 126 172 142 q 288 111 237 111 q 422 161 363 111 q 500 301 481 211 z "},"7":{"ha":758,"x_min":96,"x_max":753,"o":"m 726 758 q 555 588 624 668 q 440 420 486 507 q 360 232 393 334 q 298 0 326 131 l 155 0 q 219 225 182 123 q 309 418 257 328 q 433 591 361 509 q 603 758 505 673 l 253 758 l 221 610 l 96 610 l 154 885 l 753 885 l 726 758 z "},"8":{"ha":758,"x_min":-36,"x_max":690,"o":"m 624 249 q 573 130 608 179 q 487 48 538 81 q 374 0 436 16 q 244 -16 311 -16 q 121 0 176 -16 q 30 48 66 16 q -21 130 -7 81 q -21 249 -36 179 q 7 321 -14 285 q 60 390 28 358 q 131 442 92 421 q 215 468 171 463 q 154 492 179 472 q 114 538 129 511 q 96 597 100 566 q 97 657 92 628 q 143 763 110 717 q 223 839 176 808 q 326 885 271 869 q 439 900 382 900 q 546 885 496 900 q 629 839 596 869 q 676 763 663 808 q 677 657 690 717 q 654 597 672 628 q 610 538 636 566 q 551 492 585 511 q 478 468 517 472 q 551 442 519 463 q 600 390 582 421 q 624 321 618 358 q 624 249 631 285 m 536 648 q 516 740 549 707 q 412 774 484 774 q 295 740 342 774 q 236 648 249 707 q 254 561 224 593 q 359 529 283 529 q 480 561 436 529 q 536 648 524 593 m 485 257 q 484 325 493 297 q 454 370 475 353 q 402 395 433 387 q 334 403 371 403 q 262 395 296 403 q 199 370 228 387 q 149 325 170 353 q 121 257 129 297 q 122 192 113 220 q 152 146 131 164 q 203 119 172 127 q 272 111 235 111 q 344 119 310 111 q 407 146 378 127 q 456 192 436 164 q 485 257 476 220 z "},"9":{"ha":758,"x_min":-14,"x_max":688,"o":"m 46 583 q 98 715 61 657 q 185 815 135 774 q 298 878 236 856 q 427 900 361 900 q 583 862 526 900 q 664 760 640 823 q 686 614 688 696 q 664 443 684 532 q 605 270 644 353 q 506 123 566 187 q 369 22 447 60 q 199 -16 292 -16 q 77 5 132 -16 q -14 64 22 25 l 85 167 q 147 124 113 136 q 227 111 182 111 q 333 134 283 111 q 420 198 382 157 q 486 297 458 240 q 528 422 514 354 q 424 307 492 351 q 261 262 357 262 q 158 287 204 262 q 81 354 111 311 q 41 455 52 396 q 46 583 31 514 m 186 583 q 202 444 168 500 q 322 387 236 387 q 467 439 406 387 q 546 576 528 492 q 551 653 554 618 q 530 716 547 689 q 481 759 513 743 q 399 774 449 774 q 264 724 323 774 q 186 583 205 673 z "},"\u0000":{"ha":758,"x_min":0,"x_max":0,"o":""},"\r":{"ha":758,"x_min":0,"x_max":0,"o":""}," ":{"ha":758,"x_min":0,"x_max":0,"o":""},"#":{"ha":758,"x_min":-39,"x_max":673,"o":"m 593 127 l 467 127 l 439 1 l 313 1 l 340 127 l 214 127 l 186 1 l 60 1 l 87 127 l -39 127 l -13 253 l 114 253 l 140 380 l 14 380 l 41 506 l 168 506 l 195 633 l 321 633 l 294 506 l 420 506 l 447 633 l 574 633 l 547 506 l 673 506 l 646 380 l 519 380 l 493 253 l 619 253 l 593 127 m 366 253 l 393 380 l 267 380 l 240 253 l 366 253 z "},"$":{"ha":758,"x_min":-39,"x_max":693,"o":"m 183 -11 q 15 75 68 4 q -28 253 -39 146 l 107 273 q 210 117 104 143 l 273 414 q 194 453 233 432 q 129 504 155 473 q 91 575 102 534 q 92 673 79 616 q 185 821 110 760 q 376 896 260 882 l 400 1011 l 526 1011 l 501 893 q 592 860 554 884 q 653 802 629 836 q 685 726 676 768 q 686 637 693 684 l 551 623 q 473 764 559 734 l 421 510 q 503 469 463 492 q 572 414 543 447 q 613 337 600 382 q 612 231 625 293 q 577 146 603 186 q 512 73 551 106 q 422 19 473 40 q 310 -11 371 -3 l 285 -126 l 158 -126 l 183 -11 m 472 231 q 457 309 482 279 q 389 363 432 339 l 336 117 q 426 154 390 126 q 472 231 461 182 m 232 675 q 245 608 224 635 q 304 561 267 582 l 349 768 q 271 737 301 760 q 232 675 240 714 z "},"%":{"ha":758,"x_min":-72,"x_max":761,"o":"m 761 852 l 7 -28 l -72 32 l 684 916 l 761 852 m 71 728 q 99 794 78 762 q 147 849 119 827 q 209 886 175 872 q 279 900 243 900 q 343 886 314 900 q 390 849 372 872 q 415 794 408 827 q 415 728 422 762 q 387 661 407 692 q 339 606 367 629 q 276 569 311 583 q 207 555 241 555 q 142 569 171 555 q 96 606 114 583 q 70 661 78 629 q 71 728 62 692 m 172 729 q 183 679 167 700 q 228 659 199 659 q 283 679 257 659 q 314 729 309 700 q 304 779 321 758 q 258 800 288 800 q 204 779 229 800 q 172 729 179 758 m 273 157 q 301 224 281 192 q 350 278 322 256 q 412 315 378 301 q 482 329 446 329 q 546 315 517 329 q 593 278 575 301 q 618 224 611 256 q 618 157 625 192 q 589 90 610 121 q 541 35 568 58 q 478 -2 513 12 q 408 -16 443 -16 q 344 -2 372 -16 q 297 35 315 12 q 272 90 279 58 q 273 157 265 121 m 375 158 q 385 108 368 129 q 431 87 401 87 q 485 108 460 87 q 517 158 510 129 q 506 208 522 187 q 461 229 490 229 q 406 208 432 229 q 375 158 380 187 z "},"&":{"ha":758,"x_min":-47,"x_max":663,"o":"m 663 383 q 610 281 642 334 q 536 180 579 229 l 623 82 l 514 -18 l 433 81 q 311 10 375 36 q 176 -16 248 -16 q 76 3 121 -16 q 3 55 32 22 q -36 131 -25 87 q -36 227 -47 175 q 27 372 -17 315 q 126 468 72 428 q 88 566 98 517 q 89 672 78 615 q 127 766 100 724 q 190 838 154 808 q 270 884 227 868 q 359 900 314 900 q 443 886 406 900 q 505 846 481 872 q 538 784 529 821 q 538 700 547 747 q 504 618 528 654 q 449 553 481 582 q 379 499 416 524 q 306 453 342 475 l 460 271 q 504 341 484 304 q 542 415 524 378 l 663 383 m 214 111 q 291 126 254 111 q 363 168 328 142 l 195 375 l 193 375 q 140 316 163 349 q 109 243 117 283 q 126 148 96 184 q 214 111 157 111 m 229 672 q 222 605 222 635 q 240 541 222 575 q 295 573 269 557 q 342 610 321 590 q 377 652 363 629 q 397 703 392 675 q 387 754 404 734 q 339 774 370 774 q 269 745 298 774 q 229 672 239 715 z "},"'":{"ha":758,"x_min":311,"x_max":521,"o":"m 521 885 l 418 546 l 311 546 l 353 885 l 521 885 z "},"(":{"ha":758,"x_min":122,"x_max":646,"o":"m 268 385 q 253 230 252 307 q 272 82 254 153 q 326 -52 290 11 q 412 -164 361 -115 l 309 -250 q 208 -121 249 -193 q 146 33 167 -49 q 123 204 125 115 q 142 385 122 293 q 201 565 161 476 q 296 736 240 654 q 423 890 351 818 q 579 1019 494 962 l 646 933 q 512 822 574 885 q 401 687 450 758 q 319 539 353 616 q 268 385 285 463 z "},")":{"ha":758,"x_min":17,"x_max":541,"o":"m 395 383 q 410 538 411 461 q 391 686 410 615 q 337 820 372 757 q 250 932 302 884 l 354 1018 q 455 889 415 961 q 516 735 494 817 q 539 564 538 653 q 521 383 541 475 q 463 203 501 292 q 368 32 424 114 q 240 -122 311 -50 q 85 -252 170 -195 l 17 -165 q 152 -54 90 -117 q 262 80 214 9 q 345 229 311 151 q 395 383 378 306 z "},"*":{"ha":758,"x_min":-12,"x_max":644,"o":"m 382 401 l 603 534 l 644 416 l 412 316 l 602 217 l 509 99 l 347 233 l 317 1 l 182 1 l 252 233 l 31 99 l -12 217 l 219 316 l 32 416 l 123 534 l 286 401 l 317 633 l 451 633 l 382 401 z "},"+":{"ha":758,"x_min":-11,"x_max":647,"o":"m 621 261 l 368 261 l 314 9 l 187 9 l 241 261 l -11 261 l 15 388 l 268 388 l 322 640 l 448 640 l 395 388 l 647 388 l 621 261 z "},",":{"ha":758,"x_min":47,"x_max":421,"o":"m 421 126 l 154 -253 l 47 -253 l 254 126 l 421 126 z "},"-":{"ha":758,"x_min":-11,"x_max":647,"o":"m 621 261 l -11 261 l 15 388 l 647 388 l 621 261 z "},".":{"ha":758,"x_min":164,"x_max":371,"o":"m 335 0 l 164 0 l 200 171 l 371 171 l 335 0 z "},"/":{"ha":758,"x_min":-83,"x_max":750,"o":"m 657 926 l 750 875 l 8 -171 l -83 -119 l 657 926 z "},":":{"ha":758,"x_min":164,"x_max":468,"o":"m 432 461 l 261 461 l 297 632 l 468 632 l 432 461 m 335 0 l 164 0 l 200 171 l 371 171 l 335 0 z "},";":{"ha":758,"x_min":47,"x_max":468,"o":"m 432 461 l 261 461 l 297 632 l 468 632 l 432 461 m 421 126 l 154 -253 l 47 -253 l 254 126 l 421 126 z "},"<":{"ha":758,"x_min":138,"x_max":621,"o":"m 508 60 l 410 -22 l 138 326 l 558 673 l 621 591 l 300 326 l 508 60 z "},"=":{"ha":758,"x_min":-39,"x_max":673,"o":"m 647 388 l 15 388 l 41 514 l 673 514 l 647 388 m 593 135 l -39 135 l -11 261 l 621 261 l 593 135 z "},">":{"ha":758,"x_min":15,"x_max":500,"o":"m 338 326 l 127 591 l 227 673 l 500 326 l 78 -22 l 15 60 l 338 326 z "},"?":{"ha":758,"x_min":164,"x_max":715,"o":"m 694 681 q 658 593 684 631 q 599 524 632 555 q 527 463 566 492 q 456 404 489 435 q 397 337 424 374 q 361 253 371 300 l 216 253 q 256 352 229 309 q 319 431 283 396 q 392 496 354 467 q 463 555 429 526 q 522 615 497 585 q 554 682 546 646 q 542 750 564 726 q 476 774 521 774 q 372 737 410 774 q 313 635 334 700 l 186 654 q 302 834 222 768 q 501 900 382 900 q 665 840 614 900 q 694 681 715 781 m 335 0 l 164 0 l 200 171 l 371 171 l 335 0 z "},"@":{"ha":758,"x_min":-17,"x_max":705,"o":"m 687 464 q 659 370 677 418 q 614 284 642 323 q 549 222 587 246 q 460 197 511 197 q 426 204 442 197 q 398 225 410 212 q 381 256 387 238 q 381 296 376 275 l 383 303 q 357 261 372 281 q 322 228 341 242 q 283 205 304 214 q 241 197 262 197 q 175 217 199 197 q 141 269 151 237 q 133 343 131 302 q 144 428 134 385 q 175 524 154 478 q 225 605 196 570 q 291 660 255 640 q 369 681 328 681 q 393 677 381 681 q 415 664 406 673 q 431 643 425 656 q 439 613 437 630 l 450 668 l 559 668 l 488 332 q 489 301 484 311 q 505 292 494 292 q 533 305 520 292 q 558 342 547 319 q 580 397 570 366 q 597 464 590 429 q 613 600 612 535 q 594 713 613 664 q 533 790 574 762 q 423 819 491 819 q 301 790 355 819 q 207 709 247 760 q 138 590 166 659 q 94 441 111 521 q 76 295 77 363 q 93 176 75 227 q 153 95 112 125 q 263 66 195 66 q 367 85 319 66 q 458 138 415 105 l 484 72 q 246 -16 379 -16 q 138 2 184 -16 q 62 50 93 19 q 13 124 31 81 q -11 218 -5 167 q -13 326 -17 269 q 4 441 -9 382 q 59 615 23 532 q 149 761 95 698 q 276 862 203 825 q 441 900 349 900 q 547 883 502 900 q 624 835 593 865 q 673 763 655 804 q 698 673 691 722 q 702 571 705 625 q 687 464 699 518 m 423 540 q 401 576 416 566 q 370 587 387 587 q 332 575 349 587 q 300 542 314 563 q 275 491 286 520 q 257 429 264 462 q 248 367 249 392 q 253 328 248 342 q 269 307 258 313 q 296 300 280 300 q 330 312 313 300 q 360 343 347 324 q 385 386 374 362 q 400 433 395 409 l 423 540 z "},"A":{"ha":758,"x_min":-107,"x_max":607,"o":"m 460 0 l 440 211 l 147 211 l 40 0 l -107 0 l 357 885 l 518 885 l 607 0 l 460 0 m 211 335 l 429 335 l 399 700 l 211 335 z "},"B":{"ha":758,"x_min":-33,"x_max":688,"o":"m 615 243 q 494 61 589 122 q 249 0 400 0 l -33 0 l 154 885 l 421 885 q 528 876 476 885 q 616 842 579 867 q 670 771 653 817 q 672 654 688 726 q 611 532 657 587 q 492 452 566 476 q 602 378 571 425 q 615 243 633 330 m 529 636 q 528 699 538 675 q 498 737 518 724 q 451 754 478 750 q 395 758 424 758 l 268 758 l 215 514 l 342 514 q 400 518 371 514 q 455 535 429 522 q 501 573 481 549 q 529 636 521 597 m 479 257 q 453 355 493 323 q 330 387 414 387 l 189 387 l 134 126 l 275 126 q 412 158 358 126 q 479 257 465 191 z "},"C":{"ha":758,"x_min":-5,"x_max":753,"o":"m 636 271 q 567 153 606 205 q 482 62 529 100 q 378 5 435 25 q 256 -16 322 -16 q 106 23 163 -16 q 22 125 50 61 q -5 272 -5 189 q 12 443 -5 354 q 67 614 32 532 q 157 760 103 697 q 281 862 211 823 q 441 900 351 900 q 499 892 471 900 q 550 870 528 885 q 587 832 572 854 q 604 781 602 810 l 627 885 l 753 885 l 682 550 l 555 550 q 562 632 564 591 q 544 703 559 672 q 499 754 529 734 q 424 774 469 774 q 320 745 364 774 q 242 668 275 715 q 188 562 210 621 q 153 443 165 503 q 137 323 140 383 q 145 217 134 264 q 190 140 157 170 q 283 111 224 111 q 427 166 370 111 q 533 314 485 221 l 636 271 z "},"D":{"ha":758,"x_min":-33,"x_max":707,"o":"m 688 443 q 633 274 669 354 q 544 133 597 193 q 418 36 490 72 q 254 0 346 0 l -33 0 l 154 885 l 441 885 q 589 849 532 885 q 673 752 646 812 q 704 612 701 692 q 688 443 707 532 m 547 443 q 546 677 581 596 q 415 758 511 758 l 268 758 l 134 126 l 281 126 q 446 209 376 126 q 547 443 515 292 z "},"E":{"ha":758,"x_min":-33,"x_max":720,"o":"m 532 0 l -33 0 l 154 885 l 720 885 l 693 758 l 268 758 l 215 514 l 547 514 l 521 387 l 189 387 l 134 126 l 558 126 l 532 0 z "},"F":{"ha":758,"x_min":-33,"x_max":720,"o":"m 693 758 l 268 758 l 215 514 l 547 514 l 521 387 l 189 387 l 107 0 l -33 0 l 154 885 l 720 885 l 693 758 z "},"G":{"ha":758,"x_min":-7,"x_max":753,"o":"m 693 440 q 638 268 673 350 q 549 123 603 186 q 421 22 494 60 q 256 -16 349 -16 q 106 23 163 -16 q 22 124 50 61 q -6 270 -5 187 q 12 441 -7 353 q 67 613 32 530 q 158 760 103 696 q 284 862 212 823 q 450 900 357 900 q 503 892 476 900 q 551 870 529 885 q 587 832 572 854 q 604 781 602 810 l 627 885 l 753 885 l 686 571 l 559 571 q 563 649 568 612 q 540 714 558 686 q 492 758 522 742 q 424 774 463 774 q 320 744 364 774 q 242 667 275 714 q 187 560 208 619 q 153 441 165 501 q 137 323 140 382 q 145 217 134 264 q 190 140 157 170 q 283 111 224 111 q 433 166 370 111 q 542 336 497 221 l 355 336 l 382 463 l 697 463 l 693 440 z "},"H":{"ha":758,"x_min":-33,"x_max":720,"o":"m 532 0 l 392 0 l 473 387 l 189 387 l 107 0 l -33 0 l 154 885 l 294 885 l 215 514 l 500 514 l 579 885 l 720 885 l 532 0 z "},"I":{"ha":758,"x_min":39,"x_max":652,"o":"m 464 0 l 39 0 l 65 126 l 205 126 l 340 758 l 200 758 l 227 885 l 652 885 l 625 758 l 481 758 l 346 126 l 490 126 l 464 0 z "},"J":{"ha":758,"x_min":-20,"x_max":720,"o":"m 603 338 q 476 77 567 170 q 237 -16 385 -16 q 53 46 119 -16 q -20 232 -14 109 l 117 279 q 155 156 119 200 q 265 111 191 111 q 344 130 311 111 q 400 180 376 149 q 438 252 424 211 q 463 338 453 293 l 579 885 l 720 885 l 603 338 z "},"K":{"ha":758,"x_min":-33,"x_max":750,"o":"m 561 0 l 397 0 l 253 412 l 179 343 l 107 0 l -33 0 l 154 885 l 294 885 l 221 538 l 570 885 l 750 885 l 364 518 l 561 0 z "},"L":{"ha":758,"x_min":-33,"x_max":558,"o":"m 532 0 l -33 0 l 154 885 l 294 885 l 134 126 l 558 126 l 532 0 z "},"M":{"ha":758,"x_min":-33,"x_max":720,"o":"m 532 0 l 392 0 l 518 599 l 361 281 l 253 281 l 233 599 l 107 0 l -33 0 l 154 885 l 321 885 l 351 485 l 551 885 l 720 885 l 532 0 z "},"N":{"ha":758,"x_min":-33,"x_max":720,"o":"m 532 0 l 370 0 l 243 642 l 107 0 l -33 0 l 154 885 l 330 885 l 450 275 l 579 885 l 720 885 l 532 0 z "},"O":{"ha":758,"x_min":-14,"x_max":701,"o":"m 4 443 q 60 614 24 532 q 150 760 96 697 q 276 862 204 823 q 440 900 349 900 q 589 862 532 900 q 673 760 646 823 q 701 614 700 697 q 682 443 701 532 q 628 272 664 354 q 538 125 591 189 q 412 23 485 61 q 245 -16 339 -16 q 96 23 153 -16 q 13 125 40 61 q -14 272 -14 189 q 4 443 -14 354 m 144 443 q 129 323 132 383 q 137 217 125 264 q 181 140 149 170 q 273 111 214 111 q 377 140 334 111 q 454 217 421 170 q 508 323 486 264 q 542 443 529 383 q 558 562 554 503 q 550 668 562 621 q 505 745 538 715 q 414 774 472 774 q 247 686 317 774 q 144 443 178 599 z "},"P":{"ha":758,"x_min":-33,"x_max":724,"o":"m 697 621 q 574 423 668 488 q 335 358 479 358 l 182 358 l 107 0 l -33 0 l 154 885 l 446 885 q 657 818 591 885 q 697 621 724 751 m 557 623 q 534 724 571 690 q 421 758 497 758 l 268 758 l 210 485 l 363 485 q 490 519 439 485 q 557 623 542 553 z "},"Q":{"ha":758,"x_min":-16,"x_max":701,"o":"m 4 443 q 60 614 24 532 q 150 760 96 697 q 276 862 204 823 q 440 900 349 900 q 589 862 532 900 q 673 760 646 823 q 701 614 700 697 q 682 443 701 532 q 635 285 665 361 q 558 149 604 210 q 450 45 511 87 q 311 -9 389 3 q 347 -101 304 -77 q 481 -126 390 -126 q 508 -125 493 -126 q 538 -125 522 -125 l 511 -250 q 474 -252 492 -252 q 439 -253 456 -253 q 229 -190 301 -253 q 167 -5 157 -127 q 60 53 100 11 q 2 156 20 96 q -14 290 -16 216 q 4 443 -12 364 m 144 443 q 129 323 132 383 q 137 217 125 264 q 181 140 149 170 q 273 111 214 111 q 377 140 334 111 q 454 217 421 170 q 508 323 486 264 q 542 443 529 383 q 558 562 554 503 q 550 668 562 621 q 505 745 538 715 q 414 774 472 774 q 247 686 317 774 q 144 443 178 599 z "},"R":{"ha":758,"x_min":-33,"x_max":724,"o":"m 578 0 l 400 0 l 245 358 l 182 358 l 107 0 l -33 0 l 154 885 l 446 885 q 657 818 591 885 q 697 621 724 751 q 657 518 685 562 q 590 441 629 473 q 502 391 550 410 q 401 366 454 372 l 578 0 m 557 623 q 534 724 571 690 q 419 758 497 758 l 268 758 l 210 485 l 361 485 q 490 519 439 485 q 557 623 542 553 z "},"S":{"ha":758,"x_min":-49,"x_max":710,"o":"m 595 243 q 550 134 581 182 q 476 53 519 86 q 380 2 433 20 q 272 -16 328 -16 q 164 7 210 -16 q 94 81 119 29 l 78 0 l -49 0 l 12 289 l 139 289 q 137 212 129 245 q 166 156 146 179 q 217 122 186 134 q 285 110 248 110 q 392 139 347 110 q 452 232 437 168 q 451 289 458 265 q 426 331 444 313 q 379 364 408 350 q 314 393 350 378 q 224 430 268 410 q 149 480 180 450 q 103 554 118 510 q 103 664 89 597 q 146 766 115 722 q 219 840 176 810 q 311 885 261 869 q 414 900 361 900 q 513 874 475 900 q 567 806 551 848 l 583 885 l 710 885 l 652 610 l 525 610 q 510 731 542 688 q 408 775 478 775 q 301 747 347 775 q 244 667 254 718 q 244 622 237 640 q 268 588 252 603 q 313 559 285 572 q 378 530 340 546 q 468 490 424 513 q 545 435 513 468 q 593 356 578 403 q 595 243 608 310 z "},"T":{"ha":758,"x_min":39,"x_max":751,"o":"m 684 562 l 558 562 l 600 758 l 481 758 l 346 126 l 486 126 l 460 0 l 39 0 l 65 126 l 205 126 l 340 758 l 220 758 l 178 562 l 53 562 l 121 885 l 751 885 l 684 562 z "},"U":{"ha":758,"x_min":17,"x_max":720,"o":"m 599 315 q 553 179 582 240 q 479 75 524 118 q 376 8 435 32 q 244 -16 318 -16 q 123 8 171 -16 q 50 75 75 32 q 21 180 25 118 q 33 317 17 241 l 154 885 l 294 885 l 174 315 q 164 247 167 282 q 169 180 161 211 q 201 131 176 150 q 272 111 227 111 q 350 131 318 111 q 404 180 382 150 q 439 246 427 210 q 458 315 452 282 l 579 885 l 720 885 l 599 315 z "},"V":{"ha":758,"x_min":81,"x_max":793,"o":"m 793 885 l 329 0 l 170 0 l 81 885 l 228 885 l 289 184 l 646 885 l 793 885 z "},"W":{"ha":758,"x_min":28,"x_max":796,"o":"m 796 885 l 471 0 l 326 0 l 329 382 l 172 0 l 28 0 l 78 885 l 224 885 l 179 289 l 315 632 l 450 632 l 440 289 l 650 885 l 796 885 z "},"X":{"ha":758,"x_min":-82,"x_max":753,"o":"m 579 0 l 290 0 l 317 126 l 367 126 l 315 326 l 180 126 l 231 126 l 204 0 l -82 0 l -56 126 l 21 126 l 261 447 l 158 758 l 94 758 l 121 885 l 401 885 l 375 758 l 318 758 l 367 562 l 500 758 l 444 758 l 471 885 l 753 885 l 726 758 l 659 758 l 422 447 l 526 126 l 606 126 l 579 0 z "},"Y":{"ha":758,"x_min":37,"x_max":766,"o":"m 741 758 l 676 758 l 396 361 l 346 126 l 488 126 l 461 0 l 37 0 l 64 126 l 205 126 l 256 361 l 144 758 l 81 758 l 107 885 l 386 885 l 359 758 l 298 758 l 355 498 l 522 758 l 461 758 l 488 885 l 766 885 l 741 758 z "},"Z":{"ha":758,"x_min":-33,"x_max":708,"o":"m 532 0 l -33 0 l -7 125 l 524 758 l 254 758 l 212 566 l 86 566 l 154 885 l 708 885 l 682 758 l 163 126 l 435 126 l 476 321 l 600 321 l 532 0 z "},"[":{"ha":758,"x_min":132,"x_max":694,"o":"m 427 -253 l 132 -253 l 400 1011 l 694 1011 l 668 885 l 500 885 l 285 -126 l 453 -126 l 427 -253 z "},"\\":{"ha":758,"x_min":126,"x_max":539,"o":"m 539 -119 l 424 -171 l 126 875 l 241 926 l 539 -119 z "},"]":{"ha":758,"x_min":-36,"x_max":526,"o":"m 258 -253 l -36 -253 l -9 -126 l 158 -126 l 374 885 l 205 885 l 232 1011 l 526 1011 l 258 -253 z "},"^":{"ha":758,"x_min":-26,"x_max":688,"o":"m 688 379 l 534 379 l 412 760 l 128 379 l -26 379 l 354 885 l 522 885 l 688 379 z "},"_":{"ha":758,"x_min":-93,"x_max":566,"o":"m 538 -126 l -93 -126 l -66 0 l 566 0 l 538 -126 z "},"`":{"ha":758,"x_min":264,"x_max":602,"o":"m 368 953 l 602 758 l 521 665 l 264 831 l 368 953 z "},"a":{"ha":758,"x_min":-41,"x_max":633,"o":"m -32 182 q 19 279 -20 237 q 113 349 58 321 q 232 390 167 376 q 363 404 297 404 q 425 403 399 404 q 476 399 450 401 l 481 424 q 458 498 492 473 q 363 522 425 522 q 244 506 306 522 q 122 460 182 490 l 89 570 q 235 626 158 606 q 390 647 311 647 q 489 635 441 647 q 570 597 536 624 q 619 529 604 571 q 619 424 633 486 l 530 0 l 392 0 l 411 93 q 296 13 367 41 q 150 -16 225 -16 q 66 -3 104 -16 q 3 35 28 9 q -31 97 -21 60 q -32 182 -41 134 m 212 110 q 292 120 254 110 q 362 150 330 131 q 416 195 395 168 q 444 253 437 221 l 450 277 q 389 283 418 282 q 338 283 359 283 q 176 256 235 283 q 109 189 118 229 q 212 110 92 110 z "},"b":{"ha":758,"x_min":-33,"x_max":647,"o":"m 154 885 l 294 885 l 228 575 q 322 629 277 611 q 419 647 367 647 q 527 622 481 647 q 602 554 574 597 q 639 449 631 510 q 632 315 647 387 q 582 182 616 243 q 501 77 547 121 q 397 9 454 33 q 278 -16 339 -16 q 188 3 225 -16 q 118 58 151 22 l 107 0 l -33 0 l 154 885 m 142 168 q 197 126 161 140 q 269 111 233 111 q 410 168 349 111 q 492 315 472 224 q 473 464 511 407 q 355 521 435 521 q 278 506 319 521 q 204 464 236 492 l 142 168 z "},"c":{"ha":758,"x_min":-31,"x_max":665,"o":"m 559 90 q 414 7 486 29 q 262 -16 342 -16 q 123 8 183 -16 q 28 75 64 32 q -19 179 -7 118 q -14 315 -31 240 q 39 449 1 387 q 126 554 77 510 q 237 622 176 597 q 361 647 298 647 q 468 620 427 647 q 521 541 510 593 l 541 632 l 665 632 l 603 338 l 478 338 q 460 471 496 421 q 351 521 425 521 q 288 509 322 521 q 222 472 254 497 q 163 408 189 447 q 126 315 138 370 q 124 224 115 262 q 154 161 132 186 q 212 124 176 136 q 288 111 248 111 q 410 133 355 111 q 509 189 465 154 l 559 90 z "},"d":{"ha":758,"x_min":-17,"x_max":720,"o":"m 532 0 l 392 0 l 403 58 q 310 3 355 22 q 211 -16 264 -16 q 103 9 150 -16 q 28 77 57 33 q -8 182 0 121 q -1 315 -17 243 q 48 449 14 387 q 130 554 83 510 q 234 622 176 597 q 353 647 292 647 q 443 629 406 647 q 513 575 481 611 l 553 758 l 431 758 l 457 885 l 720 885 l 532 0 m 489 464 q 434 506 471 492 q 361 521 397 521 q 220 464 282 521 q 139 315 158 407 q 158 168 119 224 q 275 111 196 111 q 354 126 311 111 q 427 168 396 140 l 489 464 z "},"e":{"ha":758,"x_min":-31,"x_max":665,"o":"m 118 262 q 157 154 114 197 q 288 111 200 111 q 410 133 355 111 q 509 189 465 154 l 559 90 q 413 7 486 29 q 260 -16 340 -16 q 128 9 186 -16 q 34 77 71 33 q -17 181 -3 121 q -14 315 -31 241 q 38 448 1 387 q 129 553 75 509 q 249 622 182 597 q 389 647 315 647 q 522 621 465 647 q 612 545 578 595 q 655 424 646 496 q 647 262 665 353 l 118 262 m 515 386 q 472 484 517 447 q 361 521 428 521 q 234 484 294 521 q 150 386 174 447 l 515 386 z "},"f":{"ha":758,"x_min":39,"x_max":754,"o":"m 672 505 l 427 505 l 346 126 l 490 126 l 464 0 l 39 0 l 65 126 l 205 126 l 286 505 l 146 505 l 172 632 l 313 632 q 435 831 340 762 q 665 900 529 900 q 709 898 686 900 q 754 893 732 896 l 728 770 q 656 774 689 774 q 567 766 602 774 q 509 741 532 758 q 474 696 486 724 q 453 632 461 669 l 699 632 l 672 505 z "},"g":{"ha":758,"x_min":-86,"x_max":665,"o":"m 533 7 q 486 -109 519 -58 q 405 -195 453 -160 q 298 -249 357 -231 q 172 -268 239 -268 q -86 -168 7 -268 l 1 -60 q 200 -143 82 -143 q 323 -107 272 -143 q 392 4 375 -72 l 407 72 q 311 17 355 35 q 214 -1 267 -1 q 106 24 153 -1 q 32 95 60 50 q -5 198 4 139 q 0 323 -14 257 q 48 449 14 390 q 129 552 82 509 q 234 622 176 596 q 353 647 292 647 q 443 629 406 647 q 513 575 481 611 l 525 632 l 665 632 l 533 7 m 489 464 q 434 506 471 492 q 359 521 397 521 q 219 465 281 521 q 140 323 158 410 q 136 244 131 281 q 160 182 142 208 q 208 140 178 155 q 277 125 237 125 q 356 140 314 125 q 431 183 399 155 l 489 464 z "},"h":{"ha":758,"x_min":-33,"x_max":642,"o":"m 532 0 l 392 0 l 473 390 q 467 492 489 464 q 393 521 446 521 q 253 458 315 521 q 167 283 191 395 l 107 0 l -33 0 l 154 885 l 294 885 l 207 473 q 312 601 245 555 q 463 647 379 647 q 601 584 559 647 q 614 390 642 521 l 532 0 z "},"i":{"ha":758,"x_min":39,"x_max":522,"o":"m 486 714 l 315 714 l 351 885 l 522 885 l 486 714 m 464 0 l 39 0 l 65 126 l 205 126 l 286 505 l 146 505 l 172 632 l 453 632 l 346 126 l 490 126 l 464 0 z "},"j":{"ha":758,"x_min":-100,"x_max":648,"o":"m 109 -268 q -100 -160 -36 -268 l 1 -66 q 58 -123 26 -104 q 136 -142 90 -142 q 249 -103 207 -142 q 306 0 292 -64 l 412 505 l 269 505 l 296 632 l 579 632 l 446 0 q 401 -111 432 -61 q 327 -195 371 -160 q 227 -249 282 -231 q 109 -268 171 -268 m 612 714 l 441 714 l 478 885 l 648 885 l 612 714 z "},"k":{"ha":758,"x_min":-33,"x_max":686,"o":"m 564 0 l 382 0 l 225 256 l 147 191 l 107 0 l -33 0 l 154 885 l 294 885 l 183 364 l 493 632 l 686 632 l 334 342 l 564 0 z "},"l":{"ha":758,"x_min":40,"x_max":507,"o":"m 465 0 l 40 0 l 66 126 l 205 126 l 340 758 l 201 758 l 228 885 l 507 885 l 346 126 l 492 126 l 465 0 z "},"m":{"ha":758,"x_min":-66,"x_max":682,"o":"m 566 0 l 425 0 l 517 433 q 522 499 526 478 q 493 521 517 521 q 431 474 452 521 q 390 336 410 427 l 319 0 l 179 0 l 271 433 q 275 499 281 478 q 245 521 269 521 q 184 474 204 521 q 144 336 164 427 l 74 0 l -66 0 l 66 632 l 208 632 l 189 541 q 251 620 215 593 q 335 647 286 647 q 397 622 375 647 q 419 554 419 597 q 485 624 454 602 q 568 647 515 647 q 658 599 633 647 q 661 454 682 551 l 566 0 z "},"n":{"ha":758,"x_min":-33,"x_max":642,"o":"m 532 0 l 392 0 l 473 390 q 467 492 489 464 q 393 521 446 521 q 253 458 315 521 q 167 283 191 395 l 107 0 l -33 0 l 100 632 l 240 632 l 207 473 q 312 601 245 555 q 463 647 379 647 q 601 584 559 647 q 614 390 642 521 l 532 0 z "},"o":{"ha":758,"x_min":-31,"x_max":664,"o":"m 648 315 q 596 181 632 241 q 507 77 559 121 q 388 9 454 33 q 245 -16 321 -16 q 117 9 172 -16 q 26 77 61 33 q -19 181 -8 121 q -14 315 -31 241 q 38 449 1 387 q 128 554 75 510 q 247 623 180 599 q 387 647 314 647 q 518 623 463 647 q 608 554 574 599 q 653 449 643 510 q 648 315 664 387 m 509 315 q 512 396 517 358 q 488 462 507 435 q 436 505 468 489 q 359 521 404 521 q 276 505 315 521 q 208 462 237 489 q 156 396 178 435 q 126 315 135 358 q 122 234 117 271 q 146 170 127 197 q 197 126 164 142 q 273 111 229 111 q 356 126 318 111 q 426 170 395 142 q 478 234 457 197 q 509 315 498 271 z "},"p":{"ha":758,"x_min":-86,"x_max":647,"o":"m 100 632 l 240 632 l 228 575 q 322 629 277 611 q 419 647 367 647 q 527 622 481 647 q 602 554 574 597 q 639 449 631 510 q 632 315 647 387 q 582 182 616 243 q 501 77 547 121 q 397 9 454 33 q 278 -16 339 -16 q 188 3 225 -16 q 118 58 151 22 l 53 -253 l -86 -253 l 100 632 m 142 170 q 197 126 161 142 q 269 111 233 111 q 410 168 349 111 q 492 315 472 224 q 473 464 511 407 q 355 521 435 521 q 278 506 319 521 q 204 464 236 492 l 142 170 z "},"q":{"ha":758,"x_min":-17,"x_max":665,"o":"m 478 -253 l 338 -253 l 403 58 q 310 3 355 22 q 211 -16 264 -16 q 103 9 150 -16 q 28 77 57 33 q -8 182 0 121 q -1 315 -17 243 q 48 449 14 387 q 130 554 83 510 q 234 622 176 597 q 353 647 292 647 q 443 629 406 647 q 513 575 481 611 l 525 632 l 665 632 l 478 -253 m 489 464 q 434 506 471 492 q 361 521 397 521 q 220 464 282 521 q 139 315 158 407 q 158 168 119 224 q 275 111 196 111 q 354 126 311 111 q 427 168 396 140 l 489 464 z "},"r":{"ha":758,"x_min":-66,"x_max":733,"o":"m 652 482 q 604 501 629 494 q 546 507 579 507 q 455 493 498 507 q 375 452 411 479 q 314 382 339 424 q 277 283 289 340 l 243 126 l 385 126 l 358 0 l -66 0 l -40 126 l 103 126 l 183 505 l 40 505 l 66 632 l 350 632 l 317 473 q 447 608 371 568 q 616 647 524 647 q 676 641 646 647 q 733 619 707 635 l 652 482 z "},"s":{"ha":758,"x_min":-58,"x_max":635,"o":"m 587 189 q 539 89 575 127 q 454 26 503 50 q 349 -6 406 3 q 241 -16 293 -16 q 76 9 155 -16 q -58 75 -4 35 l 25 191 q 149 129 90 147 q 269 111 207 111 q 396 129 354 111 q 446 179 439 147 q 440 205 449 195 q 408 223 431 215 q 346 240 385 232 q 248 258 307 249 q 159 278 200 267 q 90 312 118 290 q 48 367 61 334 q 45 450 35 400 q 90 539 56 501 q 172 601 125 576 q 275 636 220 625 q 383 647 330 647 q 524 628 458 647 q 635 572 590 608 l 555 464 q 463 509 511 497 q 355 521 415 521 q 303 518 330 521 q 251 508 275 515 q 209 487 227 500 q 186 454 191 473 q 221 413 180 429 q 367 382 262 397 q 469 361 424 374 q 544 327 514 349 q 586 272 574 306 q 587 189 599 239 z "},"t":{"ha":758,"x_min":40,"x_max":615,"o":"m 614 201 q 502 43 582 102 q 321 -16 422 -16 q 223 3 265 -16 q 156 54 182 21 q 122 132 131 86 q 125 232 114 178 l 183 505 l 40 505 l 66 632 l 210 632 l 264 885 l 404 885 l 350 632 l 615 632 l 589 505 l 323 505 l 265 232 q 276 141 253 171 q 349 111 300 111 q 445 146 408 111 q 497 229 481 180 l 614 201 z "},"u":{"ha":758,"x_min":-9,"x_max":665,"o":"m 100 632 l 240 632 l 157 241 q 164 140 142 168 q 239 111 186 111 q 379 174 317 111 q 465 349 441 237 l 525 632 l 665 632 l 532 0 l 392 0 l 425 158 q 319 31 386 77 q 170 -16 253 -16 q 31 48 72 -16 q 17 241 -9 111 l 100 632 z "},"v":{"ha":758,"x_min":66,"x_max":699,"o":"m 699 632 l 332 0 l 167 0 l 66 632 l 216 632 l 282 154 l 549 632 l 699 632 z "},"w":{"ha":758,"x_min":8,"x_max":718,"o":"m 718 632 l 490 0 l 317 0 l 330 380 l 182 0 l 8 0 l 47 632 l 184 632 l 151 210 l 309 632 l 457 632 l 436 210 l 581 632 l 718 632 z "},"x":{"ha":758,"x_min":-81,"x_max":699,"o":"m 581 0 l 281 0 l 307 126 l 363 126 l 304 258 l 192 126 l 243 126 l 216 0 l -81 0 l -54 126 l 37 126 l 221 321 l 125 505 l 40 505 l 66 632 l 351 632 l 325 505 l 281 505 l 330 383 l 435 505 l 385 505 l 411 632 l 699 632 l 672 505 l 590 505 l 416 321 l 517 126 l 607 126 l 581 0 z "},"y":{"ha":758,"x_min":-118,"x_max":693,"o":"m 693 632 l 261 -123 q 148 -236 212 -205 q 3 -267 83 -267 q -56 -261 -25 -267 q -118 -243 -86 -256 l -62 -114 q -13 -129 -36 -125 q 31 -134 11 -134 q 129 -78 93 -134 l 167 -17 l 62 632 l 208 632 l 281 154 l 543 632 l 693 632 z "},"z":{"ha":758,"x_min":-33,"x_max":653,"o":"m 532 0 l -33 0 l -7 125 l 433 505 l 197 505 l 170 378 l 46 378 l 100 632 l 653 632 l 627 505 l 184 126 l 435 126 l 461 252 l 585 252 l 532 0 z "},"{":{"ha":758,"x_min":126,"x_max":693,"o":"m 425 -253 l 321 -253 q 247 -239 279 -253 q 196 -199 215 -225 q 170 -139 176 -174 q 172 -62 164 -104 l 233 227 q 217 299 245 282 q 126 315 189 315 l 153 441 q 251 457 215 441 q 298 530 286 473 l 359 819 q 390 896 368 861 q 441 956 411 930 q 510 997 472 982 q 589 1011 547 1011 l 693 1011 l 667 885 l 562 885 q 510 870 526 885 q 486 819 493 856 l 425 530 q 364 427 411 467 q 264 378 317 387 q 309 362 289 374 q 342 330 329 350 q 361 283 355 310 q 359 227 367 257 l 298 -62 q 301 -113 290 -98 q 347 -127 311 -127 l 452 -127 l 425 -253 z "},"|":{"ha":758,"x_min":158,"x_max":526,"o":"m 285 -126 l 158 -126 l 400 1011 l 526 1011 l 285 -126 z "},"}":{"ha":758,"x_min":-35,"x_max":533,"o":"m -8 -127 l 96 -127 q 148 -113 132 -127 q 172 -62 164 -98 l 235 229 q 257 286 240 260 q 295 333 273 313 q 342 365 317 353 q 395 380 368 376 q 315 430 346 390 q 298 533 285 469 l 359 822 q 358 872 368 859 q 311 885 347 885 l 207 885 l 233 1011 l 338 1011 q 411 997 379 1011 q 463 958 443 983 q 489 899 482 933 q 486 822 496 864 l 425 533 q 441 460 412 476 q 533 444 471 444 l 505 318 q 408 301 443 318 q 361 229 372 285 l 298 -62 q 269 -139 290 -104 q 217 -199 248 -174 q 149 -239 186 -225 q 69 -253 111 -253 l -35 -253 l -8 -127 z "},"~":{"ha":758,"x_min":-32,"x_max":664,"o":"m 416 295 q 478 334 453 295 q 533 463 503 372 l 664 453 q 622 340 647 392 q 561 250 596 288 q 483 189 526 212 q 389 167 440 167 q 308 193 333 167 q 270 252 283 220 q 248 311 257 285 q 215 338 239 338 q 155 299 179 338 q 100 171 130 261 l -32 181 q 12 293 -14 241 q 72 384 37 346 q 149 445 106 422 q 243 467 192 467 q 324 440 298 467 q 362 381 350 413 q 385 322 375 349 q 416 295 395 295 z "},"Ä":{"ha":758,"x_min":-107,"x_max":703,"o":"m 460 0 l 440 211 l 147 211 l 40 0 l -107 0 l 357 885 l 518 885 l 607 0 l 460 0 m 211 335 l 429 335 l 399 700 l 211 335 m 667 966 l 496 966 l 532 1137 l 703 1137 l 667 966 m 414 966 l 243 966 l 279 1137 l 450 1137 l 414 966 z "},"Å":{"ha":758,"x_min":-107,"x_max":618,"o":"m 306 983 q 330 1043 313 1015 q 373 1092 347 1071 q 429 1124 399 1112 q 490 1136 458 1136 q 548 1124 522 1136 q 590 1092 574 1112 q 612 1043 606 1071 q 611 983 618 1015 q 578 912 603 945 q 521 859 554 879 l 607 0 l 460 0 l 440 211 l 147 211 l 40 0 l -107 0 l 343 859 q 308 912 318 879 q 306 983 297 945 m 211 335 l 429 335 l 399 700 l 211 335 m 396 983 q 404 939 390 957 q 444 921 418 921 q 493 939 471 921 q 521 983 515 957 q 512 1028 526 1010 q 472 1046 498 1046 q 424 1028 446 1046 q 396 983 401 1010 z "},"Ç":{"ha":758,"x_min":-5,"x_max":753,"o":"m 636 271 q 508 85 583 160 q 330 -8 433 11 l 326 -28 q 292 -116 317 -75 q 230 -186 267 -157 q 146 -234 193 -216 q 43 -252 98 -252 l 69 -131 q 163 -104 129 -131 q 207 -28 197 -77 l 211 -12 q 85 38 132 -3 q 17 142 39 79 q -5 282 -5 204 q 12 443 -4 359 q 67 614 32 532 q 157 760 103 697 q 281 862 211 823 q 441 900 351 900 q 499 892 471 900 q 550 870 528 885 q 587 832 572 854 q 604 781 602 810 l 627 885 l 753 885 l 682 550 l 555 550 q 562 632 564 591 q 544 703 559 672 q 499 754 529 734 q 424 774 469 774 q 320 745 364 774 q 242 668 275 715 q 188 562 210 621 q 153 443 165 503 q 137 323 140 383 q 145 217 134 264 q 190 140 157 170 q 283 111 224 111 q 427 166 370 111 q 533 314 485 221 l 636 271 z "},"É":{"ha":758,"x_min":-33,"x_max":720,"o":"m 532 0 l -33 0 l 154 885 l 720 885 l 693 758 l 268 758 l 215 514 l 547 514 l 521 387 l 189 387 l 134 126 l 558 126 l 532 0 m 646 1082 l 317 917 l 278 1010 l 592 1204 l 646 1082 z "},"Ñ":{"ha":758,"x_min":-33,"x_max":760,"o":"m 532 0 l 370 0 l 243 642 l 107 0 l -33 0 l 154 885 l 330 885 l 450 275 l 579 885 l 720 885 l 532 0 m 760 1096 q 660 994 714 1031 q 543 957 606 957 q 489 969 510 957 q 451 997 468 982 q 416 1024 433 1011 q 374 1036 399 1036 q 311 1015 339 1036 q 252 956 282 994 l 179 1003 q 279 1104 225 1067 q 396 1141 334 1141 q 450 1128 429 1141 q 488 1101 471 1116 q 523 1074 506 1086 q 566 1061 541 1061 q 629 1083 600 1061 q 688 1143 657 1104 l 760 1096 z "},"Ö":{"ha":758,"x_min":-14,"x_max":703,"o":"m 4 443 q 60 614 24 532 q 150 760 96 697 q 276 862 204 823 q 440 900 349 900 q 589 862 532 900 q 673 760 646 823 q 701 614 700 697 q 682 443 701 532 q 628 272 664 354 q 538 125 591 189 q 412 23 485 61 q 245 -16 339 -16 q 96 23 153 -16 q 13 125 40 61 q -14 272 -14 189 q 4 443 -14 354 m 144 443 q 129 323 132 383 q 137 217 125 264 q 181 140 149 170 q 273 111 214 111 q 377 140 334 111 q 454 217 421 170 q 508 323 486 264 q 542 443 529 383 q 558 562 554 503 q 550 668 562 621 q 505 745 538 715 q 414 774 472 774 q 247 686 317 774 q 144 443 178 599 m 667 966 l 496 966 l 532 1137 l 703 1137 l 667 966 m 414 966 l 243 966 l 279 1137 l 450 1137 l 414 966 z "},"Ü":{"ha":758,"x_min":17,"x_max":720,"o":"m 599 315 q 553 179 582 240 q 479 75 524 118 q 376 8 435 32 q 244 -16 318 -16 q 123 8 171 -16 q 50 75 75 32 q 21 180 25 118 q 33 317 17 241 l 154 885 l 294 885 l 174 315 q 164 247 167 282 q 169 180 161 211 q 201 131 176 150 q 272 111 227 111 q 350 131 318 111 q 404 180 382 150 q 439 246 427 210 q 458 315 452 282 l 579 885 l 720 885 l 599 315 m 667 966 l 496 966 l 532 1137 l 703 1137 l 667 966 m 414 966 l 243 966 l 279 1137 l 450 1137 l 414 966 z "},"á":{"ha":758,"x_min":-41,"x_max":633,"o":"m -32 182 q 19 279 -20 237 q 113 349 58 321 q 232 390 167 376 q 363 404 297 404 q 425 403 399 404 q 476 399 450 401 l 481 424 q 458 498 492 473 q 363 522 425 522 q 244 506 306 522 q 122 460 182 490 l 89 570 q 235 626 158 606 q 390 647 311 647 q 489 635 441 647 q 570 597 536 624 q 619 529 604 571 q 619 424 633 486 l 530 0 l 392 0 l 411 93 q 296 13 367 41 q 150 -16 225 -16 q 66 -3 104 -16 q 3 35 28 9 q -31 97 -21 60 q -32 182 -41 134 m 212 110 q 292 120 254 110 q 362 150 330 131 q 416 195 395 168 q 444 253 437 221 l 450 277 q 389 283 418 282 q 338 283 359 283 q 176 256 235 283 q 109 189 118 229 q 212 110 92 110 m 591 831 l 262 665 l 224 758 l 538 953 l 591 831 z "},"à":{"ha":758,"x_min":-41,"x_max":633,"o":"m -32 182 q 19 279 -20 237 q 113 349 58 321 q 232 390 167 376 q 363 404 297 404 q 425 403 399 404 q 476 399 450 401 l 481 424 q 458 498 492 473 q 363 522 425 522 q 244 506 306 522 q 122 460 182 490 l 89 570 q 235 626 158 606 q 390 647 311 647 q 489 635 441 647 q 570 597 536 624 q 619 529 604 571 q 619 424 633 486 l 530 0 l 392 0 l 411 93 q 296 13 367 41 q 150 -16 225 -16 q 66 -3 104 -16 q 3 35 28 9 q -31 97 -21 60 q -32 182 -41 134 m 212 110 q 292 120 254 110 q 362 150 330 131 q 416 195 395 168 q 444 253 437 221 l 450 277 q 389 283 418 282 q 338 283 359 283 q 176 256 235 283 q 109 189 118 229 q 212 110 92 110 m 368 953 l 602 758 l 521 665 l 264 831 l 368 953 z "},"â":{"ha":758,"x_min":-41,"x_max":633,"o":"m -32 182 q 19 279 -20 237 q 113 349 58 321 q 232 390 167 376 q 363 404 297 404 q 425 403 399 404 q 476 399 450 401 l 481 424 q 458 498 492 473 q 363 522 425 522 q 244 506 306 522 q 122 460 182 490 l 89 570 q 235 626 158 606 q 390 647 311 647 q 489 635 441 647 q 570 597 536 624 q 619 529 604 571 q 619 424 633 486 l 530 0 l 392 0 l 411 93 q 296 13 367 41 q 150 -16 225 -16 q 66 -3 104 -16 q 3 35 28 9 q -31 97 -21 60 q -32 182 -41 134 m 212 110 q 292 120 254 110 q 362 150 330 131 q 416 195 395 168 q 444 253 437 221 l 450 277 q 389 283 418 282 q 338 283 359 283 q 176 256 235 283 q 109 189 118 229 q 212 110 92 110 m 625 736 l 557 667 l 422 806 l 225 665 l 186 733 l 452 949 l 625 736 z "},"ä":{"ha":758,"x_min":-41,"x_max":648,"o":"m -32 182 q 19 279 -20 237 q 113 349 58 321 q 232 390 167 376 q 363 404 297 404 q 425 403 399 404 q 476 399 450 401 l 481 424 q 458 498 492 473 q 363 522 425 522 q 244 506 306 522 q 122 460 182 490 l 89 570 q 235 626 158 606 q 390 647 311 647 q 489 635 441 647 q 570 597 536 624 q 619 529 604 571 q 619 424 633 486 l 530 0 l 392 0 l 411 93 q 296 13 367 41 q 150 -16 225 -16 q 66 -3 104 -16 q 3 35 28 9 q -31 97 -21 60 q -32 182 -41 134 m 212 110 q 292 120 254 110 q 362 150 330 131 q 416 195 395 168 q 444 253 437 221 l 450 277 q 389 283 418 282 q 338 283 359 283 q 176 256 235 283 q 109 189 118 229 q 212 110 92 110 m 612 714 l 441 714 l 478 885 l 648 885 l 612 714 m 359 714 l 189 714 l 225 885 l 396 885 l 359 714 z "},"ã":{"ha":758,"x_min":-41,"x_max":705,"o":"m -32 182 q 19 279 -20 237 q 113 349 58 321 q 232 390 167 376 q 363 404 297 404 q 425 403 399 404 q 476 399 450 401 l 481 424 q 458 498 492 473 q 363 522 425 522 q 244 506 306 522 q 122 460 182 490 l 89 570 q 235 626 158 606 q 390 647 311 647 q 489 635 441 647 q 570 597 536 624 q 619 529 604 571 q 619 424 633 486 l 530 0 l 392 0 l 411 93 q 296 13 367 41 q 150 -16 225 -16 q 66 -3 104 -16 q 3 35 28 9 q -31 97 -21 60 q -32 182 -41 134 m 212 110 q 292 120 254 110 q 362 150 330 131 q 416 195 395 168 q 444 253 437 221 l 450 277 q 389 283 418 282 q 338 283 359 283 q 176 256 235 283 q 109 189 118 229 q 212 110 92 110 m 705 844 q 606 742 660 779 q 489 705 551 705 q 435 718 456 705 q 396 745 414 730 q 362 772 379 760 q 319 785 345 785 q 256 763 285 785 q 197 704 228 742 l 125 751 q 225 852 171 815 q 342 889 279 889 q 396 877 375 889 q 434 849 416 864 q 469 822 452 835 q 511 810 486 810 q 574 831 546 810 q 633 892 603 852 l 705 844 z "},"å":{"ha":758,"x_min":-41,"x_max":633,"o":"m -32 182 q 19 279 -20 237 q 113 349 58 321 q 232 390 167 376 q 363 404 297 404 q 425 403 399 404 q 476 399 450 401 l 481 424 q 458 498 492 473 q 363 522 425 522 q 244 506 306 522 q 122 460 182 490 l 89 570 q 235 626 158 606 q 390 647 311 647 q 489 635 441 647 q 570 597 536 624 q 619 529 604 571 q 619 424 633 486 l 530 0 l 392 0 l 411 93 q 296 13 367 41 q 150 -16 225 -16 q 66 -3 104 -16 q 3 35 28 9 q -31 97 -21 60 q -32 182 -41 134 m 212 110 q 292 120 254 110 q 362 150 330 131 q 416 195 395 168 q 444 253 437 221 l 450 277 q 389 283 418 282 q 338 283 359 283 q 176 256 235 283 q 109 189 118 229 q 212 110 92 110 m 278 852 q 302 912 285 885 q 345 961 319 940 q 401 994 371 982 q 463 1006 431 1006 q 520 994 494 1006 q 562 961 546 982 q 584 912 578 940 q 583 852 590 885 q 559 793 576 821 q 516 744 542 765 q 460 712 490 724 q 399 700 431 700 q 341 712 367 700 q 299 744 315 724 q 277 793 283 765 q 278 852 271 821 m 368 852 q 376 808 363 827 q 416 790 390 790 q 465 808 443 790 q 493 852 488 827 q 485 897 498 879 q 444 916 471 916 q 396 897 418 916 q 368 852 374 879 z "},"ç":{"ha":758,"x_min":-45,"x_max":665,"o":"m 559 90 q 446 19 501 41 q 330 -11 390 -4 l 326 -28 q 292 -116 317 -75 q 230 -186 267 -157 q 146 -234 193 -216 q 43 -252 98 -252 l 69 -131 q 163 -104 129 -131 q 207 -28 197 -77 l 211 -12 q 16 90 77 3 q -14 315 -45 176 q 39 449 1 387 q 126 554 77 510 q 237 622 176 597 q 361 647 298 647 q 468 620 427 647 q 521 541 510 593 l 541 632 l 665 632 l 603 338 l 478 338 q 460 471 496 421 q 351 521 425 521 q 288 509 322 521 q 222 472 254 497 q 163 408 189 447 q 126 315 138 370 q 124 224 115 262 q 154 161 132 186 q 212 124 176 136 q 288 111 248 111 q 410 133 355 111 q 509 189 465 154 l 559 90 z "},"é":{"ha":758,"x_min":-31,"x_max":665,"o":"m 118 262 q 157 154 114 197 q 288 111 200 111 q 410 133 355 111 q 509 189 465 154 l 559 90 q 413 7 486 29 q 260 -16 340 -16 q 128 9 186 -16 q 34 77 71 33 q -17 181 -3 121 q -14 315 -31 241 q 38 448 1 387 q 129 553 75 509 q 249 622 182 597 q 389 647 315 647 q 522 621 465 647 q 612 545 578 595 q 655 424 646 496 q 647 262 665 353 l 118 262 m 515 386 q 472 484 517 447 q 361 521 428 521 q 234 484 294 521 q 150 386 174 447 l 515 386 m 591 831 l 262 665 l 224 758 l 538 953 l 591 831 z "},"è":{"ha":758,"x_min":-31,"x_max":665,"o":"m 118 262 q 157 154 114 197 q 288 111 200 111 q 410 133 355 111 q 509 189 465 154 l 559 90 q 413 7 486 29 q 260 -16 340 -16 q 128 9 186 -16 q 34 77 71 33 q -17 181 -3 121 q -14 315 -31 241 q 38 448 1 387 q 129 553 75 509 q 249 622 182 597 q 389 647 315 647 q 522 621 465 647 q 612 545 578 595 q 655 424 646 496 q 647 262 665 353 l 118 262 m 515 386 q 472 484 517 447 q 361 521 428 521 q 234 484 294 521 q 150 386 174 447 l 515 386 m 368 953 l 602 758 l 521 665 l 264 831 l 368 953 z "},"ê":{"ha":758,"x_min":-31,"x_max":665,"o":"m 118 262 q 157 154 114 197 q 288 111 200 111 q 410 133 355 111 q 509 189 465 154 l 559 90 q 413 7 486 29 q 260 -16 340 -16 q 128 9 186 -16 q 34 77 71 33 q -17 181 -3 121 q -14 315 -31 241 q 38 448 1 387 q 129 553 75 509 q 249 622 182 597 q 389 647 315 647 q 522 621 465 647 q 612 545 578 595 q 655 424 646 496 q 647 262 665 353 l 118 262 m 515 386 q 472 484 517 447 q 361 521 428 521 q 234 484 294 521 q 150 386 174 447 l 515 386 m 625 736 l 557 667 l 422 806 l 225 665 l 186 733 l 452 949 l 625 736 z "},"ë":{"ha":758,"x_min":-31,"x_max":665,"o":"m 118 262 q 157 154 114 197 q 288 111 200 111 q 410 133 355 111 q 509 189 465 154 l 559 90 q 413 7 486 29 q 260 -16 340 -16 q 128 9 186 -16 q 34 77 71 33 q -17 181 -3 121 q -14 315 -31 241 q 38 448 1 387 q 129 553 75 509 q 249 622 182 597 q 389 647 315 647 q 522 621 465 647 q 612 545 578 595 q 655 424 646 496 q 647 262 665 353 l 118 262 m 515 386 q 472 484 517 447 q 361 521 428 521 q 234 484 294 521 q 150 386 174 447 l 515 386 m 612 714 l 441 714 l 478 885 l 648 885 l 612 714 m 359 714 l 189 714 l 225 885 l 396 885 l 359 714 z "},"í":{"ha":758,"x_min":39,"x_max":591,"o":"m 464 0 l 39 0 l 65 126 l 205 126 l 286 505 l 146 505 l 172 632 l 453 632 l 346 126 l 490 126 l 464 0 m 591 831 l 262 665 l 224 758 l 538 953 l 591 831 z "},"ì":{"ha":758,"x_min":39,"x_max":602,"o":"m 464 0 l 39 0 l 65 126 l 205 126 l 286 505 l 146 505 l 172 632 l 453 632 l 346 126 l 490 126 l 464 0 m 368 953 l 602 758 l 521 665 l 264 831 l 368 953 z "},"î":{"ha":758,"x_min":39,"x_max":625,"o":"m 464 0 l 39 0 l 65 126 l 205 126 l 286 505 l 146 505 l 172 632 l 453 632 l 346 126 l 490 126 l 464 0 m 625 736 l 557 667 l 422 806 l 225 665 l 186 733 l 452 949 l 625 736 z "},"ï":{"ha":758,"x_min":39,"x_max":648,"o":"m 464 0 l 39 0 l 65 126 l 205 126 l 286 505 l 146 505 l 172 632 l 453 632 l 346 126 l 490 126 l 464 0 m 612 714 l 441 714 l 478 885 l 648 885 l 612 714 m 359 714 l 189 714 l 225 885 l 396 885 l 359 714 z "},"ñ":{"ha":758,"x_min":-33,"x_max":705,"o":"m 532 0 l 392 0 l 473 390 q 467 492 489 464 q 393 521 446 521 q 253 458 315 521 q 167 283 191 395 l 107 0 l -33 0 l 100 632 l 240 632 l 207 473 q 312 601 245 555 q 463 647 379 647 q 601 584 559 647 q 614 390 642 521 l 532 0 m 705 844 q 606 742 660 779 q 489 705 551 705 q 435 718 456 705 q 396 745 414 730 q 362 772 379 760 q 319 785 345 785 q 256 763 285 785 q 197 704 228 742 l 125 751 q 225 852 171 815 q 342 889 279 889 q 396 877 375 889 q 434 849 416 864 q 469 822 452 835 q 511 810 486 810 q 574 831 546 810 q 633 892 603 852 l 705 844 z "},"ó":{"ha":758,"x_min":-31,"x_max":664,"o":"m 648 315 q 596 181 632 241 q 507 77 559 121 q 388 9 454 33 q 245 -16 321 -16 q 117 9 172 -16 q 26 77 61 33 q -19 181 -8 121 q -14 315 -31 241 q 38 449 1 387 q 128 554 75 510 q 247 623 180 599 q 387 647 314 647 q 518 623 463 647 q 608 554 574 599 q 653 449 643 510 q 648 315 664 387 m 509 315 q 512 396 517 358 q 488 462 507 435 q 436 505 468 489 q 359 521 404 521 q 276 505 315 521 q 208 462 237 489 q 156 396 178 435 q 126 315 135 358 q 122 234 117 271 q 146 170 127 197 q 197 126 164 142 q 273 111 229 111 q 356 126 318 111 q 426 170 395 142 q 478 234 457 197 q 509 315 498 271 m 591 831 l 262 665 l 224 758 l 538 953 l 591 831 z "},"ò":{"ha":758,"x_min":-31,"x_max":664,"o":"m 648 315 q 596 181 632 241 q 507 77 559 121 q 388 9 454 33 q 245 -16 321 -16 q 117 9 172 -16 q 26 77 61 33 q -19 181 -8 121 q -14 315 -31 241 q 38 449 1 387 q 128 554 75 510 q 247 623 180 599 q 387 647 314 647 q 518 623 463 647 q 608 554 574 599 q 653 449 643 510 q 648 315 664 387 m 509 315 q 512 396 517 358 q 488 462 507 435 q 436 505 468 489 q 359 521 404 521 q 276 505 315 521 q 208 462 237 489 q 156 396 178 435 q 126 315 135 358 q 122 234 117 271 q 146 170 127 197 q 197 126 164 142 q 273 111 229 111 q 356 126 318 111 q 426 170 395 142 q 478 234 457 197 q 509 315 498 271 m 368 953 l 602 758 l 521 665 l 264 831 l 368 953 z "},"ô":{"ha":758,"x_min":-31,"x_max":664,"o":"m 648 315 q 596 181 632 241 q 507 77 559 121 q 388 9 454 33 q 245 -16 321 -16 q 117 9 172 -16 q 26 77 61 33 q -19 181 -8 121 q -14 315 -31 241 q 38 449 1 387 q 128 554 75 510 q 247 623 180 599 q 387 647 314 647 q 518 623 463 647 q 608 554 574 599 q 653 449 643 510 q 648 315 664 387 m 509 315 q 512 396 517 358 q 488 462 507 435 q 436 505 468 489 q 359 521 404 521 q 276 505 315 521 q 208 462 237 489 q 156 396 178 435 q 126 315 135 358 q 122 234 117 271 q 146 170 127 197 q 197 126 164 142 q 273 111 229 111 q 356 126 318 111 q 426 170 395 142 q 478 234 457 197 q 509 315 498 271 m 625 736 l 557 667 l 422 806 l 225 665 l 186 733 l 452 949 l 625 736 z "},"ö":{"ha":758,"x_min":-31,"x_max":664,"o":"m 648 315 q 596 181 632 241 q 507 77 559 121 q 388 9 454 33 q 245 -16 321 -16 q 117 9 172 -16 q 26 77 61 33 q -19 181 -8 121 q -14 315 -31 241 q 38 449 1 387 q 128 554 75 510 q 247 623 180 599 q 387 647 314 647 q 518 623 463 647 q 608 554 574 599 q 653 449 643 510 q 648 315 664 387 m 509 315 q 512 396 517 358 q 488 462 507 435 q 436 505 468 489 q 359 521 404 521 q 276 505 315 521 q 208 462 237 489 q 156 396 178 435 q 126 315 135 358 q 122 234 117 271 q 146 170 127 197 q 197 126 164 142 q 273 111 229 111 q 356 126 318 111 q 426 170 395 142 q 478 234 457 197 q 509 315 498 271 m 612 714 l 441 714 l 478 885 l 648 885 l 612 714 m 359 714 l 189 714 l 225 885 l 396 885 l 359 714 z "},"õ":{"ha":758,"x_min":-31,"x_max":705,"o":"m 648 315 q 596 181 632 241 q 507 77 559 121 q 388 9 454 33 q 245 -16 321 -16 q 117 9 172 -16 q 26 77 61 33 q -19 181 -8 121 q -14 315 -31 241 q 38 449 1 387 q 128 554 75 510 q 247 623 180 599 q 387 647 314 647 q 518 623 463 647 q 608 554 574 599 q 653 449 643 510 q 648 315 664 387 m 509 315 q 512 396 517 358 q 488 462 507 435 q 436 505 468 489 q 359 521 404 521 q 276 505 315 521 q 208 462 237 489 q 156 396 178 435 q 126 315 135 358 q 122 234 117 271 q 146 170 127 197 q 197 126 164 142 q 273 111 229 111 q 356 126 318 111 q 426 170 395 142 q 478 234 457 197 q 509 315 498 271 m 705 844 q 606 742 660 779 q 489 705 551 705 q 435 718 456 705 q 396 745 414 730 q 362 772 379 760 q 319 785 345 785 q 256 763 285 785 q 197 704 228 742 l 125 751 q 225 852 171 815 q 342 889 279 889 q 396 877 375 889 q 434 849 416 864 q 469 822 452 835 q 511 810 486 810 q 574 831 546 810 q 633 892 603 852 l 705 844 z "},"ú":{"ha":758,"x_min":-9,"x_max":665,"o":"m 100 632 l 240 632 l 157 241 q 164 140 142 168 q 239 111 186 111 q 379 174 317 111 q 465 349 441 237 l 525 632 l 665 632 l 532 0 l 392 0 l 425 158 q 319 31 386 77 q 170 -16 253 -16 q 31 48 72 -16 q 17 241 -9 111 l 100 632 m 591 831 l 262 665 l 224 758 l 538 953 l 591 831 z "},"ù":{"ha":758,"x_min":-9,"x_max":665,"o":"m 100 632 l 240 632 l 157 241 q 164 140 142 168 q 239 111 186 111 q 379 174 317 111 q 465 349 441 237 l 525 632 l 665 632 l 532 0 l 392 0 l 425 158 q 319 31 386 77 q 170 -16 253 -16 q 31 48 72 -16 q 17 241 -9 111 l 100 632 m 368 953 l 602 758 l 521 665 l 264 831 l 368 953 z "},"û":{"ha":758,"x_min":-9,"x_max":665,"o":"m 100 632 l 240 632 l 157 241 q 164 140 142 168 q 239 111 186 111 q 379 174 317 111 q 465 349 441 237 l 525 632 l 665 632 l 532 0 l 392 0 l 425 158 q 319 31 386 77 q 170 -16 253 -16 q 31 48 72 -16 q 17 241 -9 111 l 100 632 m 625 736 l 557 667 l 422 806 l 225 665 l 186 733 l 452 949 l 625 736 z "},"ü":{"ha":758,"x_min":-9,"x_max":665,"o":"m 100 632 l 240 632 l 157 241 q 164 140 142 168 q 239 111 186 111 q 379 174 317 111 q 465 349 441 237 l 525 632 l 665 632 l 532 0 l 392 0 l 425 158 q 319 31 386 77 q 170 -16 253 -16 q 31 48 72 -16 q 17 241 -9 111 l 100 632 m 612 714 l 441 714 l 478 885 l 648 885 l 612 714 m 359 714 l 189 714 l 225 885 l 396 885 l 359 714 z "},"†":{"ha":758,"x_min":171,"x_max":616,"o":"m 591 615 l 432 625 l 361 253 l 244 253 l 334 625 l 171 615 l 196 733 l 354 724 l 379 885 l 496 885 l 453 724 l 616 733 l 591 615 z "},"°":{"ha":758,"x_min":82,"x_max":610,"o":"m 94 758 q 135 856 104 810 q 207 937 165 903 q 297 991 248 971 q 400 1011 347 1011 q 494 991 452 1011 q 563 937 536 971 q 600 856 590 903 q 600 758 610 810 q 557 660 587 705 q 487 580 528 614 q 395 526 446 546 q 293 505 345 505 q 198 526 240 505 q 130 580 157 546 q 93 660 103 614 q 94 758 82 705 m 189 757 q 189 696 182 725 q 212 647 196 668 q 254 614 228 627 q 313 602 281 602 q 375 614 345 602 q 431 647 406 627 q 475 696 457 668 q 500 757 493 725 q 501 817 507 789 q 478 867 494 846 q 435 900 461 888 q 378 913 410 913 q 315 900 346 913 q 258 867 283 888 q 215 817 233 846 q 189 757 196 789 z "},"¢":{"ha":758,"x_min":-16,"x_max":684,"o":"m 12 443 q 129 659 40 574 q 349 766 218 745 l 374 885 l 500 885 l 475 771 q 590 742 539 765 q 684 668 642 720 l 590 570 q 532 617 567 597 q 449 643 497 636 l 363 241 q 458 269 415 249 q 536 317 501 289 l 587 218 q 463 142 524 165 q 336 114 401 119 l 313 0 l 186 0 l 211 119 q 37 227 90 142 q 12 443 -16 313 m 153 443 q 162 317 136 364 q 239 252 187 271 l 321 635 q 215 569 261 615 q 153 443 170 522 z "},"£":{"ha":758,"x_min":-66,"x_max":659,"o":"m 40 505 l 167 505 l 200 661 q 238 757 211 713 q 303 833 265 802 q 387 882 342 864 q 478 900 432 900 q 610 856 561 900 q 656 729 659 811 l 522 699 q 452 774 518 774 q 382 748 412 774 q 340 661 353 722 l 307 505 l 433 505 l 407 379 l 281 379 l 253 253 q 219 175 243 208 q 164 126 195 142 l 281 126 q 360 132 326 126 q 422 152 395 138 q 474 190 450 165 q 525 252 497 214 l 628 191 q 465 47 562 94 q 254 0 367 0 l -66 0 l -40 126 l 1 126 q 42 135 25 126 q 73 156 60 143 q 95 186 86 170 q 106 218 103 203 l 140 379 l 14 379 l 40 505 z "},"§":{"ha":758,"x_min":-28,"x_max":747,"o":"m 96 551 q 136 647 107 602 q 201 722 165 693 q 164 788 175 750 q 167 885 154 827 q 212 996 180 949 q 287 1074 243 1043 q 382 1121 330 1105 q 490 1136 435 1136 q 592 1121 545 1136 q 676 1077 640 1107 q 729 1002 711 1047 q 742 895 747 957 l 607 872 q 576 980 612 950 q 464 1010 539 1010 q 368 983 414 1010 q 311 903 322 956 q 328 829 301 857 q 398 779 354 800 q 494 736 441 757 q 590 686 547 715 q 655 611 632 656 q 663 494 677 566 q 620 386 648 429 q 551 302 591 342 q 588 236 578 275 q 587 139 599 196 q 541 28 574 77 q 463 -56 509 -21 q 363 -108 418 -90 q 253 -126 309 -126 q 144 -112 195 -126 q 56 -67 94 -97 q -5 9 18 -37 q -28 121 -28 56 l 106 153 q 150 41 110 82 q 281 0 191 0 q 384 33 336 0 q 444 125 431 65 q 429 208 456 178 q 358 260 403 239 q 261 299 314 281 q 166 348 208 318 q 101 425 123 378 q 96 551 79 472 m 239 564 q 247 494 229 522 q 298 447 265 467 q 373 410 330 427 q 456 372 415 393 q 495 412 479 390 q 518 471 510 435 q 510 545 528 517 q 460 593 493 574 q 386 627 428 612 q 301 659 345 642 q 239 564 250 619 z "},"•":{"ha":758,"x_min":127,"x_max":656,"o":"m 140 379 q 180 477 150 431 q 252 557 211 524 q 343 612 293 591 q 446 632 393 632 q 539 612 497 632 q 609 557 582 591 q 646 477 636 524 q 646 379 656 431 q 604 280 633 326 q 533 201 574 235 q 441 146 492 167 q 339 126 390 126 q 244 146 286 126 q 176 201 203 167 q 138 280 149 235 q 140 379 127 326 z "},"¶":{"ha":758,"x_min":40,"x_max":753,"o":"m 65 621 q 187 818 92 751 q 428 885 282 885 l 753 885 l 566 0 l 425 0 l 500 357 l 395 357 l 319 0 l 179 0 l 256 361 q 94 441 147 376 q 65 621 40 505 m 481 758 l 421 484 l 526 484 l 586 758 l 481 758 m 205 621 q 214 531 195 571 q 282 486 233 492 l 339 755 q 292 741 314 753 q 251 710 269 729 q 221 669 233 692 q 205 621 210 646 z "},"ß":{"ha":758,"x_min":-33,"x_max":614,"o":"m 603 182 q 569 104 595 140 q 506 42 543 68 q 421 0 468 16 q 322 -16 374 -16 q 211 3 256 -16 q 129 58 167 22 l 232 168 q 289 123 261 135 q 350 111 317 111 q 429 133 401 111 q 464 183 457 154 q 453 231 469 211 q 412 270 437 252 q 355 306 386 288 q 299 347 323 323 q 261 400 275 370 q 257 473 248 431 q 296 553 268 524 q 357 606 325 583 q 415 650 389 628 q 449 705 441 672 q 443 752 454 730 q 386 774 432 774 q 283 722 318 774 q 228 574 249 671 l 107 0 l -33 0 l 87 572 q 119 682 98 624 q 177 788 140 739 q 271 868 214 836 q 412 900 329 900 q 502 885 464 900 q 561 844 539 869 q 590 783 583 818 q 587 705 597 747 q 547 616 576 650 q 486 561 518 583 q 429 522 454 539 q 397 481 403 504 q 411 448 393 463 q 454 417 428 433 q 511 382 481 401 q 566 336 542 363 q 602 271 590 309 q 603 182 614 233 z "},"®":{"ha":758,"x_min":49,"x_max":843,"o":"m 825 632 q 767 488 810 557 q 663 367 724 419 q 525 284 602 315 q 367 253 449 253 q 230 280 293 253 q 125 357 167 307 q 66 476 83 407 q 66 632 49 546 q 128 779 83 710 q 235 900 172 848 q 373 981 297 951 q 528 1011 449 1011 q 667 983 604 1011 q 770 903 729 954 q 827 782 811 851 q 825 632 843 713 m 781 632 q 783 760 796 700 q 734 867 770 821 q 643 940 699 913 q 518 966 587 966 q 383 941 449 966 q 261 870 317 916 q 166 764 205 825 q 111 632 126 703 q 110 500 96 561 q 159 394 123 439 q 250 323 195 349 q 376 297 306 297 q 511 323 444 297 q 633 394 578 349 q 726 500 688 439 q 781 632 765 561 m 606 404 l 465 404 l 415 558 l 392 558 l 358 404 l 240 404 l 338 863 l 519 863 q 585 853 554 863 q 635 826 615 844 q 663 778 656 807 q 663 710 671 749 q 624 622 652 656 q 536 562 596 587 l 606 404 m 546 710 q 540 754 553 741 q 500 768 528 768 l 436 768 l 412 654 l 476 654 q 523 671 504 654 q 546 710 542 688 z "},"©":{"ha":758,"x_min":22,"x_max":815,"o":"m 596 361 q 370 261 509 261 q 274 279 315 261 q 207 330 232 297 q 174 408 182 363 q 176 507 165 453 q 214 603 187 558 q 279 681 240 647 q 367 733 318 714 q 475 753 416 753 q 657 653 614 753 l 547 586 q 452 642 529 642 q 354 604 395 642 q 301 507 314 566 q 312 411 289 449 q 393 372 335 372 q 514 428 471 372 l 596 361 m 799 505 q 739 362 782 431 q 635 241 696 293 q 498 158 574 189 q 340 126 422 126 q 203 153 267 126 q 98 231 140 180 q 39 350 56 281 q 40 505 22 419 q 101 653 57 583 q 208 774 146 722 q 347 855 271 825 q 501 885 422 885 q 640 857 578 885 q 742 777 701 828 q 799 655 783 725 q 799 505 815 586 m 754 505 q 756 634 768 574 q 708 740 743 694 q 616 813 672 786 q 492 840 561 840 q 356 814 422 840 q 233 744 289 789 q 139 637 178 699 q 85 505 100 576 q 82 374 69 435 q 132 268 96 313 q 224 197 168 222 q 350 171 279 171 q 485 197 418 171 q 606 268 551 222 q 700 374 660 313 q 754 505 739 435 z "},"™":{"ha":758,"x_min":132,"x_max":907,"o":"m 827 632 l 751 632 l 808 899 l 671 672 l 618 672 l 579 899 l 522 632 l 447 632 l 528 1011 l 635 1011 l 669 789 l 799 1011 l 907 1011 l 827 632 m 447 935 l 328 935 l 262 632 l 186 632 l 252 935 l 132 935 l 147 1011 l 463 1011 l 447 935 z "},"´":{"ha":758,"x_min":224,"x_max":591,"o":"m 591 831 l 262 665 l 224 758 l 538 953 l 591 831 z "},"¨":{"ha":758,"x_min":189,"x_max":648,"o":"m 612 714 l 441 714 l 478 885 l 648 885 l 612 714 m 359 714 l 189 714 l 225 885 l 396 885 l 359 714 z "},"≠":{"ha":758,"x_min":-39,"x_max":673,"o":"m 215 261 l 302 388 l 15 388 l 41 514 l 390 514 l 479 640 l 596 640 l 507 514 l 673 514 l 647 388 l 419 388 l 332 261 l 621 261 l 593 135 l 244 135 l 157 9 l 40 9 l 127 135 l -39 135 l -11 261 l 215 261 z "},"Æ":{"ha":758,"x_min":-110,"x_max":753,"o":"m 201 0 l 245 211 l 131 211 l 35 0 l -110 0 l 325 885 l 753 885 l 726 758 l 503 758 l 450 514 l 640 514 l 614 387 l 424 387 l 368 126 l 591 126 l 566 0 l 201 0 m 186 335 l 272 335 l 346 685 l 186 335 z "},"Ø":{"ha":758,"x_min":-90,"x_max":779,"o":"m 4 443 q 60 614 24 532 q 150 760 96 697 q 276 862 204 823 q 440 900 349 900 q 586 865 530 900 q 669 768 642 829 l 779 859 l 747 708 l 697 667 q 682 443 708 564 q 628 272 664 354 q 538 125 591 189 q 412 23 485 61 q 245 -16 339 -16 q 103 17 158 -16 q 21 107 49 50 l -90 14 l -60 164 l -9 205 q -13 319 -18 258 q 4 443 -8 379 m 144 443 q 133 380 138 411 q 126 319 127 350 l 550 668 q 504 745 536 715 q 414 774 472 774 q 247 686 317 774 q 144 443 178 599 m 273 111 q 377 140 334 111 q 454 217 421 170 q 508 323 486 264 q 542 443 529 383 q 552 497 549 471 q 558 551 555 524 l 140 205 q 185 137 154 163 q 273 111 216 111 z "},"∞":{"ha":758,"x_min":-13,"x_max":651,"o":"m 644 315 q 619 250 637 281 q 574 197 600 220 q 516 162 549 175 q 448 149 484 149 q 365 172 400 149 q 307 256 330 195 q 216 173 258 196 q 121 149 174 149 q 61 162 87 149 q 17 197 35 175 q -7 250 -1 220 q -5 315 -13 281 q 21 381 1 350 q 66 434 40 412 q 124 468 93 456 q 190 481 155 481 q 276 457 243 481 q 332 372 309 433 q 425 457 380 433 q 518 481 469 481 q 578 468 551 481 q 623 434 606 456 q 646 381 640 412 q 644 315 651 350 m 262 315 q 178 391 243 391 q 120 369 147 391 q 86 315 93 347 q 95 261 79 283 q 144 239 111 239 q 262 315 211 239 m 376 315 q 461 239 395 239 q 520 261 494 239 q 553 315 546 283 q 542 369 559 347 q 494 391 525 391 q 376 315 428 391 z "},"±":{"ha":758,"x_min":-93,"x_max":647,"o":"m 621 261 l 368 261 l 321 42 l 195 42 l 241 261 l -11 261 l 15 388 l 268 388 l 322 640 l 448 640 l 395 388 l 647 388 l 621 261 m 539 -126 l -93 -126 l -66 0 l 565 0 l 539 -126 z "},"≤":{"ha":758,"x_min":33,"x_max":621,"o":"m 508 60 l 436 0 l 565 0 l 539 -126 l 33 -126 l 60 0 l 393 0 l 138 326 l 558 673 l 621 591 l 300 326 l 508 60 z "},"≥":{"ha":758,"x_min":33,"x_max":627,"o":"m 464 326 l 254 591 l 353 673 l 627 326 l 232 0 l 565 0 l 539 -126 l 33 -126 l 60 0 l 187 0 l 142 60 l 464 326 z "},"¥":{"ha":758,"x_min":-14,"x_max":736,"o":"m 261 379 l 261 382 l 231 505 l 40 505 l 66 632 l 200 632 l 140 885 l 286 885 l 358 509 l 590 885 l 736 885 l 567 632 l 699 632 l 672 505 l 484 505 l 401 382 l 401 379 l 646 379 l 618 253 l 374 253 l 321 0 l 180 0 l 233 253 l -14 253 l 14 379 l 261 379 z "},"µ":{"ha":758,"x_min":-86,"x_max":665,"o":"m 204 -16 q 113 21 138 -16 l 54 -253 l -86 -253 l 100 632 l 241 632 l 158 240 q 165 139 143 167 q 240 111 187 111 q 380 174 318 111 q 465 347 441 236 l 525 632 l 665 632 l 532 0 l 392 0 l 425 157 q 324 30 386 75 q 204 -16 262 -16 z "},"∂":{"ha":758,"x_min":-57,"x_max":677,"o":"m -31 240 q 29 365 -16 310 q 142 461 74 419 q 302 531 211 503 q 501 576 393 559 q 400 693 469 647 q 235 778 330 739 l 302 900 q 462 818 387 864 q 587 707 536 771 q 657 559 637 643 q 654 364 677 475 q 596 207 636 277 q 500 87 557 136 q 373 11 444 37 q 221 -16 302 -16 q 13 50 82 -16 q -31 240 -57 115 m 514 364 q 525 454 525 412 q 239 383 349 439 q 110 240 129 328 q 134 144 97 178 q 249 111 171 111 q 415 176 343 111 q 514 364 488 241 z "},"∑":{"ha":758,"x_min":-37,"x_max":720,"o":"m 532 0 l -37 0 l -11 126 l 256 441 l 123 758 l 150 885 l 720 885 l 656 586 l 529 586 l 567 758 l 294 758 l 421 441 l 160 126 l 432 126 l 468 300 l 595 300 l 532 0 z "},"∏":{"ha":758,"x_min":53,"x_max":753,"o":"m 726 758 l 607 758 l 446 0 l 306 0 l 467 758 l 354 758 l 193 0 l 53 0 l 214 758 l 94 758 l 121 885 l 753 885 l 726 758 z "},"π":{"ha":758,"x_min":16,"x_max":699,"o":"m 490 182 q 496 129 484 149 q 543 109 509 109 q 575 111 562 109 q 599 119 587 114 l 591 1 q 504 -16 559 -16 q 368 31 408 -16 q 350 182 328 78 l 419 505 l 293 505 q 264 377 279 439 q 232 255 249 315 q 196 132 215 195 q 157 0 178 69 l 16 0 q 56 129 37 68 q 91 251 75 191 q 122 374 107 311 q 153 505 138 436 l 40 505 l 66 632 l 699 632 l 672 505 l 559 505 l 490 182 z "},"∫":{"ha":758,"x_min":-122,"x_max":807,"o":"m 781 1015 q 710 1019 742 1019 q 566 988 610 1019 q 507 888 522 957 l 317 -11 q 195 -204 289 -140 q -35 -268 102 -268 q -77 -267 -56 -268 q -122 -262 -98 -265 l -96 -138 q -25 -142 -58 -142 q 118 -111 74 -142 q 176 -11 161 -79 l 367 888 q 489 1081 395 1017 q 720 1146 583 1146 q 762 1144 741 1146 q 807 1139 783 1141 l 781 1015 z "},"ª":{"ha":758,"x_min":-39,"x_max":603,"o":"m 39 529 q 81 610 50 576 q 155 663 111 643 q 250 691 199 682 q 354 700 301 700 q 388 700 375 700 q 410 699 400 700 q 430 696 419 697 q 458 692 441 694 l 468 732 q 446 781 475 765 q 367 798 418 798 q 263 786 318 798 q 158 750 208 775 l 135 838 q 246 881 182 865 q 387 897 310 897 q 478 888 436 897 q 549 859 519 879 q 590 808 578 839 q 595 732 603 777 l 519 379 l 393 379 l 408 453 q 316 392 368 418 q 193 367 264 367 q 63 413 102 367 q 39 529 25 458 m 244 467 q 303 474 272 467 q 362 494 335 482 q 408 521 389 505 q 429 551 427 536 l 439 596 q 381 602 404 602 q 334 603 358 603 q 160 529 176 603 q 171 486 155 505 q 244 467 186 467 m 467 135 l -39 135 l -12 261 l 493 261 l 467 135 z "},"º":{"ha":758,"x_min":-39,"x_max":597,"o":"m 585 631 q 543 523 572 572 q 470 439 513 473 q 374 385 428 404 q 262 366 321 366 q 159 384 204 366 q 86 437 114 403 q 49 521 58 472 q 53 631 40 570 q 95 740 65 690 q 168 825 125 790 q 264 879 211 860 q 376 899 318 899 q 480 879 435 899 q 552 825 525 860 q 588 740 579 790 q 585 631 597 690 m 465 631 q 451 752 482 708 q 354 796 419 796 q 239 752 289 796 q 172 631 189 708 q 187 510 155 553 q 285 468 218 468 q 400 510 351 468 q 465 631 449 553 m 467 135 l -39 135 l -12 261 l 493 261 l 467 135 z "},"Ω":{"ha":758,"x_min":-66,"x_max":701,"o":"m 685 503 q 609 312 664 404 q 457 157 554 220 l 450 126 l 591 126 l 566 0 l 313 0 l 364 243 q 435 288 404 260 q 488 352 465 317 q 524 427 510 387 q 545 503 538 467 q 555 598 555 550 q 541 686 555 647 q 496 749 526 725 q 414 774 465 774 q 323 749 364 774 q 251 686 282 725 q 198 598 220 647 q 165 503 176 550 q 155 427 158 467 q 160 352 153 387 q 185 288 167 317 q 237 243 203 260 l 186 0 l -66 0 l -40 126 l 104 126 l 111 157 q 22 308 40 215 q 25 503 4 401 q 78 651 41 579 q 169 779 115 724 q 291 867 222 833 q 440 900 359 900 q 575 867 521 900 q 659 779 629 833 q 695 651 689 724 q 685 503 701 579 z "},"æ":{"ha":758,"x_min":-52,"x_max":665,"o":"m 257 89 q 180 15 221 45 q 85 -16 139 -16 q 16 0 43 -16 q -27 41 -11 16 q -47 101 -43 66 q -43 172 -52 135 q -6 268 -32 227 q 55 338 20 310 q 133 379 90 366 q 218 393 175 393 q 243 393 233 393 q 268 389 253 392 l 277 429 q 273 501 288 479 q 228 522 258 522 q 173 510 204 522 q 109 457 142 497 l 41 538 q 149 622 92 596 q 249 647 207 647 q 331 628 297 647 q 371 559 366 608 q 443 626 404 606 q 529 647 482 647 q 621 613 593 647 q 657 525 650 579 q 655 402 665 471 q 631 262 646 334 l 368 262 q 367 146 350 178 q 414 114 383 114 q 454 126 436 114 q 485 168 472 139 l 595 129 q 506 20 555 56 q 386 -16 456 -16 q 347 -11 367 -16 q 308 6 326 -5 q 276 38 290 18 q 257 89 262 58 m 517 386 q 522 494 530 467 q 486 522 513 522 q 435 492 457 522 q 395 386 412 461 l 517 386 m 241 265 q 224 267 233 267 q 200 268 215 268 q 136 244 167 268 q 96 179 104 221 q 99 129 89 144 q 132 113 110 113 q 197 146 170 113 q 233 224 224 179 l 241 265 z "},"ø":{"ha":758,"x_min":-69,"x_max":703,"o":"m -41 122 l -9 144 q -24 223 -22 180 q -16 315 -26 267 q 38 449 0 387 q 128 554 75 510 q 247 623 180 599 q 387 647 314 647 q 506 626 454 647 q 593 570 557 606 l 703 647 l 673 510 l 642 488 q 655 407 653 450 q 647 315 657 364 q 594 181 631 241 q 506 77 558 121 q 387 9 453 33 q 245 -16 321 -16 q 126 5 178 -16 q 39 61 74 25 l -69 -16 l -41 122 m 507 315 q 511 396 515 358 l 161 149 q 209 121 180 131 q 273 111 237 111 q 356 126 318 111 q 425 170 395 142 q 476 234 456 197 q 507 315 497 271 m 125 315 q 121 236 115 271 l 468 482 q 359 521 429 521 q 276 505 315 521 q 207 462 237 489 q 155 396 176 435 q 125 315 134 358 z "},"¿":{"ha":758,"x_min":96,"x_max":648,"o":"m 118 204 q 154 292 127 254 q 214 361 180 329 q 285 422 248 393 q 355 481 322 450 q 414 548 389 511 q 450 632 440 585 l 595 632 q 555 532 582 575 q 492 453 528 489 q 419 388 457 418 q 348 329 382 358 q 290 269 314 300 q 258 203 265 239 q 270 135 249 158 q 336 111 292 111 q 441 148 403 111 q 500 250 479 184 l 627 231 q 509 51 589 117 q 310 -16 429 -16 q 146 44 197 -16 q 118 204 96 104 m 478 885 l 648 885 l 612 714 l 441 714 l 478 885 z "},"¡":{"ha":758,"x_min":283,"x_max":648,"o":"m 283 0 l 452 632 l 567 632 l 468 0 l 283 0 m 612 714 l 441 714 l 478 885 l 648 885 l 612 714 z "},"¬":{"ha":758,"x_min":-11,"x_max":647,"o":"m 566 9 l 440 9 l 494 261 l -11 261 l 15 388 l 647 388 l 566 9 z "},"√":{"ha":758,"x_min":39,"x_max":726,"o":"m 699 632 l 515 632 l 212 0 l 62 0 l 39 492 l 168 525 l 182 207 l 441 758 l 726 758 l 699 632 z "},"ƒ":{"ha":758,"x_min":-122,"x_max":754,"o":"m 286 505 l 146 505 l 172 632 l 313 632 q 435 831 340 762 q 665 900 529 900 q 709 898 686 900 q 754 893 732 896 l 728 770 q 656 774 689 774 q 567 766 602 774 q 509 741 532 758 q 474 696 486 724 q 453 632 461 669 l 699 632 l 672 505 l 427 505 l 317 -11 q 195 -204 289 -140 q -35 -268 102 -268 q -77 -267 -56 -268 q -122 -262 -98 -265 l -96 -138 q -25 -142 -58 -142 q 118 -111 74 -142 q 176 -11 161 -79 l 286 505 z "},"≈":{"ha":758,"x_min":-78,"x_max":709,"o":"m 709 500 q 584 371 652 417 q 436 324 515 324 q 368 339 395 324 q 319 373 340 355 q 275 408 297 392 q 221 424 253 424 q 141 397 176 424 q 66 323 106 371 l -25 382 q 101 510 33 463 q 249 557 170 557 q 317 542 290 557 q 366 507 345 526 q 410 472 387 488 q 465 456 433 456 q 545 484 510 456 q 619 560 581 511 l 709 500 m 657 249 q 531 119 599 165 q 383 73 463 73 q 315 88 342 73 q 265 122 288 103 q 221 156 243 140 q 167 172 199 172 q 87 146 122 172 q 14 71 52 119 l -78 131 q 48 259 -21 212 q 196 306 117 306 q 264 290 237 306 q 313 255 292 274 q 357 220 334 237 q 411 204 379 204 q 492 232 456 204 q 565 309 528 260 l 657 249 z "},"∆":{"ha":758,"x_min":-107,"x_max":607,"o":"m -107 0 l 357 885 l 518 885 l 607 0 l -107 0 m 104 125 l 449 125 l 399 700 l 104 125 z "},"«":{"ha":758,"x_min":36,"x_max":618,"o":"m 307 301 l 208 220 l 36 441 l 302 665 l 367 583 l 199 441 l 307 301 m 558 301 l 460 220 l 288 441 l 554 665 l 618 583 l 450 441 l 558 301 z "},"»":{"ha":758,"x_min":69,"x_max":650,"o":"m 488 441 l 380 583 l 478 665 l 650 441 l 383 220 l 321 301 l 488 441 m 236 441 l 129 583 l 227 665 l 399 441 l 132 220 l 69 301 l 236 441 z "},"…":{"ha":758,"x_min":-89,"x_max":624,"o":"m 335 0 l 164 0 l 200 171 l 371 171 l 335 0 m 587 0 l 416 0 l 453 171 l 624 171 l 587 0 m 82 0 l -89 0 l -53 171 l 118 171 l 82 0 z "}," ":{"ha":758,"x_min":0,"x_max":0,"o":""},"À":{"ha":758,"x_min":-107,"x_max":656,"o":"m 460 0 l 440 211 l 147 211 l 40 0 l -107 0 l 357 885 l 518 885 l 607 0 l 460 0 m 211 335 l 429 335 l 399 700 l 211 335 m 422 1204 l 656 1010 l 575 917 l 318 1082 l 422 1204 z "},"Ã":{"ha":758,"x_min":-107,"x_max":760,"o":"m 460 0 l 440 211 l 147 211 l 40 0 l -107 0 l 357 885 l 518 885 l 607 0 l 460 0 m 211 335 l 429 335 l 399 700 l 211 335 m 760 1096 q 660 994 714 1031 q 543 957 606 957 q 489 969 510 957 q 451 997 468 982 q 416 1024 433 1011 q 374 1036 399 1036 q 311 1015 339 1036 q 252 956 282 994 l 179 1003 q 279 1104 225 1067 q 396 1141 334 1141 q 450 1128 429 1141 q 488 1101 471 1116 q 523 1074 506 1086 q 566 1061 541 1061 q 629 1083 600 1061 q 688 1143 657 1104 l 760 1096 z "},"Õ":{"ha":758,"x_min":-14,"x_max":760,"o":"m 4 443 q 60 614 24 532 q 150 760 96 697 q 276 862 204 823 q 440 900 349 900 q 589 862 532 900 q 673 760 646 823 q 701 614 700 697 q 682 443 701 532 q 628 272 664 354 q 538 125 591 189 q 412 23 485 61 q 245 -16 339 -16 q 96 23 153 -16 q 13 125 40 61 q -14 272 -14 189 q 4 443 -14 354 m 144 443 q 129 323 132 383 q 137 217 125 264 q 181 140 149 170 q 273 111 214 111 q 377 140 334 111 q 454 217 421 170 q 508 323 486 264 q 542 443 529 383 q 558 562 554 503 q 550 668 562 621 q 505 745 538 715 q 414 774 472 774 q 247 686 317 774 q 144 443 178 599 m 760 1096 q 660 994 714 1031 q 543 957 606 957 q 489 969 510 957 q 451 997 468 982 q 416 1024 433 1011 q 374 1036 399 1036 q 311 1015 339 1036 q 252 956 282 994 l 179 1003 q 279 1104 225 1067 q 396 1141 334 1141 q 450 1128 429 1141 q 488 1101 471 1116 q 523 1074 506 1086 q 566 1061 541 1061 q 629 1083 600 1061 q 688 1143 657 1104 l 760 1096 z "},"Œ":{"ha":758,"x_min":-81,"x_max":753,"o":"m 566 0 l 244 0 l 261 83 q 117 -16 204 -16 q 16 441 -81 -16 q 311 900 113 900 q 380 873 354 900 q 414 799 406 847 l 432 885 l 753 885 l 726 758 l 498 758 l 446 514 l 612 514 l 586 387 l 419 387 l 364 126 l 591 126 l 566 0 m 294 441 q 320 576 310 515 q 333 681 330 637 q 327 749 335 725 q 297 774 318 774 q 257 749 277 774 q 220 681 237 725 q 187 576 203 637 q 155 441 171 515 q 130 307 140 368 q 119 202 119 245 q 127 135 118 158 q 157 111 136 111 q 196 135 178 111 q 231 202 215 158 q 263 307 248 245 q 294 441 279 368 z "},"œ":{"ha":758,"x_min":-87,"x_max":675,"o":"m 374 261 q 369 154 359 196 q 414 111 378 111 q 460 129 441 111 q 494 186 479 146 l 610 150 q 518 25 574 66 q 400 -16 463 -16 q 273 122 278 -16 q 102 -16 215 -16 q -18 317 -87 -16 q 243 647 53 647 q 357 517 354 647 q 533 647 414 647 q 631 611 602 647 q 668 519 661 575 q 665 394 675 463 q 642 261 656 325 l 374 261 m 529 387 q 537 486 542 450 q 494 521 532 521 q 437 486 457 521 q 401 387 416 450 l 529 387 m 245 317 q 228 521 289 521 q 122 317 165 521 q 142 111 79 111 q 245 317 203 111 z "},"–":{"ha":758,"x_min":-12,"x_max":647,"o":"m -12 261 l 16 387 l 647 387 l 619 261 l -12 261 z "},"—":{"ha":758,"x_min":-74,"x_max":711,"o":"m -74 261 l -47 387 l 711 387 l 684 261 l -74 261 z "},"“":{"ha":758,"x_min":31,"x_max":753,"o":"m 283 461 l 31 461 l 69 642 q 101 733 79 689 q 160 810 122 777 q 250 865 197 844 q 374 885 302 885 l 349 768 q 279 759 309 768 q 231 733 250 750 q 199 694 211 717 q 182 642 187 671 l 179 632 l 319 632 l 283 461 m 663 461 l 410 461 l 449 642 q 480 733 458 689 q 539 810 501 777 q 629 865 576 844 q 753 885 682 885 l 728 768 q 659 759 688 768 q 610 733 629 750 q 578 694 590 717 q 561 642 567 671 l 558 632 l 699 632 l 663 461 z "},"”":{"ha":758,"x_min":31,"x_max":753,"o":"m 500 885 l 753 885 l 714 704 q 683 613 704 657 q 624 535 661 570 q 533 481 586 501 q 410 461 481 461 l 435 578 q 553 612 515 578 q 602 704 590 647 l 604 714 l 464 714 l 500 885 m 121 885 l 374 885 l 335 704 q 303 613 325 657 q 244 535 282 570 q 154 481 207 501 q 31 461 102 461 l 56 578 q 174 612 136 578 q 222 704 211 647 l 225 714 l 85 714 l 121 885 z "},"‘":{"ha":758,"x_min":283,"x_max":627,"o":"m 536 461 l 283 461 l 322 642 q 353 733 332 689 q 413 810 375 777 q 503 865 450 844 q 627 885 555 885 l 602 768 q 532 759 561 768 q 483 733 503 750 q 452 694 464 717 q 435 642 440 671 l 432 632 l 572 632 l 536 461 z "},"’":{"ha":758,"x_min":157,"x_max":500,"o":"m 248 885 l 500 885 l 461 704 q 430 613 452 657 q 371 535 408 570 q 281 481 334 501 q 157 461 228 461 l 182 578 q 300 612 262 578 q 349 704 338 647 l 351 714 l 211 714 l 248 885 z "},"÷":{"ha":758,"x_min":-11,"x_max":647,"o":"m 439 492 l 268 492 l 304 663 l 475 663 l 439 492 m 332 -14 l 161 -14 l 197 157 l 368 157 l 332 -14 m 621 261 l -11 261 l 15 388 l 647 388 l 621 261 z "},"◊":{"ha":758,"x_min":-12,"x_max":644,"o":"m 644 317 l 248 -11 l -12 317 l 386 646 l 644 317 m 513 317 l 358 514 l 118 317 l 275 119 l 513 317 z "},"ÿ":{"ha":758,"x_min":-118,"x_max":693,"o":"m 693 632 l 261 -123 q 148 -236 212 -205 q 3 -267 83 -267 q -56 -261 -25 -267 q -118 -243 -86 -256 l -62 -114 q -13 -129 -36 -125 q 31 -134 11 -134 q 129 -78 93 -134 l 167 -17 l 62 632 l 208 632 l 281 154 l 543 632 l 693 632 m 612 714 l 441 714 l 478 885 l 648 885 l 612 714 m 359 714 l 189 714 l 225 885 l 396 885 l 359 714 z "},"Ÿ":{"ha":758,"x_min":37,"x_max":766,"o":"m 741 758 l 676 758 l 396 361 l 346 126 l 488 126 l 461 0 l 37 0 l 64 126 l 205 126 l 256 361 l 144 758 l 81 758 l 107 885 l 386 885 l 359 758 l 298 758 l 355 498 l 522 758 l 461 758 l 488 885 l 766 885 l 741 758 m 667 966 l 496 966 l 532 1137 l 703 1137 l 667 966 m 414 966 l 243 966 l 279 1137 l 450 1137 l 414 966 z "},"⁄":{"ha":758,"x_min":-72,"x_max":761,"o":"m 761 852 l 7 -28 l -72 32 l 684 916 l 761 852 z "},"€":{"ha":758,"x_min":-9,"x_max":708,"o":"m 64 615 l 180 615 q 237 727 204 675 q 310 818 269 779 q 400 879 351 857 q 505 900 449 900 q 600 879 561 900 q 663 821 639 859 q 698 730 688 783 q 708 612 708 677 l 579 587 q 563 728 583 682 q 481 774 543 774 q 387 728 427 774 q 319 615 347 682 l 443 615 l 418 497 l 282 497 q 274 470 277 484 q 268 443 271 457 q 262 415 265 428 q 258 387 260 401 l 395 387 l 370 269 l 245 269 q 265 156 244 201 q 340 111 286 111 q 440 157 401 111 q 518 296 479 203 l 636 271 q 576 153 608 205 q 502 62 543 100 q 414 5 461 25 q 311 -16 367 -16 q 215 6 254 -16 q 150 66 175 28 q 115 156 125 104 q 107 269 104 208 l -9 269 l 16 387 l 118 387 q 122 415 119 401 q 127 443 125 428 q 134 470 131 457 q 142 497 136 484 l 39 497 l 64 615 z "},"‹":{"ha":758,"x_min":161,"x_max":492,"o":"m 432 301 l 334 220 l 161 441 l 428 665 l 492 583 l 323 441 l 432 301 z "},"›":{"ha":758,"x_min":195,"x_max":524,"o":"m 361 441 l 254 583 l 351 665 l 524 441 l 257 220 l 195 301 l 361 441 z "},"ﬁ":{"ha":758,"x_min":-66,"x_max":718,"o":"m 458 126 l 539 505 l 300 505 l 220 126 l 458 126 m 705 632 l 599 126 l 718 126 l 692 0 l -66 0 l -40 126 l 79 126 l 160 505 l 40 505 l 66 632 l 186 632 q 308 831 214 762 q 539 900 403 900 q 583 898 559 900 q 628 893 606 896 l 602 770 q 529 774 562 774 q 440 766 475 774 q 382 741 406 758 q 347 696 359 724 q 326 632 335 669 l 705 632 z "},"ﬂ":{"ha":758,"x_min":-66,"x_max":758,"o":"m -66 0 l -40 126 l 79 126 l 160 505 l 40 505 l 66 632 l 186 632 q 308 831 214 762 q 539 900 403 900 q 661 895 604 900 q 758 882 717 890 l 599 126 l 718 126 l 692 0 l -66 0 m 595 770 q 562 773 579 772 q 529 774 545 774 q 440 766 475 774 q 382 741 406 758 q 347 696 359 724 q 326 632 335 669 l 490 632 l 464 505 l 300 505 l 220 126 l 458 126 l 595 770 z "},"‡":{"ha":758,"x_min":98,"x_max":616,"o":"m 519 278 l 359 288 l 335 126 l 218 126 l 261 288 l 98 278 l 123 395 l 283 386 l 334 625 l 171 615 l 196 733 l 354 724 l 379 885 l 496 885 l 453 724 l 616 733 l 591 615 l 432 625 l 382 386 l 545 395 l 519 278 z "},"·":{"ha":758,"x_min":214,"x_max":421,"o":"m 385 239 l 214 239 l 250 410 l 421 410 l 385 239 z "},"‚":{"ha":758,"x_min":258,"x_max":601,"o":"m 349 171 l 601 171 l 562 -10 q 531 -101 553 -57 q 472 -179 509 -144 q 382 -233 435 -213 q 258 -253 329 -253 l 283 -136 q 401 -102 363 -136 q 450 -10 439 -67 l 452 0 l 312 0 l 349 171 z "},"„":{"ha":758,"x_min":-121,"x_max":602,"o":"m 349 171 l 602 171 l 563 -10 q 531 -101 553 -57 q 472 -179 510 -144 q 382 -233 435 -213 q 258 -253 330 -253 l 283 -136 q 401 -102 364 -136 q 450 -10 439 -67 l 453 0 l 313 0 l 349 171 m -31 171 l 222 171 l 184 -10 q 152 -101 174 -57 q 93 -179 131 -144 q 3 -233 56 -213 q -121 -253 -50 -253 l -96 -136 q 22 -102 -15 -136 q 71 -10 60 -67 l 74 0 l -66 0 l -31 171 z "},"‰":{"ha":758,"x_min":-81,"x_max":730,"o":"m 587 864 l 9 -26 l -81 18 l 496 911 l 587 864 m 71 728 q 93 794 78 762 q 129 849 107 827 q 178 886 150 872 q 243 900 207 900 q 302 886 279 900 q 337 849 325 872 q 349 794 349 827 q 343 728 350 762 q 321 661 335 692 q 286 606 307 629 q 235 569 264 583 q 171 555 207 555 q 112 569 135 555 q 77 606 89 583 q 64 661 65 629 q 71 728 62 692 m 172 729 q 170 675 164 692 q 192 659 176 659 q 221 675 207 659 q 243 729 235 692 q 244 783 252 766 q 222 800 237 800 q 194 783 207 800 q 172 729 180 766 m 267 160 q 264 105 258 122 q 286 89 271 89 q 315 105 301 89 q 338 160 329 122 q 339 214 346 197 q 317 231 332 231 q 288 214 301 231 q 267 160 275 197 m 553 160 q 551 105 545 122 q 572 89 557 89 q 601 105 587 89 q 624 160 615 122 q 625 214 632 197 q 603 231 618 231 q 574 214 587 231 q 553 160 561 197 m 165 157 q 187 224 172 192 q 223 278 201 256 q 273 315 244 301 q 338 329 301 329 q 396 315 374 329 q 431 278 419 301 q 444 224 443 256 q 437 157 444 192 q 415 90 429 121 q 378 35 400 58 q 328 -2 357 12 q 264 -16 300 -16 q 205 -2 228 -16 q 170 35 182 12 q 157 90 158 58 q 165 157 157 121 m 452 157 q 473 224 458 192 q 509 278 488 256 q 559 315 530 301 q 624 329 587 329 q 683 315 660 329 q 717 278 705 301 q 730 224 729 256 q 724 157 730 192 q 701 90 715 121 q 665 35 686 58 q 614 -2 643 12 q 550 -16 586 -16 q 491 -2 514 -16 q 456 35 468 12 q 444 90 444 58 q 452 157 443 121 z "},"Â":{"ha":758,"x_min":-107,"x_max":680,"o":"m 460 0 l 440 211 l 147 211 l 40 0 l -107 0 l 357 885 l 518 885 l 607 0 l 460 0 m 211 335 l 429 335 l 399 700 l 211 335 m 680 987 l 611 918 l 477 1057 l 279 917 l 240 985 l 506 1200 l 680 987 z "},"Ê":{"ha":758,"x_min":-33,"x_max":720,"o":"m 532 0 l -33 0 l 154 885 l 720 885 l 693 758 l 268 758 l 215 514 l 547 514 l 521 387 l 189 387 l 134 126 l 558 126 l 532 0 m 680 987 l 611 918 l 477 1057 l 279 917 l 240 985 l 506 1200 l 680 987 z "},"Á":{"ha":758,"x_min":-107,"x_max":646,"o":"m 460 0 l 440 211 l 147 211 l 40 0 l -107 0 l 357 885 l 518 885 l 607 0 l 460 0 m 211 335 l 429 335 l 399 700 l 211 335 m 646 1082 l 317 917 l 278 1010 l 592 1204 l 646 1082 z "},"Ë":{"ha":758,"x_min":-33,"x_max":720,"o":"m 532 0 l -33 0 l 154 885 l 720 885 l 693 758 l 268 758 l 215 514 l 547 514 l 521 387 l 189 387 l 134 126 l 558 126 l 532 0 m 667 966 l 496 966 l 532 1137 l 703 1137 l 667 966 m 414 966 l 243 966 l 279 1137 l 450 1137 l 414 966 z "},"È":{"ha":758,"x_min":-33,"x_max":720,"o":"m 532 0 l -33 0 l 154 885 l 720 885 l 693 758 l 268 758 l 215 514 l 547 514 l 521 387 l 189 387 l 134 126 l 558 126 l 532 0 m 422 1204 l 656 1010 l 575 917 l 318 1082 l 422 1204 z "},"Í":{"ha":758,"x_min":39,"x_max":652,"o":"m 464 0 l 39 0 l 65 126 l 205 126 l 340 758 l 200 758 l 227 885 l 652 885 l 625 758 l 481 758 l 346 126 l 490 126 l 464 0 m 646 1082 l 317 917 l 278 1010 l 592 1204 l 646 1082 z "},"Î":{"ha":758,"x_min":39,"x_max":680,"o":"m 464 0 l 39 0 l 65 126 l 205 126 l 340 758 l 200 758 l 227 885 l 652 885 l 625 758 l 481 758 l 346 126 l 490 126 l 464 0 m 680 987 l 611 918 l 477 1057 l 279 917 l 240 985 l 506 1200 l 680 987 z "},"Ï":{"ha":758,"x_min":39,"x_max":703,"o":"m 464 0 l 39 0 l 65 126 l 205 126 l 340 758 l 200 758 l 227 885 l 652 885 l 625 758 l 481 758 l 346 126 l 490 126 l 464 0 m 667 966 l 496 966 l 532 1137 l 703 1137 l 667 966 m 414 966 l 243 966 l 279 1137 l 450 1137 l 414 966 z "},"Ì":{"ha":758,"x_min":39,"x_max":656,"o":"m 464 0 l 39 0 l 65 126 l 205 126 l 340 758 l 200 758 l 227 885 l 652 885 l 625 758 l 481 758 l 346 126 l 490 126 l 464 0 m 422 1204 l 656 1010 l 575 917 l 318 1082 l 422 1204 z "},"Ó":{"ha":758,"x_min":-14,"x_max":701,"o":"m 4 443 q 60 614 24 532 q 150 760 96 697 q 276 862 204 823 q 440 900 349 900 q 589 862 532 900 q 673 760 646 823 q 701 614 700 697 q 682 443 701 532 q 628 272 664 354 q 538 125 591 189 q 412 23 485 61 q 245 -16 339 -16 q 96 23 153 -16 q 13 125 40 61 q -14 272 -14 189 q 4 443 -14 354 m 144 443 q 129 323 132 383 q 137 217 125 264 q 181 140 149 170 q 273 111 214 111 q 377 140 334 111 q 454 217 421 170 q 508 323 486 264 q 542 443 529 383 q 558 562 554 503 q 550 668 562 621 q 505 745 538 715 q 414 774 472 774 q 247 686 317 774 q 144 443 178 599 m 646 1082 l 317 917 l 278 1010 l 592 1204 l 646 1082 z "},"Ô":{"ha":758,"x_min":-14,"x_max":701,"o":"m 4 443 q 60 614 24 532 q 150 760 96 697 q 276 862 204 823 q 440 900 349 900 q 589 862 532 900 q 673 760 646 823 q 701 614 700 697 q 682 443 701 532 q 628 272 664 354 q 538 125 591 189 q 412 23 485 61 q 245 -16 339 -16 q 96 23 153 -16 q 13 125 40 61 q -14 272 -14 189 q 4 443 -14 354 m 144 443 q 129 323 132 383 q 137 217 125 264 q 181 140 149 170 q 273 111 214 111 q 377 140 334 111 q 454 217 421 170 q 508 323 486 264 q 542 443 529 383 q 558 562 554 503 q 550 668 562 621 q 505 745 538 715 q 414 774 472 774 q 247 686 317 774 q 144 443 178 599 m 680 987 l 611 918 l 477 1057 l 279 917 l 240 985 l 506 1200 l 680 987 z "},"":{"ha":758,"x_min":9,"x_max":803,"o":"m 682 911 q 598 753 660 810 q 456 690 536 697 q 682 911 496 871 m 750 245 q 706 175 734 216 q 642 95 677 134 q 567 29 607 57 q 490 1 528 1 q 451 7 469 1 q 415 19 432 12 q 378 32 397 26 q 338 37 358 37 q 297 32 317 37 q 256 19 277 26 q 217 5 236 11 q 180 0 199 0 q 99 42 135 0 q 42 146 62 83 q 15 282 21 210 q 22 418 9 355 q 58 519 33 468 q 117 610 82 570 q 198 675 151 650 q 301 701 244 701 q 349 696 326 701 q 390 685 371 692 q 428 674 410 679 q 467 669 447 669 q 511 675 489 669 q 556 688 533 681 q 602 700 579 694 q 647 705 624 705 q 803 615 747 705 q 665 437 686 532 q 662 378 660 408 q 674 322 664 349 q 704 276 685 296 q 750 245 724 256 z "},"Ò":{"ha":758,"x_min":-14,"x_max":701,"o":"m 4 443 q 60 614 24 532 q 150 760 96 697 q 276 862 204 823 q 440 900 349 900 q 589 862 532 900 q 673 760 646 823 q 701 614 700 697 q 682 443 701 532 q 628 272 664 354 q 538 125 591 189 q 412 23 485 61 q 245 -16 339 -16 q 96 23 153 -16 q 13 125 40 61 q -14 272 -14 189 q 4 443 -14 354 m 144 443 q 129 323 132 383 q 137 217 125 264 q 181 140 149 170 q 273 111 214 111 q 377 140 334 111 q 454 217 421 170 q 508 323 486 264 q 542 443 529 383 q 558 562 554 503 q 550 668 562 621 q 505 745 538 715 q 414 774 472 774 q 247 686 317 774 q 144 443 178 599 m 422 1204 l 656 1010 l 575 917 l 318 1082 l 422 1204 z "},"Ú":{"ha":758,"x_min":17,"x_max":720,"o":"m 599 315 q 553 179 582 240 q 479 75 524 118 q 376 8 435 32 q 244 -16 318 -16 q 123 8 171 -16 q 50 75 75 32 q 21 180 25 118 q 33 317 17 241 l 154 885 l 294 885 l 174 315 q 164 247 167 282 q 169 180 161 211 q 201 131 176 150 q 272 111 227 111 q 350 131 318 111 q 404 180 382 150 q 439 246 427 210 q 458 315 452 282 l 579 885 l 720 885 l 599 315 m 646 1082 l 317 917 l 278 1010 l 592 1204 l 646 1082 z "},"Û":{"ha":758,"x_min":17,"x_max":720,"o":"m 599 315 q 553 179 582 240 q 479 75 524 118 q 376 8 435 32 q 244 -16 318 -16 q 123 8 171 -16 q 50 75 75 32 q 21 180 25 118 q 33 317 17 241 l 154 885 l 294 885 l 174 315 q 164 247 167 282 q 169 180 161 211 q 201 131 176 150 q 272 111 227 111 q 350 131 318 111 q 404 180 382 150 q 439 246 427 210 q 458 315 452 282 l 579 885 l 720 885 l 599 315 m 680 987 l 611 918 l 477 1057 l 279 917 l 240 985 l 506 1200 l 680 987 z "},"Ù":{"ha":758,"x_min":17,"x_max":720,"o":"m 599 315 q 553 179 582 240 q 479 75 524 118 q 376 8 435 32 q 244 -16 318 -16 q 123 8 171 -16 q 50 75 75 32 q 21 180 25 118 q 33 317 17 241 l 154 885 l 294 885 l 174 315 q 164 247 167 282 q 169 180 161 211 q 201 131 176 150 q 272 111 227 111 q 350 131 318 111 q 404 180 382 150 q 439 246 427 210 q 458 315 452 282 l 579 885 l 720 885 l 599 315 m 422 1204 l 656 1010 l 575 917 l 318 1082 l 422 1204 z "},"ı":{"ha":758,"x_min":39,"x_max":490,"o":"m 464 0 l 39 0 l 65 126 l 205 126 l 286 505 l 146 505 l 172 632 l 453 632 l 346 126 l 490 126 l 464 0 z "},"ˆ":{"ha":758,"x_min":186,"x_max":625,"o":"m 625 736 l 557 667 l 422 806 l 225 665 l 186 733 l 452 949 l 625 736 z "},"˜":{"ha":758,"x_min":125,"x_max":705,"o":"m 705 844 q 606 742 660 779 q 489 705 551 705 q 435 718 456 705 q 396 745 414 730 q 362 772 379 760 q 319 785 345 785 q 256 763 285 785 q 197 704 228 742 l 125 751 q 225 852 171 815 q 342 889 279 889 q 396 877 375 889 q 434 849 416 864 q 469 822 452 835 q 511 810 486 810 q 574 831 546 810 q 633 892 603 852 l 705 844 z "},"¯":{"ha":758,"x_min":210,"x_max":614,"o":"m 589 708 l 210 708 l 235 827 l 614 827 l 589 708 z "},"˘":{"ha":758,"x_min":196,"x_max":640,"o":"m 640 791 q 399 700 529 700 q 196 791 268 700 l 294 872 q 421 808 345 808 q 575 872 497 808 l 640 791 z "},"˙":{"ha":758,"x_min":315,"x_max":522,"o":"m 486 714 l 315 714 l 351 885 l 522 885 l 486 714 z "},"˚":{"ha":758,"x_min":271,"x_max":590,"o":"m 278 852 q 302 912 285 885 q 345 961 319 940 q 401 994 371 982 q 463 1006 431 1006 q 520 994 494 1006 q 562 961 546 982 q 584 912 578 940 q 583 852 590 885 q 559 793 576 821 q 516 744 542 765 q 460 712 490 724 q 399 700 431 700 q 341 712 367 700 q 299 744 315 724 q 277 793 283 765 q 278 852 271 821 m 368 852 q 376 808 363 827 q 416 790 390 790 q 465 808 443 790 q 493 852 488 827 q 485 897 498 879 q 444 916 471 916 q 396 897 418 916 q 368 852 374 879 z "},"¸":{"ha":758,"x_min":43,"x_max":334,"o":"m 326 -28 q 292 -116 317 -75 q 230 -186 267 -157 q 146 -234 193 -216 q 43 -252 98 -252 l 69 -131 q 163 -104 129 -131 q 207 -28 197 -77 l 214 0 l 334 0 l 326 -28 z "},"˝":{"ha":758,"x_min":186,"x_max":734,"o":"m 554 694 l 437 694 l 587 949 l 734 949 l 554 694 m 301 694 l 186 694 l 335 949 l 482 949 l 301 694 z "},"˛":{"ha":758,"x_min":371,"x_max":572,"o":"m 551 -257 q 415 -217 460 -257 q 387 -96 371 -176 q 428 -17 397 -52 q 494 37 458 18 l 530 0 q 489 -71 497 -29 q 504 -135 479 -114 q 572 -157 529 -157 l 551 -257 z "},"ˇ":{"ha":758,"x_min":216,"x_max":656,"o":"m 390 665 l 216 880 l 286 949 l 422 808 l 615 947 l 656 878 l 390 665 z "},"\"":{"ha":758,"x_min":184,"x_max":647,"o":"m 647 885 l 545 546 l 437 546 l 479 885 l 647 885 m 395 885 l 292 546 l 184 546 l 227 885 l 395 885 z "},"!":{"ha":758,"x_min":164,"x_max":529,"o":"m 529 885 l 359 253 l 244 253 l 345 885 l 529 885 m 335 0 l 164 0 l 200 171 l 371 171 l 335 0 z "},"":{"ha":758,"x_min":83,"x_max":380,"o":"m 380 -74 l 212 -253 l 83 -253 l 192 -74 l 380 -74 z "},"¤":{"ha":758,"x_min":-72,"x_max":757,"o":"m 660 636 q 682 547 677 596 q 673 441 686 498 q 636 336 661 385 q 576 248 611 288 l 640 167 l 541 85 l 478 165 q 272 111 387 111 q 89 165 157 111 l -9 85 l -72 167 l 24 248 q 2 336 5 288 q 11 441 -1 385 q 107 635 35 553 l 43 717 l 143 799 l 205 718 q 412 774 298 774 q 514 759 469 774 q 595 718 559 745 l 693 799 l 757 717 l 660 636 m 533 441 q 537 523 543 485 q 513 588 532 561 q 463 631 494 615 q 386 647 431 647 q 303 631 342 647 q 233 588 264 615 q 182 523 203 561 q 151 441 161 485 q 147 360 142 397 q 172 296 153 323 q 222 253 191 268 q 298 237 254 237 q 382 253 343 237 q 452 296 421 268 q 503 360 482 323 q 533 441 524 397 z "},"¦":{"ha":758,"x_min":151,"x_max":533,"o":"m 292 -126 l 151 -126 l 261 392 l 401 392 l 292 -126 m 424 493 l 283 493 l 393 1011 l 533 1011 l 424 493 z "},"­":{"ha":758,"x_min":-11,"x_max":647,"o":"m 621 261 l -11 261 l 15 388 l 647 388 l 621 261 z "},"²":{"ha":758,"x_min":69,"x_max":408,"o":"m 403 779 q 378 726 396 750 q 336 682 361 701 l 222 591 l 361 591 l 343 505 l 69 505 l 87 591 l 264 733 q 285 753 278 745 q 294 777 292 762 q 289 796 297 789 q 268 803 281 803 q 233 788 245 803 q 211 734 220 774 l 107 734 q 288 892 140 892 q 336 885 313 892 q 377 864 359 878 q 401 829 395 850 q 403 779 408 808 z "},"³":{"ha":758,"x_min":71,"x_max":406,"o":"m 370 621 q 313 539 358 575 q 208 504 268 504 q 85 637 71 504 l 191 647 q 225 590 183 590 q 251 599 239 590 q 265 624 262 608 q 258 660 271 650 q 214 671 245 671 l 228 737 q 290 775 282 737 q 265 803 296 803 q 237 789 250 803 q 218 747 224 775 l 117 747 q 180 854 132 818 q 289 888 227 888 q 377 858 349 888 q 396 781 406 828 q 338 707 385 730 q 370 621 379 671 z "},"¹":{"ha":758,"x_min":83,"x_max":340,"o":"m 321 505 l 92 505 l 110 591 l 171 591 l 204 750 q 161 724 191 737 q 83 710 131 710 l 103 802 q 142 808 121 802 q 181 825 163 814 q 215 851 200 836 q 233 885 229 867 l 340 885 l 278 591 l 339 591 l 321 505 z "},"¼":{"ha":758,"x_min":-72,"x_max":761,"o":"m 761 852 l 7 -28 l -72 32 l 684 916 l 761 852 m 321 505 l 92 505 l 110 591 l 171 591 l 204 750 q 161 724 191 737 q 83 710 131 710 l 103 802 q 142 808 121 802 q 181 825 163 814 q 215 851 200 836 q 233 885 229 867 l 340 885 l 278 591 l 339 591 l 321 505 m 511 0 l 406 0 l 421 77 l 286 77 l 309 179 l 496 379 l 591 379 l 546 164 l 607 164 l 587 77 l 526 77 l 511 0 m 440 164 l 454 235 l 386 164 l 440 164 z "},"½":{"ha":758,"x_min":-72,"x_max":761,"o":"m 631 273 q 607 220 625 244 q 564 176 589 196 l 452 86 l 590 86 l 572 0 l 298 0 l 317 86 l 492 228 q 514 248 507 239 q 524 271 521 257 q 518 290 526 283 q 497 297 510 297 q 462 282 475 297 q 440 229 449 268 l 336 229 q 517 386 370 386 q 565 379 542 386 q 605 358 587 372 q 630 323 623 345 q 631 273 637 302 m 761 852 l 7 -28 l -72 32 l 684 916 l 761 852 m 321 505 l 92 505 l 110 591 l 171 591 l 204 750 q 161 724 191 737 q 83 710 131 710 l 103 802 q 142 808 121 802 q 181 825 163 814 q 215 851 200 836 q 233 885 229 867 l 340 885 l 278 591 l 339 591 l 321 505 z "},"¾":{"ha":758,"x_min":-72,"x_max":761,"o":"m 370 621 q 313 539 358 575 q 208 504 268 504 q 85 637 71 504 l 191 647 q 225 590 183 590 q 251 599 239 590 q 265 624 262 608 q 258 660 271 650 q 214 671 245 671 l 228 737 q 290 775 282 737 q 265 803 296 803 q 237 789 250 803 q 218 747 224 775 l 117 747 q 180 854 132 818 q 289 888 227 888 q 377 858 349 888 q 396 781 406 828 q 338 707 385 730 q 370 621 379 671 m 511 0 l 406 0 l 421 77 l 286 77 l 309 179 l 496 379 l 591 379 l 546 164 l 607 164 l 587 77 l 526 77 l 511 0 m 440 164 l 454 235 l 386 164 l 440 164 m 761 852 l 7 -28 l -72 32 l 684 916 l 761 852 z "},"Ð":{"ha":758,"x_min":-64,"x_max":707,"o":"m -37 514 l 75 514 l 154 885 l 441 885 q 589 849 532 885 q 673 752 646 812 q 704 612 701 692 q 688 443 707 532 q 633 274 669 354 q 544 133 597 193 q 418 36 490 72 q 254 0 346 0 l -33 0 l 49 387 l -64 387 l -37 514 m 547 443 q 546 677 581 596 q 415 758 511 758 l 268 758 l 215 514 l 340 514 l 314 387 l 189 387 l 134 126 l 281 126 q 446 209 376 126 q 547 443 515 292 z "},"×":{"ha":758,"x_min":15,"x_max":621,"o":"m 621 507 l 399 324 l 543 140 l 444 60 l 301 243 l 79 60 l 15 140 l 236 324 l 93 507 l 192 588 l 336 404 l 557 588 l 621 507 z "},"Ý":{"ha":758,"x_min":37,"x_max":766,"o":"m 741 758 l 676 758 l 396 361 l 346 126 l 488 126 l 461 0 l 37 0 l 64 126 l 205 126 l 256 361 l 144 758 l 81 758 l 107 885 l 386 885 l 359 758 l 298 758 l 355 498 l 522 758 l 461 758 l 488 885 l 766 885 l 741 758 m 646 1082 l 317 917 l 278 1010 l 592 1204 l 646 1082 z "},"Þ":{"ha":758,"x_min":-33,"x_max":688,"o":"m 660 450 q 537 253 632 317 q 298 189 443 189 l 146 189 l 107 0 l -33 0 l 154 885 l 294 885 l 257 711 l 408 711 q 621 646 554 711 q 660 450 688 581 m 521 450 q 498 551 536 518 q 383 585 460 585 l 231 585 l 174 315 l 326 315 q 455 348 403 315 q 521 450 507 380 z "},"ð":{"ha":758,"x_min":-57,"x_max":669,"o":"m 232 663 l 322 737 q 280 759 301 749 q 235 778 258 768 l 302 900 q 372 868 339 885 q 437 832 406 851 l 557 930 l 619 848 l 525 771 q 596 694 566 736 q 645 603 627 653 q 666 494 663 553 q 654 364 669 435 q 596 207 636 277 q 500 87 557 136 q 373 11 444 37 q 221 -16 302 -16 q 13 50 82 -16 q -31 240 -57 115 q 29 365 -16 310 q 142 461 74 419 q 302 531 211 503 q 501 576 393 559 q 416 681 472 636 l 294 581 l 232 663 m 514 364 q 525 454 525 412 q 239 383 349 439 q 110 240 129 328 q 134 144 97 178 q 249 111 171 111 q 415 176 343 111 q 514 364 488 241 z "},"ý":{"ha":758,"x_min":-118,"x_max":693,"o":"m 693 632 l 261 -123 q 148 -236 212 -205 q 3 -267 83 -267 q -56 -261 -25 -267 q -118 -243 -86 -256 l -62 -114 q -13 -129 -36 -125 q 31 -134 11 -134 q 129 -78 93 -134 l 167 -17 l 62 632 l 208 632 l 281 154 l 543 632 l 693 632 m 591 831 l 262 665 l 224 758 l 538 953 l 591 831 z "},"þ":{"ha":758,"x_min":-86,"x_max":647,"o":"m 154 885 l 294 885 l 228 575 q 322 629 277 611 q 419 647 367 647 q 527 622 481 647 q 602 554 574 597 q 639 449 631 510 q 632 315 647 387 q 582 182 616 243 q 501 77 547 121 q 397 9 454 33 q 278 -16 339 -16 q 188 3 225 -16 q 118 58 151 22 l 53 -253 l -86 -253 l 154 885 m 142 168 q 197 126 161 140 q 269 111 233 111 q 410 168 349 111 q 492 315 472 224 q 473 464 511 407 q 355 521 435 521 q 278 506 319 521 q 204 464 236 492 l 142 168 z "},"Ā":{"ha":758,"x_min":-107,"x_max":668,"o":"m 460 0 l 440 211 l 147 211 l 40 0 l -107 0 l 357 885 l 518 885 l 607 0 l 460 0 m 211 335 l 429 335 l 399 700 l 211 335 m 643 960 l 264 960 l 289 1078 l 668 1078 l 643 960 z "},"ā":{"ha":758,"x_min":-41,"x_max":633,"o":"m -32 182 q 19 279 -20 237 q 113 349 58 321 q 232 390 167 376 q 363 404 297 404 q 425 403 399 404 q 476 399 450 401 l 481 424 q 458 498 492 473 q 363 522 425 522 q 244 506 306 522 q 122 460 182 490 l 89 570 q 235 626 158 606 q 390 647 311 647 q 489 635 441 647 q 570 597 536 624 q 619 529 604 571 q 619 424 633 486 l 530 0 l 392 0 l 411 93 q 296 13 367 41 q 150 -16 225 -16 q 66 -3 104 -16 q 3 35 28 9 q -31 97 -21 60 q -32 182 -41 134 m 212 110 q 292 120 254 110 q 362 150 330 131 q 416 195 395 168 q 444 253 437 221 l 450 277 q 389 283 418 282 q 338 283 359 283 q 176 256 235 283 q 109 189 118 229 q 212 110 92 110 m 589 708 l 210 708 l 235 827 l 614 827 l 589 708 z "},"Ă":{"ha":758,"x_min":-107,"x_max":694,"o":"m 460 0 l 440 211 l 147 211 l 40 0 l -107 0 l 357 885 l 518 885 l 607 0 l 460 0 m 211 335 l 429 335 l 399 700 l 211 335 m 694 1043 q 453 951 583 951 q 250 1043 322 951 l 349 1124 q 475 1060 399 1060 q 629 1124 551 1060 l 694 1043 z "},"ă":{"ha":758,"x_min":-41,"x_max":640,"o":"m -32 182 q 19 279 -20 237 q 113 349 58 321 q 232 390 167 376 q 363 404 297 404 q 425 403 399 404 q 476 399 450 401 l 481 424 q 458 498 492 473 q 363 522 425 522 q 244 506 306 522 q 122 460 182 490 l 89 570 q 235 626 158 606 q 390 647 311 647 q 489 635 441 647 q 570 597 536 624 q 619 529 604 571 q 619 424 633 486 l 530 0 l 392 0 l 411 93 q 296 13 367 41 q 150 -16 225 -16 q 66 -3 104 -16 q 3 35 28 9 q -31 97 -21 60 q -32 182 -41 134 m 212 110 q 292 120 254 110 q 362 150 330 131 q 416 195 395 168 q 444 253 437 221 l 450 277 q 389 283 418 282 q 338 283 359 283 q 176 256 235 283 q 109 189 118 229 q 212 110 92 110 m 640 791 q 399 700 529 700 q 196 791 268 700 l 294 872 q 421 808 345 808 q 575 872 497 808 l 640 791 z "},"Ą":{"ha":758,"x_min":-107,"x_max":648,"o":"m 628 -257 q 492 -217 536 -257 q 464 -96 447 -176 q 485 -44 469 -68 q 521 0 500 -20 l 460 0 l 440 211 l 147 211 l 40 0 l -107 0 l 357 885 l 518 885 l 607 0 q 566 -71 574 -29 q 581 -135 555 -114 q 648 -157 606 -157 l 628 -257 m 211 335 l 429 335 l 399 700 l 211 335 z "},"ą":{"ha":758,"x_min":-41,"x_max":633,"o":"m 392 0 l 411 93 q 296 13 367 41 q 150 -16 225 -16 q 66 -3 104 -16 q 3 35 28 9 q -31 97 -21 60 q -32 182 -41 134 q 19 279 -20 237 q 113 349 58 321 q 232 390 167 376 q 363 404 297 404 q 425 403 399 404 q 476 399 450 401 l 481 424 q 458 498 492 473 q 363 522 425 522 q 244 506 306 522 q 122 460 182 490 l 89 570 q 235 626 158 606 q 390 647 311 647 q 489 635 441 647 q 570 597 536 624 q 619 529 604 571 q 619 424 633 486 l 530 0 q 489 -71 497 -29 q 504 -135 479 -114 q 572 -157 529 -157 l 551 -257 q 415 -217 460 -257 q 387 -96 371 -176 q 409 -44 393 -68 q 444 0 424 -20 l 392 0 m 212 110 q 292 120 254 110 q 362 150 330 131 q 416 195 395 168 q 444 253 437 221 l 450 277 q 389 283 418 282 q 338 283 359 283 q 176 256 235 283 q 109 189 118 229 q 212 110 92 110 z "},"Ć":{"ha":758,"x_min":-5,"x_max":753,"o":"m 636 271 q 567 153 606 205 q 482 62 529 100 q 378 5 435 25 q 256 -16 322 -16 q 106 23 163 -16 q 22 125 50 61 q -5 272 -5 189 q 12 443 -5 354 q 67 614 32 532 q 157 760 103 697 q 281 862 211 823 q 441 900 351 900 q 499 892 471 900 q 550 870 528 885 q 587 832 572 854 q 604 781 602 810 l 627 885 l 753 885 l 682 550 l 555 550 q 562 632 564 591 q 544 703 559 672 q 499 754 529 734 q 424 774 469 774 q 320 745 364 774 q 242 668 275 715 q 188 562 210 621 q 153 443 165 503 q 137 323 140 383 q 145 217 134 264 q 190 140 157 170 q 283 111 224 111 q 427 166 370 111 q 533 314 485 221 l 636 271 m 646 1085 l 317 920 l 278 1013 l 592 1207 l 646 1085 z "},"ć":{"ha":758,"x_min":-31,"x_max":665,"o":"m 559 90 q 414 7 486 29 q 262 -16 342 -16 q 123 8 183 -16 q 28 75 64 32 q -19 179 -7 118 q -14 315 -31 240 q 39 449 1 387 q 126 554 77 510 q 237 622 176 597 q 361 647 298 647 q 468 620 427 647 q 521 541 510 593 l 541 632 l 665 632 l 603 338 l 478 338 q 460 471 496 421 q 351 521 425 521 q 288 509 322 521 q 222 472 254 497 q 163 408 189 447 q 126 315 138 370 q 124 224 115 262 q 154 161 132 186 q 212 124 176 136 q 288 111 248 111 q 410 133 355 111 q 509 189 465 154 l 559 90 m 591 832 l 262 667 l 224 760 l 538 954 l 591 832 z "},"Ĉ":{"ha":758,"x_min":-5,"x_max":753,"o":"m 636 271 q 567 153 606 205 q 482 62 529 100 q 378 5 435 25 q 256 -16 322 -16 q 106 23 163 -16 q 22 125 50 61 q -5 272 -5 189 q 12 443 -5 354 q 67 614 32 532 q 157 760 103 697 q 281 862 211 823 q 441 900 351 900 q 499 892 471 900 q 550 870 528 885 q 587 832 572 854 q 604 781 602 810 l 627 885 l 753 885 l 682 550 l 555 550 q 562 632 564 591 q 544 703 559 672 q 499 754 529 734 q 424 774 469 774 q 320 745 364 774 q 242 668 275 715 q 188 562 210 621 q 153 443 165 503 q 137 323 140 383 q 145 217 134 264 q 190 140 157 170 q 283 111 224 111 q 427 166 370 111 q 533 314 485 221 l 636 271 m 680 990 l 611 921 l 477 1060 l 279 920 l 240 987 l 506 1203 l 680 990 z "},"ĉ":{"ha":758,"x_min":-31,"x_max":665,"o":"m 559 90 q 414 7 486 29 q 262 -16 342 -16 q 123 8 183 -16 q 28 75 64 32 q -19 179 -7 118 q -14 315 -31 240 q 39 449 1 387 q 126 554 77 510 q 237 622 176 597 q 361 647 298 647 q 468 620 427 647 q 521 541 510 593 l 541 632 l 665 632 l 603 338 l 478 338 q 460 471 496 421 q 351 521 425 521 q 288 509 322 521 q 222 472 254 497 q 163 408 189 447 q 126 315 138 370 q 124 224 115 262 q 154 161 132 186 q 212 124 176 136 q 288 111 248 111 q 410 133 355 111 q 509 189 465 154 l 559 90 m 625 737 l 557 668 l 422 807 l 225 667 l 186 734 l 452 950 l 625 737 z "},"Ċ":{"ha":758,"x_min":-5,"x_max":753,"o":"m 636 271 q 567 153 606 205 q 482 62 529 100 q 378 5 435 25 q 256 -16 322 -16 q 106 23 163 -16 q 22 125 50 61 q -5 272 -5 189 q 12 443 -5 354 q 67 614 32 532 q 157 760 103 697 q 281 862 211 823 q 441 900 351 900 q 499 892 471 900 q 550 870 528 885 q 587 832 572 854 q 604 781 602 810 l 627 885 l 753 885 l 682 550 l 555 550 q 562 632 564 591 q 544 703 559 672 q 499 754 529 734 q 424 774 469 774 q 320 745 364 774 q 242 668 275 715 q 188 562 210 621 q 153 443 165 503 q 137 323 140 383 q 145 217 134 264 q 190 140 157 170 q 283 111 224 111 q 427 166 370 111 q 533 314 485 221 l 636 271 m 541 966 l 370 966 l 406 1137 l 576 1137 l 541 966 z "},"ċ":{"ha":758,"x_min":-31,"x_max":665,"o":"m 559 90 q 414 7 486 29 q 262 -16 342 -16 q 123 8 183 -16 q 28 75 64 32 q -19 179 -7 118 q -14 315 -31 240 q 39 449 1 387 q 126 554 77 510 q 237 622 176 597 q 361 647 298 647 q 468 620 427 647 q 521 541 510 593 l 541 632 l 665 632 l 603 338 l 478 338 q 460 471 496 421 q 351 521 425 521 q 288 509 322 521 q 222 472 254 497 q 163 408 189 447 q 126 315 138 370 q 124 224 115 262 q 154 161 132 186 q 212 124 176 136 q 288 111 248 111 q 410 133 355 111 q 509 189 465 154 l 559 90 m 486 714 l 315 714 l 351 885 l 522 885 l 486 714 z "},"Č":{"ha":758,"x_min":-5,"x_max":753,"o":"m 636 271 q 567 153 606 205 q 482 62 529 100 q 378 5 435 25 q 256 -16 322 -16 q 106 23 163 -16 q 22 125 50 61 q -5 272 -5 189 q 12 443 -5 354 q 67 614 32 532 q 157 760 103 697 q 281 862 211 823 q 441 900 351 900 q 499 892 471 900 q 550 870 528 885 q 587 832 572 854 q 604 781 602 810 l 627 885 l 753 885 l 682 550 l 555 550 q 562 632 564 591 q 544 703 559 672 q 499 754 529 734 q 424 774 469 774 q 320 745 364 774 q 242 668 275 715 q 188 562 210 621 q 153 443 165 503 q 137 323 140 383 q 145 217 134 264 q 190 140 157 170 q 283 111 224 111 q 427 166 370 111 q 533 314 485 221 l 636 271 m 444 920 l 271 1135 l 340 1203 l 477 1063 l 669 1202 l 710 1132 l 444 920 z "},"č":{"ha":758,"x_min":-31,"x_max":665,"o":"m 559 90 q 414 7 486 29 q 262 -16 342 -16 q 123 8 183 -16 q 28 75 64 32 q -19 179 -7 118 q -14 315 -31 240 q 39 449 1 387 q 126 554 77 510 q 237 622 176 597 q 361 647 298 647 q 468 620 427 647 q 521 541 510 593 l 541 632 l 665 632 l 603 338 l 478 338 q 460 471 496 421 q 351 521 425 521 q 288 509 322 521 q 222 472 254 497 q 163 408 189 447 q 126 315 138 370 q 124 224 115 262 q 154 161 132 186 q 212 124 176 136 q 288 111 248 111 q 410 133 355 111 q 509 189 465 154 l 559 90 m 390 667 l 216 882 l 286 950 l 422 810 l 615 949 l 656 879 l 390 667 z "},"Ď":{"ha":758,"x_min":-33,"x_max":710,"o":"m 688 443 q 633 274 669 354 q 544 133 597 193 q 418 36 490 72 q 254 0 346 0 l -33 0 l 154 885 l 441 885 q 589 849 532 885 q 673 752 646 812 q 704 612 701 692 q 688 443 707 532 m 547 443 q 546 677 581 596 q 415 758 511 758 l 268 758 l 134 126 l 281 126 q 446 209 376 126 q 547 443 515 292 m 444 920 l 271 1135 l 340 1203 l 477 1063 l 669 1202 l 710 1132 l 444 920 z "},"ď":{"ha":758,"x_min":-29,"x_max":878,"o":"m 453 0 l 313 0 l 323 58 q 242 3 282 22 q 157 -16 201 -16 q 66 9 104 -16 q 4 77 28 33 q -24 182 -20 121 q -14 315 -29 243 q 33 449 1 387 q 105 554 64 510 q 196 622 147 597 q 298 647 245 647 q 375 629 343 647 q 433 575 407 611 l 473 758 l 347 758 l 374 885 l 640 885 l 453 0 m 410 464 q 369 506 397 492 q 311 521 340 521 q 197 464 249 521 q 126 315 146 407 q 135 168 107 224 q 225 111 163 111 q 288 126 254 111 q 347 168 322 140 l 410 464 m 878 884 l 742 507 l 632 507 l 711 884 l 878 884 z "},"Đ":{"ha":758,"x_min":-64,"x_max":707,"o":"m -37 514 l 75 514 l 154 885 l 441 885 q 589 849 532 885 q 673 752 646 812 q 704 612 701 692 q 688 443 707 532 q 633 274 669 354 q 544 133 597 193 q 418 36 490 72 q 254 0 346 0 l -33 0 l 49 387 l -64 387 l -37 514 m 547 443 q 546 677 581 596 q 415 758 511 758 l 268 758 l 215 514 l 340 514 l 314 387 l 189 387 l 134 126 l 281 126 q 446 209 376 126 q 547 443 515 292 z "},"đ":{"ha":758,"x_min":-17,"x_max":815,"o":"m 790 671 l 673 671 l 532 0 l 392 0 l 403 58 q 310 3 355 22 q 211 -16 264 -16 q 103 9 150 -16 q 28 77 57 33 q -8 182 0 121 q -1 315 -17 243 q 48 449 14 387 q 130 554 83 510 q 234 622 176 597 q 353 647 292 647 q 443 629 406 647 q 513 575 481 611 l 533 671 l 411 671 l 436 789 l 558 789 l 579 885 l 720 885 l 699 789 l 815 789 l 790 671 m 489 464 q 434 506 471 492 q 361 521 397 521 q 220 464 282 521 q 139 315 158 407 q 158 168 119 224 q 275 111 196 111 q 354 126 311 111 q 427 168 396 140 l 489 464 z "},"Ē":{"ha":758,"x_min":-33,"x_max":720,"o":"m 532 0 l -33 0 l 154 885 l 720 885 l 693 758 l 268 758 l 215 514 l 547 514 l 521 387 l 189 387 l 134 126 l 558 126 l 532 0 m 643 960 l 264 960 l 289 1078 l 668 1078 l 643 960 z "},"ē":{"ha":758,"x_min":-31,"x_max":665,"o":"m 118 262 q 157 154 114 197 q 288 111 200 111 q 410 133 355 111 q 509 189 465 154 l 559 90 q 413 7 486 29 q 260 -16 340 -16 q 128 9 186 -16 q 34 77 71 33 q -17 181 -3 121 q -14 315 -31 241 q 38 448 1 387 q 129 553 75 509 q 249 622 182 597 q 389 647 315 647 q 522 621 465 647 q 612 545 578 595 q 655 424 646 496 q 647 262 665 353 l 118 262 m 515 386 q 472 484 517 447 q 361 521 428 521 q 234 484 294 521 q 150 386 174 447 l 515 386 m 589 708 l 210 708 l 235 827 l 614 827 l 589 708 z "},"Ĕ":{"ha":758,"x_min":-33,"x_max":720,"o":"m 532 0 l -33 0 l 154 885 l 720 885 l 693 758 l 268 758 l 215 514 l 547 514 l 521 387 l 189 387 l 134 126 l 558 126 l 532 0 m 694 1043 q 453 951 583 951 q 250 1043 322 951 l 349 1124 q 475 1060 399 1060 q 629 1124 551 1060 l 694 1043 z "},"ĕ":{"ha":758,"x_min":-31,"x_max":665,"o":"m 118 262 q 157 154 114 197 q 288 111 200 111 q 410 133 355 111 q 509 189 465 154 l 559 90 q 413 7 486 29 q 260 -16 340 -16 q 128 9 186 -16 q 34 77 71 33 q -17 181 -3 121 q -14 315 -31 241 q 38 448 1 387 q 129 553 75 509 q 249 622 182 597 q 389 647 315 647 q 522 621 465 647 q 612 545 578 595 q 655 424 646 496 q 647 262 665 353 l 118 262 m 515 386 q 472 484 517 447 q 361 521 428 521 q 234 484 294 521 q 150 386 174 447 l 515 386 m 640 791 q 399 700 529 700 q 196 791 268 700 l 294 872 q 421 808 345 808 q 575 872 497 808 l 640 791 z "},"Ė":{"ha":758,"x_min":-33,"x_max":720,"o":"m 532 0 l -33 0 l 154 885 l 720 885 l 693 758 l 268 758 l 215 514 l 547 514 l 521 387 l 189 387 l 134 126 l 558 126 l 532 0 m 541 966 l 370 966 l 406 1137 l 576 1137 l 541 966 z "},"ė":{"ha":758,"x_min":-31,"x_max":665,"o":"m 118 262 q 157 154 114 197 q 288 111 200 111 q 410 133 355 111 q 509 189 465 154 l 559 90 q 413 7 486 29 q 260 -16 340 -16 q 128 9 186 -16 q 34 77 71 33 q -17 181 -3 121 q -14 315 -31 241 q 38 448 1 387 q 129 553 75 509 q 249 622 182 597 q 389 647 315 647 q 522 621 465 647 q 612 545 578 595 q 655 424 646 496 q 647 262 665 353 l 118 262 m 515 386 q 472 484 517 447 q 361 521 428 521 q 234 484 294 521 q 150 386 174 447 l 515 386 m 486 714 l 315 714 l 351 885 l 522 885 l 486 714 z "},"Ę":{"ha":758,"x_min":-33,"x_max":720,"o":"m 553 -257 q 417 -217 461 -257 q 389 -96 372 -176 q 410 -44 395 -68 q 446 0 425 -20 l -33 0 l 154 885 l 720 885 l 693 758 l 268 758 l 215 514 l 547 514 l 521 387 l 189 387 l 134 126 l 558 126 l 532 0 q 490 -71 498 -29 q 506 -135 481 -114 q 574 -157 530 -157 l 553 -257 z "},"ę":{"ha":758,"x_min":-31,"x_max":665,"o":"m 410 -257 q 274 -217 318 -257 q 245 -96 229 -176 q 262 -52 250 -72 q 288 -14 273 -32 q 274 -16 281 -16 q 260 -16 267 -16 q 128 9 186 -16 q 34 77 71 33 q -17 181 -3 121 q -14 315 -31 241 q 38 448 1 387 q 129 553 75 509 q 249 622 182 597 q 389 647 315 647 q 522 621 465 647 q 612 545 578 595 q 655 424 646 496 q 647 262 665 353 l 118 262 q 157 154 114 197 q 288 111 200 111 q 410 133 355 111 q 509 189 465 154 l 559 90 q 474 33 517 54 q 389 0 431 11 q 347 -71 355 -29 q 362 -135 338 -114 q 431 -157 387 -157 l 410 -257 m 515 386 q 472 484 517 447 q 361 521 428 521 q 234 484 294 521 q 150 386 174 447 l 515 386 z "},"Ě":{"ha":758,"x_min":-33,"x_max":720,"o":"m 532 0 l -33 0 l 154 885 l 720 885 l 693 758 l 268 758 l 215 514 l 547 514 l 521 387 l 189 387 l 134 126 l 558 126 l 532 0 m 444 917 l 271 1132 l 340 1200 l 477 1060 l 669 1199 l 710 1129 l 444 917 z "},"ě":{"ha":758,"x_min":-31,"x_max":665,"o":"m 118 262 q 157 154 114 197 q 288 111 200 111 q 410 133 355 111 q 509 189 465 154 l 559 90 q 413 7 486 29 q 260 -16 340 -16 q 128 9 186 -16 q 34 77 71 33 q -17 181 -3 121 q -14 315 -31 241 q 38 448 1 387 q 129 553 75 509 q 249 622 182 597 q 389 647 315 647 q 522 621 465 647 q 612 545 578 595 q 655 424 646 496 q 647 262 665 353 l 118 262 m 515 386 q 472 484 517 447 q 361 521 428 521 q 234 484 294 521 q 150 386 174 447 l 515 386 m 390 665 l 216 880 l 286 949 l 422 808 l 615 947 l 656 878 l 390 665 z "},"Ĝ":{"ha":758,"x_min":-7,"x_max":753,"o":"m 693 440 q 638 268 673 350 q 549 123 603 186 q 421 22 494 60 q 256 -16 349 -16 q 106 23 163 -16 q 22 124 50 61 q -6 270 -5 187 q 12 441 -7 353 q 67 613 32 530 q 158 760 103 696 q 284 862 212 823 q 450 900 357 900 q 503 892 476 900 q 551 870 529 885 q 587 832 572 854 q 604 781 602 810 l 627 885 l 753 885 l 686 571 l 559 571 q 563 649 568 612 q 540 714 558 686 q 492 758 522 742 q 424 774 463 774 q 320 744 364 774 q 242 667 275 714 q 187 560 208 619 q 153 441 165 501 q 137 323 140 382 q 145 217 134 264 q 190 140 157 170 q 283 111 224 111 q 433 166 370 111 q 542 336 497 221 l 355 336 l 382 463 l 697 463 l 693 440 m 680 987 l 611 918 l 477 1057 l 279 917 l 240 985 l 506 1200 l 680 987 z "},"ĝ":{"ha":758,"x_min":-86,"x_max":665,"o":"m 533 7 q 486 -109 519 -58 q 405 -195 453 -160 q 298 -249 357 -231 q 172 -268 239 -268 q -86 -168 7 -268 l 1 -60 q 200 -143 82 -143 q 323 -107 272 -143 q 392 4 375 -72 l 407 72 q 311 17 355 35 q 214 -1 267 -1 q 106 24 153 -1 q 32 95 60 50 q -5 198 4 139 q 0 323 -14 257 q 48 449 14 390 q 129 552 82 509 q 234 622 176 596 q 353 647 292 647 q 443 629 406 647 q 513 575 481 611 l 525 632 l 665 632 l 533 7 m 489 464 q 434 506 471 492 q 359 521 397 521 q 219 465 281 521 q 140 323 158 410 q 136 244 131 281 q 160 182 142 208 q 208 140 178 155 q 277 125 237 125 q 356 140 314 125 q 431 183 399 155 l 489 464 m 625 736 l 557 667 l 422 806 l 225 665 l 186 733 l 452 949 l 625 736 z "},"Ğ":{"ha":758,"x_min":-7,"x_max":753,"o":"m 693 440 q 638 268 673 350 q 549 123 603 186 q 421 22 494 60 q 256 -16 349 -16 q 106 23 163 -16 q 22 124 50 61 q -6 270 -5 187 q 12 441 -7 353 q 67 613 32 530 q 158 760 103 696 q 284 862 212 823 q 450 900 357 900 q 503 892 476 900 q 551 870 529 885 q 587 832 572 854 q 604 781 602 810 l 627 885 l 753 885 l 686 571 l 559 571 q 563 649 568 612 q 540 714 558 686 q 492 758 522 742 q 424 774 463 774 q 320 744 364 774 q 242 667 275 714 q 187 560 208 619 q 153 441 165 501 q 137 323 140 382 q 145 217 134 264 q 190 140 157 170 q 283 111 224 111 q 433 166 370 111 q 542 336 497 221 l 355 336 l 382 463 l 697 463 l 693 440 m 694 1043 q 453 951 583 951 q 250 1043 322 951 l 349 1124 q 475 1060 399 1060 q 629 1124 551 1060 l 694 1043 z "},"ğ":{"ha":758,"x_min":-86,"x_max":665,"o":"m 533 7 q 486 -109 519 -58 q 405 -195 453 -160 q 298 -249 357 -231 q 172 -268 239 -268 q -86 -168 7 -268 l 1 -60 q 200 -143 82 -143 q 323 -107 272 -143 q 392 4 375 -72 l 407 72 q 311 17 355 35 q 214 -1 267 -1 q 106 24 153 -1 q 32 95 60 50 q -5 198 4 139 q 0 323 -14 257 q 48 449 14 390 q 129 552 82 509 q 234 622 176 596 q 353 647 292 647 q 443 629 406 647 q 513 575 481 611 l 525 632 l 665 632 l 533 7 m 489 464 q 434 506 471 492 q 359 521 397 521 q 219 465 281 521 q 140 323 158 410 q 136 244 131 281 q 160 182 142 208 q 208 140 178 155 q 277 125 237 125 q 356 140 314 125 q 431 183 399 155 l 489 464 m 640 791 q 399 700 529 700 q 196 791 268 700 l 294 872 q 421 808 345 808 q 575 872 497 808 l 640 791 z "},"Ġ":{"ha":758,"x_min":-7,"x_max":753,"o":"m 693 440 q 638 268 673 350 q 549 123 603 186 q 421 22 494 60 q 256 -16 349 -16 q 106 23 163 -16 q 22 124 50 61 q -6 270 -5 187 q 12 441 -7 353 q 67 613 32 530 q 158 760 103 696 q 284 862 212 823 q 450 900 357 900 q 503 892 476 900 q 551 870 529 885 q 587 832 572 854 q 604 781 602 810 l 627 885 l 753 885 l 686 571 l 559 571 q 563 649 568 612 q 540 714 558 686 q 492 758 522 742 q 424 774 463 774 q 320 744 364 774 q 242 667 275 714 q 187 560 208 619 q 153 441 165 501 q 137 323 140 382 q 145 217 134 264 q 190 140 157 170 q 283 111 224 111 q 433 166 370 111 q 542 336 497 221 l 355 336 l 382 463 l 697 463 l 693 440 m 541 966 l 370 966 l 406 1137 l 576 1137 l 541 966 z "},"ġ":{"ha":758,"x_min":-86,"x_max":665,"o":"m 533 7 q 486 -109 519 -58 q 405 -195 453 -160 q 298 -249 357 -231 q 172 -268 239 -268 q -86 -168 7 -268 l 1 -60 q 200 -143 82 -143 q 323 -107 272 -143 q 392 4 375 -72 l 407 72 q 311 17 355 35 q 214 -1 267 -1 q 106 24 153 -1 q 32 95 60 50 q -5 198 4 139 q 0 323 -14 257 q 48 449 14 390 q 129 552 82 509 q 234 622 176 596 q 353 647 292 647 q 443 629 406 647 q 513 575 481 611 l 525 632 l 665 632 l 533 7 m 489 464 q 434 506 471 492 q 359 521 397 521 q 219 465 281 521 q 140 323 158 410 q 136 244 131 281 q 160 182 142 208 q 208 140 178 155 q 277 125 237 125 q 356 140 314 125 q 431 183 399 155 l 489 464 m 486 714 l 315 714 l 351 885 l 522 885 l 486 714 z "},"Ģ":{"ha":758,"x_min":-7,"x_max":753,"o":"m 693 440 q 638 268 673 350 q 549 123 603 186 q 421 22 494 60 q 256 -16 349 -16 q 106 23 163 -16 q 22 124 50 61 q -6 270 -5 187 q 12 441 -7 353 q 67 613 32 530 q 158 760 103 696 q 284 862 212 823 q 450 900 357 900 q 503 892 476 900 q 551 870 529 885 q 587 832 572 854 q 604 781 602 810 l 627 885 l 753 885 l 686 571 l 559 571 q 563 649 568 612 q 540 714 558 686 q 492 758 522 742 q 424 774 463 774 q 320 744 364 774 q 242 667 275 714 q 187 560 208 619 q 153 441 165 501 q 137 323 140 382 q 145 217 134 264 q 190 140 157 170 q 283 111 224 111 q 433 166 370 111 q 542 336 497 221 l 355 336 l 382 463 l 697 463 l 693 440 m 380 -74 l 212 -253 l 83 -253 l 192 -74 l 380 -74 z "},"ģ":{"ha":758,"x_min":-86,"x_max":665,"o":"m 345 758 l 514 1011 l 621 1011 l 511 758 l 345 758 m 533 7 q 486 -109 519 -58 q 405 -195 453 -160 q 298 -249 357 -231 q 172 -268 239 -268 q -86 -168 7 -268 l 1 -60 q 200 -143 82 -143 q 323 -107 272 -143 q 392 4 375 -72 l 407 72 q 311 17 355 35 q 214 -1 267 -1 q 106 24 153 -1 q 32 95 60 50 q -5 198 4 139 q 0 323 -14 257 q 48 449 14 390 q 129 552 82 509 q 234 622 176 596 q 353 647 292 647 q 443 629 406 647 q 513 575 481 611 l 525 632 l 665 632 l 533 7 m 489 464 q 434 506 471 492 q 359 521 397 521 q 219 465 281 521 q 140 323 158 410 q 136 244 131 281 q 160 182 142 208 q 208 140 178 155 q 277 125 237 125 q 356 140 314 125 q 431 183 399 155 l 489 464 z "},"Ĥ":{"ha":758,"x_min":-33,"x_max":720,"o":"m 532 0 l 392 0 l 473 387 l 189 387 l 107 0 l -33 0 l 154 885 l 294 885 l 215 514 l 500 514 l 579 885 l 720 885 l 532 0 m 680 987 l 611 918 l 477 1057 l 279 917 l 240 985 l 506 1200 l 680 987 z "},"ĥ":{"ha":758,"x_min":-33,"x_max":680,"o":"m 532 0 l 392 0 l 473 390 q 467 492 489 464 q 393 521 446 521 q 253 458 315 521 q 167 283 191 395 l 107 0 l -33 0 l 154 885 l 294 885 l 207 473 q 312 601 245 555 q 463 647 379 647 q 601 584 559 647 q 614 390 642 521 l 532 0 m 680 987 l 611 918 l 477 1057 l 279 917 l 240 985 l 506 1200 l 680 987 z "},"Ħ":{"ha":758,"x_min":-33,"x_max":819,"o":"m 693 758 l 819 758 l 793 640 l 667 640 l 532 0 l 392 0 l 473 387 l 189 387 l 107 0 l -33 0 l 102 640 l -25 640 l 1 758 l 127 758 l 154 885 l 294 885 l 268 758 l 553 758 l 579 885 l 720 885 l 693 758 m 500 514 l 526 640 l 241 640 l 215 514 l 500 514 z "},"ħ":{"ha":758,"x_min":-33,"x_max":642,"o":"m 532 0 l 392 0 l 473 390 q 467 492 489 464 q 393 521 446 521 q 253 458 315 521 q 167 283 191 395 l 107 0 l -33 0 l 109 671 l -8 671 l 17 789 l 134 789 l 154 885 l 294 885 l 273 789 l 396 789 l 371 671 l 249 671 l 207 473 q 312 601 245 555 q 463 647 379 647 q 601 584 559 647 q 614 390 642 521 l 532 0 z "},"Ĩ":{"ha":758,"x_min":39,"x_max":760,"o":"m 464 0 l 39 0 l 65 126 l 205 126 l 340 758 l 200 758 l 227 885 l 652 885 l 625 758 l 481 758 l 346 126 l 490 126 l 464 0 m 760 1096 q 660 994 714 1031 q 543 957 606 957 q 489 969 510 957 q 451 997 468 982 q 416 1024 433 1011 q 374 1036 399 1036 q 311 1015 339 1036 q 252 956 282 994 l 179 1003 q 279 1104 225 1067 q 396 1141 334 1141 q 450 1128 429 1141 q 488 1101 471 1116 q 523 1074 506 1086 q 566 1061 541 1061 q 629 1083 600 1061 q 688 1143 657 1104 l 760 1096 z "},"ĩ":{"ha":758,"x_min":39,"x_max":705,"o":"m 464 0 l 39 0 l 65 126 l 205 126 l 286 505 l 146 505 l 172 632 l 453 632 l 346 126 l 490 126 l 464 0 m 705 844 q 606 742 660 779 q 489 705 551 705 q 435 718 456 705 q 396 745 414 730 q 362 772 379 760 q 319 785 345 785 q 256 763 285 785 q 197 704 228 742 l 125 751 q 225 852 171 815 q 342 889 279 889 q 396 877 375 889 q 434 849 416 864 q 469 822 452 835 q 511 810 486 810 q 574 831 546 810 q 633 892 603 852 l 705 844 z "},"Ī":{"ha":758,"x_min":39,"x_max":668,"o":"m 464 0 l 39 0 l 65 126 l 205 126 l 340 758 l 200 758 l 227 885 l 652 885 l 625 758 l 481 758 l 346 126 l 490 126 l 464 0 m 643 960 l 264 960 l 289 1078 l 668 1078 l 643 960 z "},"ī":{"ha":758,"x_min":39,"x_max":614,"o":"m 464 0 l 39 0 l 65 126 l 205 126 l 286 505 l 146 505 l 172 632 l 453 632 l 346 126 l 490 126 l 464 0 m 589 708 l 210 708 l 235 827 l 614 827 l 589 708 z "},"Ĭ":{"ha":758,"x_min":39,"x_max":694,"o":"m 464 0 l 39 0 l 65 126 l 205 126 l 340 758 l 200 758 l 227 885 l 652 885 l 625 758 l 481 758 l 346 126 l 490 126 l 464 0 m 694 1043 q 453 951 583 951 q 250 1043 322 951 l 349 1124 q 475 1060 399 1060 q 629 1124 551 1060 l 694 1043 z "},"ĭ":{"ha":758,"x_min":39,"x_max":640,"o":"m 464 0 l 39 0 l 65 126 l 205 126 l 286 505 l 146 505 l 172 632 l 453 632 l 346 126 l 490 126 l 464 0 m 640 791 q 399 700 529 700 q 196 791 268 700 l 294 872 q 421 808 345 808 q 575 872 497 808 l 640 791 z "},"Į":{"ha":758,"x_min":39,"x_max":652,"o":"m 485 -257 q 349 -217 393 -257 q 321 -96 304 -176 q 341 -44 326 -68 q 378 0 357 -20 l 39 0 l 65 126 l 205 126 l 340 758 l 200 758 l 227 885 l 652 885 l 625 758 l 481 758 l 346 126 l 490 126 l 464 0 q 422 -71 431 -29 q 437 -135 412 -114 q 505 -157 463 -157 l 485 -257 z "},"į":{"ha":758,"x_min":39,"x_max":522,"o":"m 485 -257 q 349 -217 393 -257 q 321 -96 304 -176 q 341 -44 326 -68 q 378 0 357 -20 l 39 0 l 65 126 l 205 126 l 286 505 l 146 505 l 172 632 l 453 632 l 346 126 l 490 126 l 464 0 q 422 -71 431 -29 q 437 -135 412 -114 q 505 -157 463 -157 l 485 -257 m 486 714 l 315 714 l 351 885 l 522 885 l 486 714 z "},"İ":{"ha":758,"x_min":39,"x_max":652,"o":"m 464 0 l 39 0 l 65 126 l 205 126 l 340 758 l 200 758 l 227 885 l 652 885 l 625 758 l 481 758 l 346 126 l 490 126 l 464 0 m 541 966 l 370 966 l 406 1137 l 576 1137 l 541 966 z "},"Ĳ":{"ha":758,"x_min":-87,"x_max":766,"o":"m 144 -92 q 258 -142 182 -142 q 338 -123 304 -142 q 394 -73 371 -104 q 432 -1 416 -41 q 456 85 447 40 l 627 885 l 766 885 l 596 85 q 469 -176 561 -83 q 231 -268 378 -268 q 37 -197 106 -268 l 144 -92 m 338 0 l -87 0 l -61 126 l 79 126 l 214 758 l 74 758 l 100 885 l 526 885 l 499 758 l 355 758 l 220 126 l 364 126 l 338 0 z "},"ĳ":{"ha":758,"x_min":-66,"x_max":795,"o":"m 381 714 l 210 714 l 246 885 l 417 885 l 381 714 m 359 0 l -66 0 l -40 126 l 100 126 l 181 505 l 41 505 l 67 632 l 348 632 l 241 126 l 385 126 l 359 0 m 256 -268 q 47 -160 111 -268 l 149 -66 q 205 -123 174 -104 q 283 -142 237 -142 q 396 -103 354 -142 q 453 0 439 -64 l 559 505 l 416 505 l 443 632 l 726 632 l 593 0 q 549 -111 579 -61 q 474 -195 518 -160 q 374 -249 429 -231 q 256 -268 318 -268 m 760 714 l 589 714 l 625 885 l 795 885 l 760 714 z "},"Ĵ":{"ha":758,"x_min":-20,"x_max":720,"o":"m 603 338 q 476 77 567 170 q 237 -16 385 -16 q 53 46 119 -16 q -20 232 -14 109 l 117 279 q 155 156 119 200 q 265 111 191 111 q 344 130 311 111 q 400 180 376 149 q 438 252 424 211 q 463 338 453 293 l 579 885 l 720 885 l 603 338 m 680 987 l 611 918 l 477 1057 l 279 917 l 240 985 l 506 1200 l 680 987 z "},"ĵ":{"ha":758,"x_min":-100,"x_max":688,"o":"m 109 -268 q -100 -160 -36 -268 l 1 -66 q 58 -123 26 -104 q 136 -142 90 -142 q 249 -103 207 -142 q 306 0 292 -64 l 412 505 l 269 505 l 296 632 l 579 632 l 446 0 q 401 -111 432 -61 q 327 -195 371 -160 q 227 -249 282 -231 q 109 -268 171 -268 m 688 736 l 619 667 l 485 806 l 288 665 l 248 733 l 514 949 l 688 736 z "},"Ķ":{"ha":758,"x_min":-33,"x_max":750,"o":"m 561 0 l 397 0 l 253 412 l 179 343 l 107 0 l -33 0 l 154 885 l 294 885 l 221 538 l 570 885 l 750 885 l 364 518 l 561 0 m 380 -74 l 212 -253 l 83 -253 l 192 -74 l 380 -74 z "},"ķ":{"ha":758,"x_min":-33,"x_max":686,"o":"m 564 0 l 382 0 l 225 256 l 147 191 l 107 0 l -33 0 l 154 885 l 294 885 l 183 364 l 493 632 l 686 632 l 334 342 l 564 0 m 380 -74 l 212 -253 l 83 -253 l 192 -74 l 380 -74 z "},"ĸ":{"ha":758,"x_min":-33,"x_max":686,"o":"m 564 0 l 382 0 l 225 256 l 147 191 l 107 0 l -33 0 l 100 632 l 240 632 l 183 364 l 493 632 l 686 632 l 334 342 l 564 0 z "},"Ĺ":{"ha":758,"x_min":-33,"x_max":646,"o":"m 532 0 l -33 0 l 154 885 l 294 885 l 134 126 l 558 126 l 532 0 m 646 1082 l 317 917 l 278 1010 l 592 1204 l 646 1082 z "},"ĺ":{"ha":758,"x_min":40,"x_max":646,"o":"m 465 0 l 40 0 l 66 126 l 205 126 l 340 758 l 201 758 l 228 885 l 507 885 l 346 126 l 492 126 l 465 0 m 646 1082 l 317 917 l 278 1010 l 592 1204 l 646 1082 z "},"Ļ":{"ha":758,"x_min":-33,"x_max":558,"o":"m 532 0 l -33 0 l 154 885 l 294 885 l 134 126 l 558 126 l 532 0 m 380 -74 l 212 -253 l 83 -253 l 192 -74 l 380 -74 z "},"ļ":{"ha":758,"x_min":40,"x_max":507,"o":"m 465 0 l 40 0 l 66 126 l 205 126 l 340 758 l 201 758 l 228 885 l 507 885 l 346 126 l 492 126 l 465 0 m 380 -74 l 212 -253 l 83 -253 l 192 -74 l 380 -74 z "},"Ľ":{"ha":758,"x_min":-33,"x_max":665,"o":"m 532 0 l -33 0 l 154 885 l 294 885 l 134 126 l 558 126 l 532 0 m 665 885 l 529 507 l 419 507 l 498 885 l 665 885 z "},"ľ":{"ha":758,"x_min":40,"x_max":791,"o":"m 465 0 l 40 0 l 66 126 l 205 126 l 340 758 l 201 758 l 228 885 l 507 885 l 346 126 l 492 126 l 465 0 m 791 885 l 656 507 l 546 507 l 625 885 l 791 885 z "},"Ŀ":{"ha":758,"x_min":-33,"x_max":591,"o":"m 532 0 l -33 0 l 154 885 l 294 885 l 134 126 l 558 126 l 532 0 m 554 334 l 383 334 l 420 505 l 591 505 l 554 334 z "},"ŀ":{"ha":758,"x_min":40,"x_max":800,"o":"m 465 0 l 40 0 l 66 126 l 205 126 l 340 758 l 201 758 l 228 885 l 507 885 l 346 126 l 492 126 l 465 0 m 764 239 l 593 239 l 629 410 l 800 410 l 764 239 z "},"Ł":{"ha":758,"x_min":-83,"x_max":558,"o":"m 532 0 l -33 0 l 40 353 l -83 314 l -58 441 l 68 481 l 154 885 l 294 885 l 218 526 l 347 568 l 321 440 l 192 399 l 134 126 l 558 126 l 532 0 z "},"ł":{"ha":758,"x_min":40,"x_max":557,"o":"m 465 0 l 40 0 l 66 126 l 205 126 l 253 353 l 123 313 l 151 440 l 281 481 l 340 758 l 201 758 l 228 885 l 507 885 l 431 526 l 557 567 l 530 439 l 404 399 l 346 126 l 492 126 l 465 0 z "},"Ń":{"ha":758,"x_min":-33,"x_max":720,"o":"m 532 0 l 370 0 l 243 642 l 107 0 l -33 0 l 154 885 l 330 885 l 450 275 l 579 885 l 720 885 l 532 0 m 646 1082 l 317 917 l 278 1010 l 592 1204 l 646 1082 z "},"ń":{"ha":758,"x_min":-33,"x_max":642,"o":"m 532 0 l 392 0 l 473 390 q 467 492 489 464 q 393 521 446 521 q 253 458 315 521 q 167 283 191 395 l 107 0 l -33 0 l 100 632 l 240 632 l 207 473 q 312 601 245 555 q 463 647 379 647 q 601 584 559 647 q 614 390 642 521 l 532 0 m 591 831 l 262 665 l 224 758 l 538 953 l 591 831 z "},"Ņ":{"ha":758,"x_min":-33,"x_max":720,"o":"m 532 0 l 370 0 l 243 642 l 107 0 l -33 0 l 154 885 l 330 885 l 450 275 l 579 885 l 720 885 l 532 0 m 380 -74 l 212 -253 l 83 -253 l 192 -74 l 380 -74 z "},"ņ":{"ha":758,"x_min":-33,"x_max":642,"o":"m 532 0 l 392 0 l 473 390 q 467 492 489 464 q 393 521 446 521 q 253 458 315 521 q 167 283 191 395 l 107 0 l -33 0 l 100 632 l 240 632 l 207 473 q 312 601 245 555 q 463 647 379 647 q 601 584 559 647 q 614 390 642 521 l 532 0 m 380 -74 l 212 -253 l 83 -253 l 192 -74 l 380 -74 z "},"Ň":{"ha":758,"x_min":-33,"x_max":720,"o":"m 532 0 l 370 0 l 243 642 l 107 0 l -33 0 l 154 885 l 330 885 l 450 275 l 579 885 l 720 885 l 532 0 m 444 917 l 271 1132 l 340 1200 l 477 1060 l 669 1199 l 710 1129 l 444 917 z "},"ň":{"ha":758,"x_min":-33,"x_max":656,"o":"m 532 0 l 392 0 l 473 390 q 467 492 489 464 q 393 521 446 521 q 253 458 315 521 q 167 283 191 395 l 107 0 l -33 0 l 100 632 l 240 632 l 207 473 q 312 601 245 555 q 463 647 379 647 q 601 584 559 647 q 614 390 642 521 l 532 0 m 390 665 l 216 880 l 286 949 l 422 808 l 615 947 l 656 878 l 390 665 z "},"ŉ":{"ha":758,"x_min":-33,"x_max":642,"o":"m 532 0 l 392 0 l 473 390 q 467 492 489 464 q 393 521 446 521 q 253 458 315 521 q 167 283 191 395 l 107 0 l -33 0 l 100 632 l 240 632 l 207 473 q 312 601 245 555 q 463 647 379 647 q 601 584 559 647 q 614 390 642 521 l 532 0 m 340 1136 l 205 758 l 95 758 l 174 1136 l 340 1136 z "},"Ŋ":{"ha":758,"x_min":-33,"x_max":720,"o":"m 549 85 q 422 -176 514 -83 q 183 -268 330 -268 q -9 -197 58 -268 l 97 -92 q 211 -142 135 -142 q 310 -109 271 -142 q 372 -28 349 -77 l 243 642 l 107 0 l -33 0 l 154 885 l 330 885 l 450 275 l 579 885 l 720 885 l 549 85 z "},"ŋ":{"ha":758,"x_min":-33,"x_max":642,"o":"m 132 -111 q 222 -142 170 -142 q 335 -103 293 -142 q 392 0 378 -64 l 473 390 q 467 492 489 464 q 393 521 446 521 q 253 458 315 521 q 167 283 191 395 l 107 0 l -33 0 l 100 632 l 240 632 l 207 473 q 312 601 245 555 q 463 647 379 647 q 601 584 559 647 q 614 390 642 521 l 532 0 q 488 -111 518 -61 q 413 -195 457 -160 q 313 -249 368 -231 q 195 -268 257 -268 q 50 -229 109 -268 l 132 -111 z "},"Ō":{"ha":758,"x_min":-14,"x_max":701,"o":"m 4 443 q 60 614 24 532 q 150 760 96 697 q 276 862 204 823 q 440 900 349 900 q 589 862 532 900 q 673 760 646 823 q 701 614 700 697 q 682 443 701 532 q 628 272 664 354 q 538 125 591 189 q 412 23 485 61 q 245 -16 339 -16 q 96 23 153 -16 q 13 125 40 61 q -14 272 -14 189 q 4 443 -14 354 m 144 443 q 129 323 132 383 q 137 217 125 264 q 181 140 149 170 q 273 111 214 111 q 377 140 334 111 q 454 217 421 170 q 508 323 486 264 q 542 443 529 383 q 558 562 554 503 q 550 668 562 621 q 505 745 538 715 q 414 774 472 774 q 247 686 317 774 q 144 443 178 599 m 643 960 l 264 960 l 289 1078 l 668 1078 l 643 960 z "},"ō":{"ha":758,"x_min":-31,"x_max":664,"o":"m 648 315 q 596 181 632 241 q 507 77 559 121 q 388 9 454 33 q 245 -16 321 -16 q 117 9 172 -16 q 26 77 61 33 q -19 181 -8 121 q -14 315 -31 241 q 38 449 1 387 q 128 554 75 510 q 247 623 180 599 q 387 647 314 647 q 518 623 463 647 q 608 554 574 599 q 653 449 643 510 q 648 315 664 387 m 509 315 q 512 396 517 358 q 488 462 507 435 q 436 505 468 489 q 359 521 404 521 q 276 505 315 521 q 208 462 237 489 q 156 396 178 435 q 126 315 135 358 q 122 234 117 271 q 146 170 127 197 q 197 126 164 142 q 273 111 229 111 q 356 126 318 111 q 426 170 395 142 q 478 234 457 197 q 509 315 498 271 m 589 708 l 210 708 l 235 827 l 614 827 l 589 708 z "},"Ŏ":{"ha":758,"x_min":-14,"x_max":701,"o":"m 4 443 q 60 614 24 532 q 150 760 96 697 q 276 862 204 823 q 440 900 349 900 q 589 862 532 900 q 673 760 646 823 q 701 614 700 697 q 682 443 701 532 q 628 272 664 354 q 538 125 591 189 q 412 23 485 61 q 245 -16 339 -16 q 96 23 153 -16 q 13 125 40 61 q -14 272 -14 189 q 4 443 -14 354 m 144 443 q 129 323 132 383 q 137 217 125 264 q 181 140 149 170 q 273 111 214 111 q 377 140 334 111 q 454 217 421 170 q 508 323 486 264 q 542 443 529 383 q 558 562 554 503 q 550 668 562 621 q 505 745 538 715 q 414 774 472 774 q 247 686 317 774 q 144 443 178 599 m 694 1043 q 453 951 583 951 q 250 1043 322 951 l 349 1124 q 475 1060 399 1060 q 629 1124 551 1060 l 694 1043 z "},"ŏ":{"ha":758,"x_min":-31,"x_max":664,"o":"m 648 315 q 596 181 632 241 q 507 77 559 121 q 388 9 454 33 q 245 -16 321 -16 q 117 9 172 -16 q 26 77 61 33 q -19 181 -8 121 q -14 315 -31 241 q 38 449 1 387 q 128 554 75 510 q 247 623 180 599 q 387 647 314 647 q 518 623 463 647 q 608 554 574 599 q 653 449 643 510 q 648 315 664 387 m 509 315 q 512 396 517 358 q 488 462 507 435 q 436 505 468 489 q 359 521 404 521 q 276 505 315 521 q 208 462 237 489 q 156 396 178 435 q 126 315 135 358 q 122 234 117 271 q 146 170 127 197 q 197 126 164 142 q 273 111 229 111 q 356 126 318 111 q 426 170 395 142 q 478 234 457 197 q 509 315 498 271 m 640 791 q 399 700 529 700 q 196 791 268 700 l 294 872 q 421 808 345 808 q 575 872 497 808 l 640 791 z "},"Ő":{"ha":758,"x_min":-14,"x_max":789,"o":"m 4 443 q 60 614 24 532 q 150 760 96 697 q 276 862 204 823 q 440 900 349 900 q 589 862 532 900 q 673 760 646 823 q 701 614 700 697 q 682 443 701 532 q 628 272 664 354 q 538 125 591 189 q 412 23 485 61 q 245 -16 339 -16 q 96 23 153 -16 q 13 125 40 61 q -14 272 -14 189 q 4 443 -14 354 m 144 443 q 129 323 132 383 q 137 217 125 264 q 181 140 149 170 q 273 111 214 111 q 377 140 334 111 q 454 217 421 170 q 508 323 486 264 q 542 443 529 383 q 558 562 554 503 q 550 668 562 621 q 505 745 538 715 q 414 774 472 774 q 247 686 317 774 q 144 443 178 599 m 608 946 l 492 946 l 642 1200 l 789 1200 l 608 946 m 355 946 l 240 946 l 389 1200 l 536 1200 l 355 946 z "},"ő":{"ha":758,"x_min":-31,"x_max":734,"o":"m 648 315 q 596 181 632 241 q 507 77 559 121 q 388 9 454 33 q 245 -16 321 -16 q 117 9 172 -16 q 26 77 61 33 q -19 181 -8 121 q -14 315 -31 241 q 38 449 1 387 q 128 554 75 510 q 247 623 180 599 q 387 647 314 647 q 518 623 463 647 q 608 554 574 599 q 653 449 643 510 q 648 315 664 387 m 509 315 q 512 396 517 358 q 488 462 507 435 q 436 505 468 489 q 359 521 404 521 q 276 505 315 521 q 208 462 237 489 q 156 396 178 435 q 126 315 135 358 q 122 234 117 271 q 146 170 127 197 q 197 126 164 142 q 273 111 229 111 q 356 126 318 111 q 426 170 395 142 q 478 234 457 197 q 509 315 498 271 m 554 694 l 437 694 l 587 949 l 734 949 l 554 694 m 301 694 l 186 694 l 335 949 l 482 949 l 301 694 z "},"Ŕ":{"ha":758,"x_min":-33,"x_max":724,"o":"m 578 0 l 400 0 l 245 358 l 182 358 l 107 0 l -33 0 l 154 885 l 446 885 q 657 818 591 885 q 697 621 724 751 q 657 518 685 562 q 590 441 629 473 q 502 391 550 410 q 401 366 454 372 l 578 0 m 557 623 q 534 724 571 690 q 419 758 497 758 l 268 758 l 210 485 l 361 485 q 490 519 439 485 q 557 623 542 553 m 646 1082 l 317 917 l 278 1010 l 592 1204 l 646 1082 z "},"ŕ":{"ha":758,"x_min":-66,"x_max":733,"o":"m 652 482 q 604 501 629 494 q 546 507 579 507 q 455 493 498 507 q 375 452 411 479 q 314 382 339 424 q 277 283 289 340 l 243 126 l 385 126 l 358 0 l -66 0 l -40 126 l 103 126 l 183 505 l 40 505 l 66 632 l 350 632 l 317 473 q 447 608 371 568 q 616 647 524 647 q 676 641 646 647 q 733 619 707 635 l 652 482 m 591 831 l 262 665 l 224 758 l 538 953 l 591 831 z "},"Ŗ":{"ha":758,"x_min":-33,"x_max":724,"o":"m 578 0 l 400 0 l 245 358 l 182 358 l 107 0 l -33 0 l 154 885 l 446 885 q 657 818 591 885 q 697 621 724 751 q 657 518 685 562 q 590 441 629 473 q 502 391 550 410 q 401 366 454 372 l 578 0 m 557 623 q 534 724 571 690 q 419 758 497 758 l 268 758 l 210 485 l 361 485 q 490 519 439 485 q 557 623 542 553 m 380 -74 l 212 -253 l 83 -253 l 192 -74 l 380 -74 z "},"ŗ":{"ha":758,"x_min":-66,"x_max":733,"o":"m 652 482 q 604 501 629 494 q 546 507 579 507 q 455 493 498 507 q 375 452 411 479 q 314 382 339 424 q 277 283 289 340 l 243 126 l 385 126 l 358 0 l -66 0 l -40 126 l 103 126 l 183 505 l 40 505 l 66 632 l 350 632 l 317 473 q 447 608 371 568 q 616 647 524 647 q 676 641 646 647 q 733 619 707 635 l 652 482 m 380 -74 l 212 -253 l 83 -253 l 192 -74 l 380 -74 z "},"Ř":{"ha":758,"x_min":-33,"x_max":724,"o":"m 578 0 l 400 0 l 245 358 l 182 358 l 107 0 l -33 0 l 154 885 l 446 885 q 657 818 591 885 q 697 621 724 751 q 657 518 685 562 q 590 441 629 473 q 502 391 550 410 q 401 366 454 372 l 578 0 m 557 623 q 534 724 571 690 q 419 758 497 758 l 268 758 l 210 485 l 361 485 q 490 519 439 485 q 557 623 542 553 m 444 917 l 271 1132 l 340 1200 l 477 1060 l 669 1199 l 710 1129 l 444 917 z "},"ř":{"ha":758,"x_min":-66,"x_max":733,"o":"m 652 482 q 604 501 629 494 q 546 507 579 507 q 455 493 498 507 q 375 452 411 479 q 314 382 339 424 q 277 283 289 340 l 243 126 l 385 126 l 358 0 l -66 0 l -40 126 l 103 126 l 183 505 l 40 505 l 66 632 l 350 632 l 317 473 q 447 608 371 568 q 616 647 524 647 q 676 641 646 647 q 733 619 707 635 l 652 482 m 390 665 l 216 880 l 286 949 l 422 808 l 615 947 l 656 878 l 390 665 z "},"Ś":{"ha":758,"x_min":-49,"x_max":710,"o":"m 595 243 q 550 134 581 182 q 476 53 519 86 q 380 2 433 20 q 272 -16 328 -16 q 164 7 210 -16 q 94 81 119 29 l 78 0 l -49 0 l 12 289 l 139 289 q 137 212 129 245 q 166 156 146 179 q 217 122 186 134 q 285 110 248 110 q 392 139 347 110 q 452 232 437 168 q 451 289 458 265 q 426 331 444 313 q 379 364 408 350 q 314 393 350 378 q 224 430 268 410 q 149 480 180 450 q 103 554 118 510 q 103 664 89 597 q 146 766 115 722 q 219 840 176 810 q 311 885 261 869 q 414 900 361 900 q 513 874 475 900 q 567 806 551 848 l 583 885 l 710 885 l 652 610 l 525 610 q 510 731 542 688 q 408 775 478 775 q 301 747 347 775 q 244 667 254 718 q 244 622 237 640 q 268 588 252 603 q 313 559 285 572 q 378 530 340 546 q 468 490 424 513 q 545 435 513 468 q 593 356 578 403 q 595 243 608 310 m 646 1082 l 317 917 l 278 1010 l 592 1204 l 646 1082 z "},"ś":{"ha":758,"x_min":-58,"x_max":635,"o":"m 587 189 q 539 89 575 127 q 454 26 503 50 q 349 -6 406 3 q 241 -16 293 -16 q 76 9 155 -16 q -58 75 -4 35 l 25 191 q 149 129 90 147 q 269 111 207 111 q 396 129 354 111 q 446 179 439 147 q 440 205 449 195 q 408 223 431 215 q 346 240 385 232 q 248 258 307 249 q 159 278 200 267 q 90 312 118 290 q 48 367 61 334 q 45 450 35 400 q 90 539 56 501 q 172 601 125 576 q 275 636 220 625 q 383 647 330 647 q 524 628 458 647 q 635 572 590 608 l 555 464 q 463 509 511 497 q 355 521 415 521 q 303 518 330 521 q 251 508 275 515 q 209 487 227 500 q 186 454 191 473 q 221 413 180 429 q 367 382 262 397 q 469 361 424 374 q 544 327 514 349 q 586 272 574 306 q 587 189 599 239 m 591 831 l 262 665 l 224 758 l 538 953 l 591 831 z "},"Ŝ":{"ha":758,"x_min":-49,"x_max":710,"o":"m 595 243 q 550 134 581 182 q 476 53 519 86 q 380 2 433 20 q 272 -16 328 -16 q 164 7 210 -16 q 94 81 119 29 l 78 0 l -49 0 l 12 289 l 139 289 q 137 212 129 245 q 166 156 146 179 q 217 122 186 134 q 285 110 248 110 q 392 139 347 110 q 452 232 437 168 q 451 289 458 265 q 426 331 444 313 q 379 364 408 350 q 314 393 350 378 q 224 430 268 410 q 149 480 180 450 q 103 554 118 510 q 103 664 89 597 q 146 766 115 722 q 219 840 176 810 q 311 885 261 869 q 414 900 361 900 q 513 874 475 900 q 567 806 551 848 l 583 885 l 710 885 l 652 610 l 525 610 q 510 731 542 688 q 408 775 478 775 q 301 747 347 775 q 244 667 254 718 q 244 622 237 640 q 268 588 252 603 q 313 559 285 572 q 378 530 340 546 q 468 490 424 513 q 545 435 513 468 q 593 356 578 403 q 595 243 608 310 m 680 987 l 611 918 l 477 1057 l 279 917 l 240 985 l 506 1200 l 680 987 z "},"ŝ":{"ha":758,"x_min":-58,"x_max":635,"o":"m 587 189 q 539 89 575 127 q 454 26 503 50 q 349 -6 406 3 q 241 -16 293 -16 q 76 9 155 -16 q -58 75 -4 35 l 25 191 q 149 129 90 147 q 269 111 207 111 q 396 129 354 111 q 446 179 439 147 q 440 205 449 195 q 408 223 431 215 q 346 240 385 232 q 248 258 307 249 q 159 278 200 267 q 90 312 118 290 q 48 367 61 334 q 45 450 35 400 q 90 539 56 501 q 172 601 125 576 q 275 636 220 625 q 383 647 330 647 q 524 628 458 647 q 635 572 590 608 l 555 464 q 463 509 511 497 q 355 521 415 521 q 303 518 330 521 q 251 508 275 515 q 209 487 227 500 q 186 454 191 473 q 221 413 180 429 q 367 382 262 397 q 469 361 424 374 q 544 327 514 349 q 586 272 574 306 q 587 189 599 239 m 625 736 l 557 667 l 422 806 l 225 665 l 186 733 l 452 949 l 625 736 z "},"Ş":{"ha":758,"x_min":-49,"x_max":710,"o":"m 595 243 q 557 148 583 191 q 497 72 532 104 q 420 19 463 39 q 330 -9 378 -1 l 326 -28 q 292 -116 317 -75 q 230 -186 267 -157 q 146 -234 193 -216 q 43 -252 98 -252 l 69 -131 q 163 -104 129 -131 q 207 -28 197 -77 l 211 -9 q 94 81 132 7 l 78 0 l -49 0 l 12 289 l 139 289 q 137 212 129 245 q 166 156 146 179 q 217 122 186 134 q 285 110 248 110 q 392 139 347 110 q 452 232 437 168 q 451 289 458 265 q 426 331 444 313 q 379 364 408 350 q 314 393 350 378 q 224 430 268 410 q 149 480 180 450 q 103 554 118 510 q 103 664 89 597 q 146 766 115 722 q 219 840 176 810 q 311 885 261 869 q 414 900 361 900 q 513 874 475 900 q 567 806 551 848 l 583 885 l 710 885 l 652 610 l 525 610 q 510 731 542 688 q 408 775 478 775 q 301 747 347 775 q 244 667 254 718 q 244 622 237 640 q 268 588 252 603 q 313 559 285 572 q 378 530 340 546 q 468 490 424 513 q 545 435 513 468 q 593 356 578 403 q 595 243 608 310 z "},"ş":{"ha":758,"x_min":-58,"x_max":635,"o":"m 587 189 q 553 106 578 140 q 492 48 528 72 q 415 11 457 25 q 330 -8 374 -3 l 326 -28 q 292 -116 317 -75 q 230 -186 267 -157 q 146 -234 193 -216 q 43 -252 98 -252 l 69 -131 q 163 -104 129 -131 q 207 -28 197 -77 l 210 -14 q 61 14 132 -9 q -58 75 -9 37 l 25 191 q 149 129 90 147 q 269 111 207 111 q 396 129 354 111 q 446 179 439 147 q 440 205 449 195 q 408 223 431 215 q 346 240 385 232 q 248 258 307 249 q 159 278 200 267 q 90 312 118 290 q 48 367 61 334 q 45 450 35 400 q 90 539 56 501 q 172 601 125 576 q 275 636 220 625 q 383 647 330 647 q 524 628 458 647 q 635 572 590 608 l 555 464 q 463 509 511 497 q 355 521 415 521 q 303 518 330 521 q 251 508 275 515 q 209 487 227 500 q 186 454 191 473 q 221 413 180 429 q 367 382 262 397 q 469 361 424 374 q 544 327 514 349 q 586 272 574 306 q 587 189 599 239 z "},"Š":{"ha":758,"x_min":-49,"x_max":710,"o":"m 595 243 q 550 134 581 182 q 476 53 519 86 q 380 2 433 20 q 272 -16 328 -16 q 164 7 210 -16 q 94 81 119 29 l 78 0 l -49 0 l 12 289 l 139 289 q 137 212 129 245 q 166 156 146 179 q 217 122 186 134 q 285 110 248 110 q 392 139 347 110 q 452 232 437 168 q 451 289 458 265 q 426 331 444 313 q 379 364 408 350 q 314 393 350 378 q 224 430 268 410 q 149 480 180 450 q 103 554 118 510 q 103 664 89 597 q 146 766 115 722 q 219 840 176 810 q 311 885 261 869 q 414 900 361 900 q 513 874 475 900 q 567 806 551 848 l 583 885 l 710 885 l 652 610 l 525 610 q 510 731 542 688 q 408 775 478 775 q 301 747 347 775 q 244 667 254 718 q 244 622 237 640 q 268 588 252 603 q 313 559 285 572 q 378 530 340 546 q 468 490 424 513 q 545 435 513 468 q 593 356 578 403 q 595 243 608 310 m 444 917 l 271 1132 l 340 1200 l 477 1060 l 669 1199 l 710 1129 l 444 917 z "},"š":{"ha":758,"x_min":-58,"x_max":656,"o":"m 587 189 q 539 89 575 127 q 454 26 503 50 q 349 -6 406 3 q 241 -16 293 -16 q 76 9 155 -16 q -58 75 -4 35 l 25 191 q 149 129 90 147 q 269 111 207 111 q 396 129 354 111 q 446 179 439 147 q 440 205 449 195 q 408 223 431 215 q 346 240 385 232 q 248 258 307 249 q 159 278 200 267 q 90 312 118 290 q 48 367 61 334 q 45 450 35 400 q 90 539 56 501 q 172 601 125 576 q 275 636 220 625 q 383 647 330 647 q 524 628 458 647 q 635 572 590 608 l 555 464 q 463 509 511 497 q 355 521 415 521 q 303 518 330 521 q 251 508 275 515 q 209 487 227 500 q 186 454 191 473 q 221 413 180 429 q 367 382 262 397 q 469 361 424 374 q 544 327 514 349 q 586 272 574 306 q 587 189 599 239 m 390 665 l 216 880 l 286 949 l 422 808 l 615 947 l 656 878 l 390 665 z "},"Ţ":{"ha":758,"x_min":39,"x_max":751,"o":"m 684 562 l 558 562 l 600 758 l 481 758 l 346 126 l 486 126 l 460 0 l 39 0 l 65 126 l 205 126 l 340 758 l 220 758 l 178 562 l 53 562 l 121 885 l 751 885 l 684 562 m 380 -74 l 212 -253 l 83 -253 l 192 -74 l 380 -74 z "},"ţ":{"ha":758,"x_min":40,"x_max":615,"o":"m 614 201 q 502 43 582 102 q 321 -16 422 -16 q 223 3 265 -16 q 156 54 182 21 q 122 132 131 86 q 125 232 114 178 l 183 505 l 40 505 l 66 632 l 210 632 l 264 885 l 404 885 l 350 632 l 615 632 l 589 505 l 323 505 l 265 232 q 276 141 253 171 q 349 111 300 111 q 445 146 408 111 q 497 229 481 180 l 614 201 m 380 -74 l 212 -253 l 83 -253 l 192 -74 l 380 -74 z "},"Ť":{"ha":758,"x_min":39,"x_max":751,"o":"m 684 562 l 558 562 l 600 758 l 481 758 l 346 126 l 486 126 l 460 0 l 39 0 l 65 126 l 205 126 l 340 758 l 220 758 l 178 562 l 53 562 l 121 885 l 751 885 l 684 562 m 444 917 l 271 1132 l 340 1200 l 477 1060 l 669 1199 l 710 1129 l 444 917 z "},"ť":{"ha":758,"x_min":40,"x_max":846,"o":"m 614 201 q 502 43 582 102 q 321 -16 422 -16 q 223 3 265 -16 q 156 54 182 21 q 122 132 131 86 q 125 232 114 178 l 183 505 l 40 505 l 66 632 l 210 632 l 264 885 l 404 885 l 350 632 l 615 632 l 589 505 l 323 505 l 265 232 q 276 141 253 171 q 349 111 300 111 q 445 146 408 111 q 497 229 481 180 l 614 201 m 846 1136 l 710 758 l 600 758 l 680 1136 l 846 1136 z "},"Ŧ":{"ha":758,"x_min":39,"x_max":751,"o":"m 521 387 l 401 387 l 346 126 l 486 126 l 460 0 l 39 0 l 65 126 l 205 126 l 261 387 l 142 387 l 167 505 l 286 505 l 340 758 l 220 758 l 178 562 l 53 562 l 121 885 l 751 885 l 684 562 l 558 562 l 600 758 l 481 758 l 427 505 l 546 505 l 521 387 z "},"ŧ":{"ha":758,"x_min":-12,"x_max":615,"o":"m 614 201 q 502 43 582 102 q 321 -16 422 -16 q 223 3 265 -16 q 156 54 182 21 q 122 132 131 86 q 125 232 114 178 l 131 261 l -12 261 l 14 379 l 157 379 l 183 505 l 40 505 l 66 632 l 210 632 l 264 885 l 404 885 l 350 632 l 615 632 l 589 505 l 323 505 l 297 379 l 439 379 l 412 261 l 271 261 l 265 232 q 276 141 253 171 q 349 111 300 111 q 445 146 408 111 q 497 229 481 180 l 614 201 z "},"Ũ":{"ha":758,"x_min":17,"x_max":760,"o":"m 599 315 q 553 179 582 240 q 479 75 524 118 q 376 8 435 32 q 244 -16 318 -16 q 123 8 171 -16 q 50 75 75 32 q 21 180 25 118 q 33 317 17 241 l 154 885 l 294 885 l 174 315 q 164 247 167 282 q 169 180 161 211 q 201 131 176 150 q 272 111 227 111 q 350 131 318 111 q 404 180 382 150 q 439 246 427 210 q 458 315 452 282 l 579 885 l 720 885 l 599 315 m 760 1096 q 660 994 714 1031 q 543 957 606 957 q 489 969 510 957 q 451 997 468 982 q 416 1024 433 1011 q 374 1036 399 1036 q 311 1015 339 1036 q 252 956 282 994 l 179 1003 q 279 1104 225 1067 q 396 1141 334 1141 q 450 1128 429 1141 q 488 1101 471 1116 q 523 1074 506 1086 q 566 1061 541 1061 q 629 1083 600 1061 q 688 1143 657 1104 l 760 1096 z "},"ũ":{"ha":758,"x_min":-9,"x_max":705,"o":"m 100 632 l 240 632 l 157 241 q 164 140 142 168 q 239 111 186 111 q 379 174 317 111 q 465 349 441 237 l 525 632 l 665 632 l 532 0 l 392 0 l 425 158 q 319 31 386 77 q 170 -16 253 -16 q 31 48 72 -16 q 17 241 -9 111 l 100 632 m 705 844 q 606 742 660 779 q 489 705 551 705 q 435 718 456 705 q 396 745 414 730 q 362 772 379 760 q 319 785 345 785 q 256 763 285 785 q 197 704 228 742 l 125 751 q 225 852 171 815 q 342 889 279 889 q 396 877 375 889 q 434 849 416 864 q 469 822 452 835 q 511 810 486 810 q 574 831 546 810 q 633 892 603 852 l 705 844 z "},"Ū":{"ha":758,"x_min":17,"x_max":720,"o":"m 599 315 q 553 179 582 240 q 479 75 524 118 q 376 8 435 32 q 244 -16 318 -16 q 123 8 171 -16 q 50 75 75 32 q 21 180 25 118 q 33 317 17 241 l 154 885 l 294 885 l 174 315 q 164 247 167 282 q 169 180 161 211 q 201 131 176 150 q 272 111 227 111 q 350 131 318 111 q 404 180 382 150 q 439 246 427 210 q 458 315 452 282 l 579 885 l 720 885 l 599 315 m 643 960 l 264 960 l 289 1078 l 668 1078 l 643 960 z "},"ū":{"ha":758,"x_min":-9,"x_max":665,"o":"m 100 632 l 240 632 l 157 241 q 164 140 142 168 q 239 111 186 111 q 379 174 317 111 q 465 349 441 237 l 525 632 l 665 632 l 532 0 l 392 0 l 425 158 q 319 31 386 77 q 170 -16 253 -16 q 31 48 72 -16 q 17 241 -9 111 l 100 632 m 589 708 l 210 708 l 235 827 l 614 827 l 589 708 z "},"Ŭ":{"ha":758,"x_min":17,"x_max":720,"o":"m 599 315 q 553 179 582 240 q 479 75 524 118 q 376 8 435 32 q 244 -16 318 -16 q 123 8 171 -16 q 50 75 75 32 q 21 180 25 118 q 33 317 17 241 l 154 885 l 294 885 l 174 315 q 164 247 167 282 q 169 180 161 211 q 201 131 176 150 q 272 111 227 111 q 350 131 318 111 q 404 180 382 150 q 439 246 427 210 q 458 315 452 282 l 579 885 l 720 885 l 599 315 m 694 1043 q 453 951 583 951 q 250 1043 322 951 l 349 1124 q 475 1060 399 1060 q 629 1124 551 1060 l 694 1043 z "},"ŭ":{"ha":758,"x_min":-9,"x_max":665,"o":"m 100 632 l 240 632 l 157 241 q 164 140 142 168 q 239 111 186 111 q 379 174 317 111 q 465 349 441 237 l 525 632 l 665 632 l 532 0 l 392 0 l 425 158 q 319 31 386 77 q 170 -16 253 -16 q 31 48 72 -16 q 17 241 -9 111 l 100 632 m 640 791 q 399 700 529 700 q 196 791 268 700 l 294 872 q 421 808 345 808 q 575 872 497 808 l 640 791 z "},"Ů":{"ha":758,"x_min":17,"x_max":720,"o":"m 599 315 q 553 179 582 240 q 479 75 524 118 q 376 8 435 32 q 244 -16 318 -16 q 123 8 171 -16 q 50 75 75 32 q 21 180 25 118 q 33 317 17 241 l 154 885 l 294 885 l 174 315 q 164 247 167 282 q 169 180 161 211 q 201 131 176 150 q 272 111 227 111 q 350 131 318 111 q 404 180 382 150 q 439 246 427 210 q 458 315 452 282 l 579 885 l 720 885 l 599 315 m 332 1104 q 356 1164 339 1137 q 399 1213 374 1192 q 455 1245 425 1234 q 517 1257 485 1257 q 574 1245 549 1257 q 616 1213 600 1234 q 638 1164 632 1192 q 637 1104 644 1137 q 613 1044 631 1072 q 570 996 596 1017 q 515 963 545 975 q 453 951 485 951 q 395 963 421 951 q 354 996 370 975 q 331 1044 338 1017 q 332 1104 325 1072 m 422 1104 q 431 1060 417 1078 q 471 1042 444 1042 q 519 1060 497 1042 q 547 1104 542 1078 q 539 1149 553 1131 q 498 1167 525 1167 q 450 1149 472 1167 q 422 1104 428 1131 z "},"ů":{"ha":758,"x_min":-9,"x_max":665,"o":"m 100 632 l 240 632 l 157 241 q 164 140 142 168 q 239 111 186 111 q 379 174 317 111 q 465 349 441 237 l 525 632 l 665 632 l 532 0 l 392 0 l 425 158 q 319 31 386 77 q 170 -16 253 -16 q 31 48 72 -16 q 17 241 -9 111 l 100 632 m 278 852 q 302 912 285 885 q 345 961 319 940 q 401 994 371 982 q 463 1006 431 1006 q 520 994 494 1006 q 562 961 546 982 q 584 912 578 940 q 583 852 590 885 q 559 793 576 821 q 516 744 542 765 q 460 712 490 724 q 399 700 431 700 q 341 712 367 700 q 299 744 315 724 q 277 793 283 765 q 278 852 271 821 m 368 852 q 376 808 363 827 q 416 790 390 790 q 465 808 443 790 q 493 852 488 827 q 485 897 498 879 q 444 916 471 916 q 396 897 418 916 q 368 852 374 879 z "},"Ű":{"ha":758,"x_min":17,"x_max":789,"o":"m 599 315 q 553 179 582 240 q 479 75 524 118 q 376 8 435 32 q 244 -16 318 -16 q 123 8 171 -16 q 50 75 75 32 q 21 180 25 118 q 33 317 17 241 l 154 885 l 294 885 l 174 315 q 164 247 167 282 q 169 180 161 211 q 201 131 176 150 q 272 111 227 111 q 350 131 318 111 q 404 180 382 150 q 439 246 427 210 q 458 315 452 282 l 579 885 l 720 885 l 599 315 m 608 946 l 492 946 l 642 1200 l 789 1200 l 608 946 m 355 946 l 240 946 l 389 1200 l 536 1200 l 355 946 z "},"ű":{"ha":758,"x_min":-9,"x_max":734,"o":"m 100 632 l 240 632 l 157 241 q 164 140 142 168 q 239 111 186 111 q 379 174 317 111 q 465 349 441 237 l 525 632 l 665 632 l 532 0 l 392 0 l 425 158 q 319 31 386 77 q 170 -16 253 -16 q 31 48 72 -16 q 17 241 -9 111 l 100 632 m 554 694 l 437 694 l 587 949 l 734 949 l 554 694 m 301 694 l 186 694 l 335 949 l 482 949 l 301 694 z "},"Ų":{"ha":758,"x_min":17,"x_max":720,"o":"m 374 -257 q 238 -217 282 -257 q 210 -96 193 -176 q 252 -16 220 -52 l 244 -16 q 123 8 171 -16 q 50 75 75 32 q 21 180 25 118 q 33 317 17 241 l 154 885 l 294 885 l 174 315 q 164 247 167 282 q 169 180 161 211 q 201 131 176 150 q 272 111 227 111 q 350 131 318 111 q 404 180 382 150 q 439 246 427 210 q 458 315 452 282 l 579 885 l 720 885 l 599 315 q 511 111 572 193 q 353 0 450 29 q 311 -71 319 -29 q 326 -135 301 -114 q 395 -157 351 -157 l 374 -257 z "},"ų":{"ha":758,"x_min":-9,"x_max":665,"o":"m 553 -257 q 417 -217 461 -257 q 389 -96 372 -176 q 410 -44 395 -68 q 446 0 425 -20 l 392 0 l 425 158 q 319 31 386 77 q 170 -16 253 -16 q 31 48 72 -16 q 17 241 -9 111 l 100 632 l 240 632 l 157 241 q 164 140 142 168 q 239 111 186 111 q 379 174 317 111 q 465 349 441 237 l 525 632 l 665 632 l 532 0 q 490 -71 498 -29 q 506 -135 481 -114 q 574 -157 530 -157 l 553 -257 z "},"Ŵ":{"ha":758,"x_min":28,"x_max":796,"o":"m 796 885 l 471 0 l 326 0 l 329 382 l 172 0 l 28 0 l 78 885 l 224 885 l 179 289 l 315 632 l 450 632 l 440 289 l 650 885 l 796 885 m 680 987 l 611 918 l 477 1057 l 279 917 l 240 985 l 506 1200 l 680 987 z "},"ŵ":{"ha":758,"x_min":8,"x_max":718,"o":"m 718 632 l 490 0 l 317 0 l 330 380 l 182 0 l 8 0 l 47 632 l 184 632 l 151 210 l 309 632 l 457 632 l 436 210 l 581 632 l 718 632 m 625 736 l 557 667 l 422 806 l 225 665 l 186 733 l 452 949 l 625 736 z "},"Ŷ":{"ha":758,"x_min":37,"x_max":766,"o":"m 741 758 l 676 758 l 396 361 l 346 126 l 488 126 l 461 0 l 37 0 l 64 126 l 205 126 l 256 361 l 144 758 l 81 758 l 107 885 l 386 885 l 359 758 l 298 758 l 355 498 l 522 758 l 461 758 l 488 885 l 766 885 l 741 758 m 680 987 l 611 918 l 477 1057 l 279 917 l 240 985 l 506 1200 l 680 987 z "},"ŷ":{"ha":758,"x_min":-118,"x_max":693,"o":"m 693 632 l 261 -123 q 148 -236 212 -205 q 3 -267 83 -267 q -56 -261 -25 -267 q -118 -243 -86 -256 l -62 -114 q -13 -129 -36 -125 q 31 -134 11 -134 q 129 -78 93 -134 l 167 -17 l 62 632 l 208 632 l 281 154 l 543 632 l 693 632 m 625 736 l 557 667 l 422 806 l 225 665 l 186 733 l 452 949 l 625 736 z "},"Ź":{"ha":758,"x_min":-33,"x_max":708,"o":"m 532 0 l -33 0 l -7 125 l 524 758 l 254 758 l 212 566 l 86 566 l 154 885 l 708 885 l 682 758 l 163 126 l 435 126 l 476 321 l 600 321 l 532 0 m 646 1082 l 317 917 l 278 1010 l 592 1204 l 646 1082 z "},"ź":{"ha":758,"x_min":-33,"x_max":653,"o":"m 532 0 l -33 0 l -7 125 l 433 505 l 197 505 l 170 378 l 46 378 l 100 632 l 653 632 l 627 505 l 184 126 l 435 126 l 461 252 l 585 252 l 532 0 m 591 831 l 262 665 l 224 758 l 538 953 l 591 831 z "},"Ż":{"ha":758,"x_min":-33,"x_max":708,"o":"m 532 0 l -33 0 l -7 125 l 524 758 l 254 758 l 212 566 l 86 566 l 154 885 l 708 885 l 682 758 l 163 126 l 435 126 l 476 321 l 600 321 l 532 0 m 541 966 l 370 966 l 406 1137 l 576 1137 l 541 966 z "},"ż":{"ha":758,"x_min":-33,"x_max":653,"o":"m 532 0 l -33 0 l -7 125 l 433 505 l 197 505 l 170 378 l 46 378 l 100 632 l 653 632 l 627 505 l 184 126 l 435 126 l 461 252 l 585 252 l 532 0 m 486 714 l 315 714 l 351 885 l 522 885 l 486 714 z "},"Ž":{"ha":758,"x_min":-33,"x_max":710,"o":"m 532 0 l -33 0 l -7 125 l 524 758 l 254 758 l 212 566 l 86 566 l 154 885 l 708 885 l 682 758 l 163 126 l 435 126 l 476 321 l 600 321 l 532 0 m 444 917 l 271 1132 l 340 1200 l 477 1060 l 669 1199 l 710 1129 l 444 917 z "},"ž":{"ha":758,"x_min":-33,"x_max":656,"o":"m 532 0 l -33 0 l -7 125 l 433 505 l 197 505 l 170 378 l 46 378 l 100 632 l 653 632 l 627 505 l 184 126 l 435 126 l 461 252 l 585 252 l 532 0 m 390 665 l 216 880 l 286 949 l 422 808 l 615 947 l 656 878 l 390 665 z "},"ſ":{"ha":758,"x_min":39,"x_max":754,"o":"m 346 126 l 490 126 l 464 0 l 39 0 l 65 126 l 205 126 l 286 505 l 146 505 l 172 632 l 313 632 q 435 831 340 762 q 665 900 529 900 q 709 898 686 900 q 754 893 732 896 l 728 770 q 656 774 689 774 q 567 766 602 774 q 509 741 532 758 q 474 696 486 724 q 453 632 461 669 l 346 126 z "},"Ǽ":{"ha":758,"x_min":-110,"x_max":753,"o":"m 201 0 l 245 211 l 131 211 l 35 0 l -110 0 l 325 885 l 753 885 l 726 758 l 503 758 l 450 514 l 640 514 l 614 387 l 424 387 l 368 126 l 591 126 l 566 0 l 201 0 m 186 335 l 272 335 l 346 685 l 186 335 m 646 1085 l 317 920 l 278 1013 l 592 1207 l 646 1085 z "},"ǽ":{"ha":758,"x_min":-52,"x_max":665,"o":"m 257 89 q 180 15 221 45 q 85 -16 139 -16 q 16 0 43 -16 q -27 41 -11 16 q -47 101 -43 66 q -43 172 -52 135 q -6 268 -32 227 q 55 338 20 310 q 133 379 90 366 q 218 393 175 393 q 243 393 233 393 q 268 389 253 392 l 277 429 q 273 501 288 479 q 228 522 258 522 q 173 510 204 522 q 109 457 142 497 l 41 538 q 149 622 92 596 q 249 647 207 647 q 331 628 297 647 q 371 559 366 608 q 443 626 404 606 q 529 647 482 647 q 621 613 593 647 q 657 525 650 579 q 655 402 665 471 q 631 262 646 334 l 368 262 q 367 146 350 178 q 414 114 383 114 q 454 126 436 114 q 485 168 472 139 l 595 129 q 506 20 555 56 q 386 -16 456 -16 q 347 -11 367 -16 q 308 6 326 -5 q 276 38 290 18 q 257 89 262 58 m 517 386 q 522 494 530 467 q 486 522 513 522 q 435 492 457 522 q 395 386 412 461 l 517 386 m 241 265 q 224 267 233 267 q 200 268 215 268 q 136 244 167 268 q 96 179 104 221 q 99 129 89 144 q 132 113 110 113 q 197 146 170 113 q 233 224 224 179 l 241 265 m 591 832 l 262 667 l 224 760 l 538 954 l 591 832 z "},"Ǿ":{"ha":758,"x_min":-90,"x_max":779,"o":"m 4 443 q 60 614 24 532 q 150 760 96 697 q 276 862 204 823 q 440 900 349 900 q 586 865 530 900 q 669 768 642 829 l 779 859 l 747 708 l 697 667 q 682 443 708 564 q 628 272 664 354 q 538 125 591 189 q 412 23 485 61 q 245 -16 339 -16 q 103 17 158 -16 q 21 107 49 50 l -90 14 l -60 164 l -9 205 q -13 319 -18 258 q 4 443 -8 379 m 144 443 q 133 380 138 411 q 126 319 127 350 l 550 668 q 504 745 536 715 q 414 774 472 774 q 247 686 317 774 q 144 443 178 599 m 273 111 q 377 140 334 111 q 454 217 421 170 q 508 323 486 264 q 542 443 529 383 q 552 497 549 471 q 558 551 555 524 l 140 205 q 185 137 154 163 q 273 111 216 111 m 646 1085 l 317 920 l 278 1013 l 592 1207 l 646 1085 z "},"ǿ":{"ha":758,"x_min":-69,"x_max":703,"o":"m -41 122 l -9 144 q -24 223 -22 180 q -16 315 -26 267 q 38 449 0 387 q 128 554 75 510 q 247 623 180 599 q 387 647 314 647 q 506 626 454 647 q 593 570 557 606 l 703 647 l 673 510 l 642 488 q 655 407 653 450 q 647 315 657 364 q 594 181 631 241 q 506 77 558 121 q 387 9 453 33 q 245 -16 321 -16 q 126 5 178 -16 q 39 61 74 25 l -69 -16 l -41 122 m 507 315 q 511 396 515 358 l 161 149 q 209 121 180 131 q 273 111 237 111 q 356 126 318 111 q 425 170 395 142 q 476 234 456 197 q 507 315 497 271 m 125 315 q 121 236 115 271 l 468 482 q 359 521 429 521 q 276 505 315 521 q 207 462 237 489 q 155 396 176 435 q 125 315 134 358 m 591 832 l 262 667 l 224 760 l 538 954 l 591 832 z "},"Ș":{"ha":758,"x_min":-49,"x_max":710,"o":"m 595 243 q 550 134 581 182 q 476 53 519 86 q 380 2 433 20 q 272 -16 328 -16 q 164 7 210 -16 q 94 81 119 29 l 78 0 l -49 0 l 12 289 l 139 289 q 137 212 129 245 q 166 156 146 179 q 217 122 186 134 q 285 110 248 110 q 392 139 347 110 q 452 232 437 168 q 451 289 458 265 q 426 331 444 313 q 379 364 408 350 q 314 393 350 378 q 224 430 268 410 q 149 480 180 450 q 103 554 118 510 q 103 664 89 597 q 146 766 115 722 q 219 840 176 810 q 311 885 261 869 q 414 900 361 900 q 513 874 475 900 q 567 806 551 848 l 583 885 l 710 885 l 652 610 l 525 610 q 510 731 542 688 q 408 775 478 775 q 301 747 347 775 q 244 667 254 718 q 244 622 237 640 q 268 588 252 603 q 313 559 285 572 q 378 530 340 546 q 468 490 424 513 q 545 435 513 468 q 593 356 578 403 q 595 243 608 310 m 380 -74 l 212 -253 l 83 -253 l 192 -74 l 380 -74 z "},"ș":{"ha":758,"x_min":-58,"x_max":635,"o":"m 587 189 q 539 89 575 127 q 454 26 503 50 q 349 -6 406 3 q 241 -16 293 -16 q 76 9 155 -16 q -58 75 -4 35 l 25 191 q 149 129 90 147 q 269 111 207 111 q 396 129 354 111 q 446 179 439 147 q 440 205 449 195 q 408 223 431 215 q 346 240 385 232 q 248 258 307 249 q 159 278 200 267 q 90 312 118 290 q 48 367 61 334 q 45 450 35 400 q 90 539 56 501 q 172 601 125 576 q 275 636 220 625 q 383 647 330 647 q 524 628 458 647 q 635 572 590 608 l 555 464 q 463 509 511 497 q 355 521 415 521 q 303 518 330 521 q 251 508 275 515 q 209 487 227 500 q 186 454 191 473 q 221 413 180 429 q 367 382 262 397 q 469 361 424 374 q 544 327 514 349 q 586 272 574 306 q 587 189 599 239 m 380 -74 l 212 -253 l 83 -253 l 192 -74 l 380 -74 z "},"Ț":{"ha":758,"x_min":39,"x_max":751,"o":"m 684 562 l 558 562 l 600 758 l 481 758 l 346 126 l 486 126 l 460 0 l 39 0 l 65 126 l 205 126 l 340 758 l 220 758 l 178 562 l 53 562 l 121 885 l 751 885 l 684 562 m 380 -74 l 212 -253 l 83 -253 l 192 -74 l 380 -74 z "},"ț":{"ha":758,"x_min":40,"x_max":615,"o":"m 614 201 q 502 43 582 102 q 321 -16 422 -16 q 223 3 265 -16 q 156 54 182 21 q 122 132 131 86 q 125 232 114 178 l 183 505 l 40 505 l 66 632 l 210 632 l 264 885 l 404 885 l 350 632 l 615 632 l 589 505 l 323 505 l 265 232 q 276 141 253 171 q 349 111 300 111 q 445 146 408 111 q 497 229 481 180 l 614 201 m 380 -74 l 212 -253 l 83 -253 l 192 -74 l 380 -74 z "},"΄":{"ha":758,"x_min":347,"x_max":593,"o":"m 593 1136 l 457 758 l 347 758 l 427 1136 l 593 1136 z "},"΅":{"ha":758,"x_min":94,"x_max":762,"o":"m 726 758 l 555 758 l 591 929 l 762 929 l 726 758 m 265 758 l 94 758 l 131 929 l 301 929 l 265 758 m 593 1136 l 457 758 l 347 758 l 427 1136 l 593 1136 z "},"Ά":{"ha":758,"x_min":-107,"x_max":607,"o":"m 460 0 l 440 211 l 147 211 l 40 0 l -107 0 l 357 885 l 518 885 l 607 0 l 460 0 m 211 335 l 429 335 l 399 700 l 211 335 m 340 1136 l 205 758 l 95 758 l 174 1136 l 340 1136 z "},"Έ":{"ha":758,"x_min":-33,"x_max":720,"o":"m 214 1136 l 79 758 l -31 758 l 48 1136 l 214 1136 m 532 0 l -33 0 l 154 885 l 720 885 l 693 758 l 268 758 l 215 514 l 547 514 l 521 387 l 189 387 l 134 126 l 558 126 l 532 0 z "},"Ή":{"ha":758,"x_min":-33,"x_max":720,"o":"m 214 1136 l 79 758 l -31 758 l 48 1136 l 214 1136 m 532 0 l 392 0 l 473 387 l 189 387 l 107 0 l -33 0 l 154 885 l 294 885 l 215 514 l 500 514 l 579 885 l 720 885 l 532 0 z "},"Ί":{"ha":758,"x_min":94,"x_max":718,"o":"m 530 0 l 106 0 l 132 126 l 272 126 l 407 758 l 322 758 l 349 885 l 718 885 l 692 758 l 547 758 l 412 126 l 557 126 l 530 0 m 340 1136 l 204 758 l 94 758 l 174 1136 l 340 1136 z "},"Ό":{"ha":758,"x_min":-31,"x_max":701,"o":"m 214 1136 l 79 758 l -31 758 l 48 1136 l 214 1136 m 4 443 q 60 614 24 532 q 150 760 96 697 q 276 862 204 823 q 440 900 349 900 q 589 862 532 900 q 673 760 646 823 q 701 614 700 697 q 682 443 701 532 q 628 272 664 354 q 538 125 591 189 q 412 23 485 61 q 245 -16 339 -16 q 96 23 153 -16 q 13 125 40 61 q -14 272 -14 189 q 4 443 -14 354 m 144 443 q 129 323 132 383 q 137 217 125 264 q 181 140 149 170 q 273 111 214 111 q 377 140 334 111 q 454 217 421 170 q 508 323 486 264 q 542 443 529 383 q 558 562 554 503 q 550 668 562 621 q 505 745 538 715 q 414 774 472 774 q 247 686 317 774 q 144 443 178 599 z "},"Ύ":{"ha":758,"x_min":-32,"x_max":833,"o":"m 807 758 l 743 758 l 463 361 l 412 126 l 554 126 l 528 0 l 104 0 l 131 126 l 272 126 l 322 361 l 211 758 l 195 758 l 221 885 l 453 885 l 427 758 l 366 758 l 422 498 l 589 758 l 528 758 l 554 885 l 833 885 l 807 758 m 214 1136 l 78 758 l -32 758 l 47 1136 l 214 1136 z "},"Ώ":{"ha":758,"x_min":-66,"x_max":701,"o":"m 214 1136 l 79 758 l -31 758 l 48 1136 l 214 1136 m 685 503 q 609 312 664 404 q 457 157 554 220 l 450 126 l 591 126 l 566 0 l 313 0 l 364 243 q 435 288 404 260 q 488 352 465 317 q 524 427 510 387 q 545 503 538 467 q 555 598 555 550 q 541 686 555 647 q 496 749 526 725 q 414 774 465 774 q 323 749 364 774 q 251 686 282 725 q 198 598 220 647 q 165 503 176 550 q 155 427 158 467 q 160 352 153 387 q 185 288 167 317 q 237 243 203 260 l 186 0 l -66 0 l -40 126 l 104 126 l 111 157 q 22 308 40 215 q 25 503 4 401 q 78 651 41 579 q 169 779 115 724 q 291 867 222 833 q 440 900 359 900 q 575 867 521 900 q 659 779 629 833 q 695 651 689 724 q 685 503 701 579 z "},"ΐ":{"ha":758,"x_min":94,"x_max":762,"o":"m 465 9 q 351 -16 407 -16 q 232 25 272 -16 q 208 140 192 65 l 286 505 l 167 505 l 193 632 l 453 632 l 357 182 q 362 122 347 136 q 404 109 376 109 q 435 113 419 109 q 460 122 450 117 l 465 9 m 726 758 l 555 758 l 591 929 l 762 929 l 726 758 m 265 758 l 94 758 l 131 929 l 301 929 l 265 758 m 593 1136 l 457 758 l 347 758 l 427 1136 l 593 1136 z "},"Α":{"ha":758,"x_min":-107,"x_max":607,"o":"m 460 0 l 440 211 l 147 211 l 40 0 l -107 0 l 357 885 l 518 885 l 607 0 l 460 0 m 211 335 l 429 335 l 399 700 l 211 335 z "},"Β":{"ha":758,"x_min":-33,"x_max":688,"o":"m 615 243 q 494 61 589 122 q 249 0 400 0 l -33 0 l 154 885 l 421 885 q 528 876 476 885 q 616 842 579 867 q 670 771 653 817 q 672 654 688 726 q 611 532 657 587 q 492 452 566 476 q 602 378 571 425 q 615 243 633 330 m 529 636 q 528 699 538 675 q 498 737 518 724 q 451 754 478 750 q 395 758 424 758 l 268 758 l 215 514 l 342 514 q 400 518 371 514 q 455 535 429 522 q 501 573 481 549 q 529 636 521 597 m 479 257 q 453 355 493 323 q 330 387 414 387 l 189 387 l 134 126 l 275 126 q 412 158 358 126 q 479 257 465 191 z "},"Γ":{"ha":758,"x_min":-33,"x_max":753,"o":"m 154 885 l 753 885 l 726 758 l 268 758 l 107 0 l -33 0 l 154 885 z "},"Δ":{"ha":758,"x_min":-107,"x_max":607,"o":"m -107 0 l 357 885 l 518 885 l 607 0 l -107 0 m 104 125 l 449 125 l 399 700 l 104 125 z "},"Ε":{"ha":758,"x_min":-33,"x_max":720,"o":"m 532 0 l -33 0 l 154 885 l 720 885 l 693 758 l 268 758 l 215 514 l 547 514 l 521 387 l 189 387 l 134 126 l 558 126 l 532 0 z "},"Ζ":{"ha":758,"x_min":-33,"x_max":708,"o":"m 532 0 l -33 0 l -7 125 l 524 758 l 254 758 l 212 566 l 86 566 l 154 885 l 708 885 l 682 758 l 163 126 l 435 126 l 476 321 l 600 321 l 532 0 z "},"Η":{"ha":758,"x_min":-33,"x_max":720,"o":"m 532 0 l 392 0 l 473 387 l 189 387 l 107 0 l -33 0 l 154 885 l 294 885 l 215 514 l 500 514 l 579 885 l 720 885 l 532 0 z "},"Θ":{"ha":758,"x_min":-14,"x_max":701,"o":"m 197 514 l 517 514 l 490 387 l 171 387 l 197 514 m 4 443 q 60 614 24 532 q 150 760 96 697 q 276 862 204 823 q 440 900 349 900 q 589 862 532 900 q 673 760 646 823 q 701 614 700 697 q 682 443 701 532 q 628 272 664 354 q 538 125 591 189 q 412 23 485 61 q 245 -16 339 -16 q 96 23 153 -16 q 13 125 40 61 q -14 272 -14 189 q 4 443 -14 354 m 144 443 q 129 323 132 383 q 137 217 125 264 q 181 140 149 170 q 273 111 214 111 q 377 140 334 111 q 454 217 421 170 q 508 323 486 264 q 542 443 529 383 q 558 562 554 503 q 550 668 562 621 q 505 745 538 715 q 414 774 472 774 q 247 686 317 774 q 144 443 178 599 z "},"Ι":{"ha":758,"x_min":39,"x_max":652,"o":"m 464 0 l 39 0 l 65 126 l 205 126 l 340 758 l 200 758 l 227 885 l 652 885 l 625 758 l 481 758 l 346 126 l 490 126 l 464 0 z "},"Κ":{"ha":758,"x_min":-33,"x_max":750,"o":"m 561 0 l 397 0 l 253 412 l 179 343 l 107 0 l -33 0 l 154 885 l 294 885 l 221 538 l 570 885 l 750 885 l 364 518 l 561 0 z "},"Λ":{"ha":758,"x_min":-107,"x_max":606,"o":"m 458 0 l 399 700 l 40 0 l -107 0 l 357 885 l 517 885 l 606 0 l 458 0 z "},"Μ":{"ha":758,"x_min":-33,"x_max":720,"o":"m 532 0 l 392 0 l 518 599 l 361 281 l 253 281 l 233 599 l 107 0 l -33 0 l 154 885 l 321 885 l 351 485 l 551 885 l 720 885 l 532 0 z "},"Ν":{"ha":758,"x_min":-33,"x_max":720,"o":"m 532 0 l 370 0 l 243 642 l 107 0 l -33 0 l 154 885 l 330 885 l 450 275 l 579 885 l 720 885 l 532 0 z "},"Ξ":{"ha":758,"x_min":-66,"x_max":753,"o":"m -20 227 l 107 227 l 86 126 l 465 126 l 486 227 l 612 227 l 566 0 l -66 0 l -20 227 m 600 758 l 221 758 l 199 657 l 72 657 l 121 885 l 753 885 l 704 657 l 578 657 l 600 758 m 168 514 l 547 514 l 521 387 l 142 387 l 168 514 z "},"Ο":{"ha":758,"x_min":-14,"x_max":701,"o":"m 4 443 q 60 614 24 532 q 150 760 96 697 q 276 862 204 823 q 440 900 349 900 q 589 862 532 900 q 673 760 646 823 q 701 614 700 697 q 682 443 701 532 q 628 272 664 354 q 538 125 591 189 q 412 23 485 61 q 245 -16 339 -16 q 96 23 153 -16 q 13 125 40 61 q -14 272 -14 189 q 4 443 -14 354 m 144 443 q 129 323 132 383 q 137 217 125 264 q 181 140 149 170 q 273 111 214 111 q 377 140 334 111 q 454 217 421 170 q 508 323 486 264 q 542 443 529 383 q 558 562 554 503 q 550 668 562 621 q 505 745 538 715 q 414 774 472 774 q 247 686 317 774 q 144 443 178 599 z "},"Π":{"ha":758,"x_min":-33,"x_max":720,"o":"m 532 0 l 392 0 l 553 758 l 268 758 l 107 0 l -33 0 l 154 885 l 720 885 l 532 0 z "},"Ρ":{"ha":758,"x_min":-33,"x_max":724,"o":"m 697 621 q 574 423 668 488 q 335 358 479 358 l 182 358 l 107 0 l -33 0 l 154 885 l 446 885 q 657 818 591 885 q 697 621 724 751 m 557 623 q 534 724 571 690 q 421 758 497 758 l 268 758 l 210 485 l 363 485 q 490 519 439 485 q 557 623 542 553 z "},"Σ":{"ha":758,"x_min":-37,"x_max":720,"o":"m 532 0 l -37 0 l -11 126 l 256 441 l 123 758 l 150 885 l 720 885 l 656 586 l 529 586 l 567 758 l 294 758 l 421 441 l 160 126 l 432 126 l 468 300 l 595 300 l 532 0 z "},"Τ":{"ha":758,"x_min":39,"x_max":751,"o":"m 684 562 l 558 562 l 600 758 l 481 758 l 346 126 l 486 126 l 460 0 l 39 0 l 65 126 l 205 126 l 340 758 l 220 758 l 178 562 l 53 562 l 121 885 l 751 885 l 684 562 z "},"Υ":{"ha":758,"x_min":37,"x_max":766,"o":"m 741 758 l 676 758 l 396 361 l 346 126 l 488 126 l 461 0 l 37 0 l 64 126 l 205 126 l 256 361 l 144 758 l 81 758 l 107 885 l 386 885 l 359 758 l 298 758 l 355 498 l 522 758 l 461 758 l 488 885 l 766 885 l 741 758 z "},"Φ":{"ha":758,"x_min":-12,"x_max":690,"o":"m 677 452 q 633 331 664 386 q 559 235 603 277 q 460 165 515 193 q 345 126 406 136 l 318 0 l 179 0 l 205 126 q 39 235 90 149 q 16 452 -12 322 q 58 570 28 515 q 131 666 87 624 q 228 736 174 708 q 343 777 282 765 l 367 885 l 505 885 l 484 778 q 583 739 541 766 q 651 668 625 711 q 683 570 676 625 q 677 452 690 515 m 538 452 q 530 573 551 521 q 454 646 509 625 l 372 257 q 478 329 435 278 q 538 452 522 380 m 155 452 q 160 331 140 382 q 233 258 179 279 l 315 644 q 211 572 253 624 q 155 452 170 519 z "},"Χ":{"ha":758,"x_min":-82,"x_max":753,"o":"m 579 0 l 290 0 l 317 126 l 367 126 l 315 326 l 180 126 l 231 126 l 204 0 l -82 0 l -56 126 l 21 126 l 261 447 l 158 758 l 94 758 l 121 885 l 401 885 l 375 758 l 318 758 l 367 562 l 500 758 l 444 758 l 471 885 l 753 885 l 726 758 l 659 758 l 422 447 l 526 126 l 606 126 l 579 0 z "},"Ψ":{"ha":758,"x_min":20,"x_max":753,"o":"m 688 581 q 640 431 669 494 q 568 325 610 368 q 476 255 526 281 q 366 221 425 229 l 319 0 l 179 0 l 225 221 q 67 325 114 239 q 56 581 20 411 l 121 885 l 261 885 l 196 581 q 190 435 178 496 q 253 351 201 375 l 367 885 l 507 885 l 393 351 q 493 435 456 375 q 549 581 530 494 l 614 885 l 753 885 l 688 581 z "},"Ϊ":{"ha":758,"x_min":39,"x_max":703,"o":"m 464 0 l 39 0 l 65 126 l 205 126 l 340 758 l 200 758 l 227 885 l 652 885 l 625 758 l 481 758 l 346 126 l 490 126 l 464 0 m 667 966 l 496 966 l 532 1137 l 703 1137 l 667 966 m 414 966 l 243 966 l 279 1137 l 450 1137 l 414 966 z "},"Ϋ":{"ha":758,"x_min":37,"x_max":766,"o":"m 741 758 l 676 758 l 396 361 l 346 126 l 488 126 l 461 0 l 37 0 l 64 126 l 205 126 l 256 361 l 144 758 l 81 758 l 107 885 l 386 885 l 359 758 l 298 758 l 355 498 l 522 758 l 461 758 l 488 885 l 766 885 l 741 758 m 667 966 l 496 966 l 532 1137 l 703 1137 l 667 966 m 414 966 l 243 966 l 279 1137 l 450 1137 l 414 966 z "},"ά":{"ha":758,"x_min":-28,"x_max":703,"o":"m 126 315 q 118 243 118 279 q 129 178 118 207 q 160 130 139 149 q 218 111 182 111 q 277 130 249 111 q 331 178 306 149 q 378 243 357 207 q 419 315 400 279 q 410 388 415 351 q 390 454 404 425 q 356 502 376 484 q 304 521 335 521 q 239 502 268 521 q 188 454 210 484 q 150 388 165 425 q 126 315 134 351 m -14 315 q 29 439 0 379 q 102 545 58 498 q 203 619 146 591 q 328 647 260 647 q 449 609 410 647 q 504 497 488 571 l 561 632 l 703 632 l 547 315 l 570 0 l 428 0 l 427 134 q 323 22 379 60 q 186 -16 268 -16 q 74 12 118 -16 q 5 86 29 40 q -24 192 -20 132 q -14 315 -28 252 m 593 1136 l 457 758 l 347 758 l 427 1136 l 593 1136 z "},"έ":{"ha":758,"x_min":-39,"x_max":632,"o":"m 32 458 q 72 537 40 501 q 150 596 103 572 q 255 634 196 621 q 379 647 314 647 q 544 613 484 647 q 632 511 604 579 l 514 440 q 350 521 479 521 q 226 501 275 521 q 170 447 176 481 q 196 406 164 424 q 298 387 228 387 l 432 387 l 404 261 l 269 261 q 159 239 199 261 q 114 191 119 216 q 150 133 106 154 q 271 111 193 111 q 392 134 338 111 q 472 193 446 157 l 567 119 q 431 18 509 52 q 245 -16 354 -16 q 123 -2 178 -16 q 31 36 68 11 q -22 97 -5 61 q -29 179 -39 134 q 28 268 -20 228 q 140 321 75 309 q 49 372 75 332 q 32 458 22 412 m 593 1136 l 457 758 l 347 758 l 427 1136 l 593 1136 z "},"ή":{"ha":758,"x_min":46,"x_max":642,"o":"m 282 525 q 366 612 309 578 q 482 647 422 647 q 610 584 579 647 q 614 392 642 521 l 478 -253 l 338 -253 l 473 392 q 474 495 490 469 q 422 521 457 521 q 320 471 364 521 q 254 325 275 421 l 186 0 l 46 0 l 143 463 q 137 506 150 492 q 102 521 125 521 q 78 519 87 521 q 56 514 68 517 l 53 628 q 109 642 77 637 q 171 647 140 647 q 219 640 197 647 q 257 617 241 632 q 280 579 273 603 q 282 525 288 555 m 593 1136 l 457 758 l 347 758 l 427 1136 l 593 1136 z "},"ί":{"ha":758,"x_min":167,"x_max":593,"o":"m 465 9 q 351 -16 407 -16 q 232 25 272 -16 q 208 140 192 65 l 286 505 l 167 505 l 193 632 l 453 632 l 357 182 q 362 122 347 136 q 404 109 376 109 q 435 113 419 109 q 460 122 450 117 l 465 9 m 593 1136 l 457 758 l 347 758 l 427 1136 l 593 1136 z "},"ΰ":{"ha":758,"x_min":4,"x_max":762,"o":"m 245 -16 q 133 1 182 -16 q 54 50 85 17 q 14 130 24 82 q 18 243 4 178 l 100 632 l 240 632 l 158 243 q 179 144 143 176 q 277 111 215 111 q 362 133 325 111 q 428 189 400 154 q 473 266 456 224 q 498 349 490 309 q 515 482 514 422 q 498 595 515 542 l 644 646 q 657 506 659 581 q 639 347 656 431 q 593 219 625 283 q 512 102 561 154 q 396 17 463 50 q 245 -16 329 -16 m 726 758 l 555 758 l 591 929 l 762 929 l 726 758 m 265 758 l 94 758 l 131 929 l 301 929 l 265 758 m 593 1136 l 457 758 l 347 758 l 427 1136 l 593 1136 z "},"α":{"ha":758,"x_min":-28,"x_max":703,"o":"m 126 315 q 118 243 118 279 q 129 178 118 207 q 160 130 139 149 q 218 111 182 111 q 277 130 249 111 q 331 178 306 149 q 378 243 357 207 q 419 315 400 279 q 410 388 415 351 q 390 454 404 425 q 356 502 376 484 q 304 521 335 521 q 239 502 268 521 q 188 454 210 484 q 150 388 165 425 q 126 315 134 351 m -14 315 q 29 439 0 379 q 102 545 58 498 q 203 619 146 591 q 328 647 260 647 q 449 609 410 647 q 504 497 488 571 l 561 632 l 703 632 l 547 315 l 570 0 l 428 0 l 427 134 q 323 22 379 60 q 186 -16 268 -16 q 74 12 118 -16 q 5 86 29 40 q -24 192 -20 132 q -14 315 -28 252 z "},"β":{"ha":758,"x_min":-86,"x_max":682,"o":"m 292 -16 q 191 1 232 -16 q 117 50 150 17 l 53 -253 l -86 -253 l 100 628 q 145 738 113 688 q 223 824 178 789 q 326 880 269 860 q 444 900 383 900 q 558 879 510 900 q 634 825 606 859 q 672 749 663 791 q 672 664 682 707 q 606 537 657 593 q 475 456 554 481 q 598 374 559 428 q 621 236 637 319 q 578 135 608 180 q 505 56 549 89 q 406 3 461 22 q 292 -16 351 -16 m 294 111 q 420 147 371 111 q 482 248 469 183 q 460 349 496 311 q 335 387 425 387 l 268 387 l 294 514 l 357 514 q 475 552 433 514 q 529 648 517 590 q 531 690 533 668 q 516 731 529 713 q 479 762 503 750 q 418 774 456 774 q 362 765 390 774 q 309 738 334 755 q 266 692 285 720 q 240 628 248 665 l 146 186 q 294 111 189 111 z "},"γ":{"ha":758,"x_min":66,"x_max":676,"o":"m 676 632 q 612 467 648 551 q 531 298 576 382 q 431 135 486 215 q 309 -17 376 56 l 258 -253 l 119 -253 l 170 -17 l 66 632 l 216 632 l 285 131 q 424 358 366 229 q 529 632 482 486 l 676 632 z "},"δ":{"ha":758,"x_min":4,"x_max":636,"o":"m 18 275 q 97 424 33 349 q 272 561 160 498 q 224 626 241 590 q 218 717 207 663 q 247 787 227 754 q 300 846 268 821 q 374 885 332 871 q 467 900 416 900 q 558 889 517 900 q 636 850 600 878 l 554 745 q 497 775 528 766 q 443 785 467 785 q 388 769 411 785 q 357 725 364 753 q 370 667 351 693 q 420 614 389 640 q 489 557 452 587 q 555 488 526 528 q 597 397 583 449 q 597 275 611 345 q 551 157 583 210 q 472 65 518 104 q 368 5 427 26 q 243 -16 310 -16 q 129 5 178 -16 q 51 65 81 26 q 13 157 21 104 q 18 275 4 210 m 457 275 q 460 346 465 314 q 443 403 456 378 q 408 449 429 428 q 366 488 387 469 q 221 390 271 441 q 157 273 171 338 q 174 157 143 203 q 271 111 204 111 q 393 157 345 111 q 457 275 441 203 z "},"ε":{"ha":758,"x_min":-39,"x_max":632,"o":"m 32 458 q 72 537 40 501 q 150 596 103 572 q 255 634 196 621 q 379 647 314 647 q 544 613 484 647 q 632 511 604 579 l 514 440 q 350 521 479 521 q 226 501 275 521 q 170 447 176 481 q 196 406 164 424 q 298 387 228 387 l 432 387 l 404 261 l 269 261 q 159 239 199 261 q 114 191 119 216 q 150 133 106 154 q 271 111 193 111 q 392 134 338 111 q 472 193 446 157 l 567 119 q 431 18 509 52 q 245 -16 354 -16 q 123 -2 178 -16 q 31 36 68 11 q -22 97 -5 61 q -29 179 -39 134 q 28 268 -20 228 q 140 321 75 309 q 49 372 75 332 q 32 458 22 412 z "},"ζ":{"ha":758,"x_min":-32,"x_max":753,"o":"m 306 1 q 50 89 132 9 q 1 322 -32 168 q 61 463 18 399 q 170 581 104 526 q 316 679 235 635 q 490 758 397 722 l 221 758 l 248 885 l 753 885 l 726 758 q 477 669 581 718 q 303 565 374 621 q 194 447 232 509 q 142 322 155 386 q 347 122 102 136 q 510 65 464 115 q 541 -64 557 16 q 512 -132 532 -98 q 461 -192 493 -165 q 386 -235 429 -218 q 288 -253 342 -252 l 296 -132 q 370 -110 346 -126 q 400 -64 393 -93 q 380 -16 407 -31 q 306 1 353 -1 z "},"η":{"ha":758,"x_min":46,"x_max":642,"o":"m 282 525 q 366 612 309 578 q 482 647 422 647 q 610 584 579 647 q 614 392 642 521 l 478 -253 l 338 -253 l 473 392 q 474 495 490 469 q 422 521 457 521 q 320 471 364 521 q 254 325 275 421 l 186 0 l 46 0 l 143 463 q 137 506 150 492 q 102 521 125 521 q 78 519 87 521 q 56 514 68 517 l 53 628 q 109 642 77 637 q 171 647 140 647 q 219 640 197 647 q 257 617 241 632 q 280 579 273 603 q 282 525 288 555 z "},"θ":{"ha":758,"x_min":29,"x_max":659,"o":"m 633 441 q 578 256 612 340 q 495 112 543 172 q 385 18 447 52 q 245 -16 322 -16 q 121 18 168 -16 q 52 112 74 52 q 31 256 29 172 q 54 441 33 340 q 109 626 75 542 q 192 771 143 710 q 301 866 240 832 q 440 900 363 900 q 566 866 518 900 q 636 772 614 832 q 656 627 659 711 q 633 441 654 542 m 273 111 q 349 134 315 111 q 407 196 382 157 q 451 284 432 235 q 484 387 471 334 l 182 387 q 170 284 172 334 q 176 196 167 235 q 209 134 186 157 q 273 111 232 111 m 414 775 q 341 752 374 775 q 283 692 309 729 q 240 609 258 656 q 210 514 222 562 l 509 514 q 519 609 518 562 q 510 692 521 656 q 477 752 500 729 q 414 775 454 775 z "},"ι":{"ha":758,"x_min":167,"x_max":465,"o":"m 465 9 q 351 -16 407 -16 q 232 25 272 -16 q 208 140 192 65 l 286 505 l 167 505 l 193 632 l 453 632 l 357 182 q 362 122 347 136 q 404 109 376 109 q 435 113 419 109 q 460 122 450 117 l 465 9 z "},"κ":{"ha":758,"x_min":-33,"x_max":686,"o":"m 564 0 l 382 0 l 225 256 l 147 191 l 107 0 l -33 0 l 100 632 l 240 632 l 183 364 l 493 632 l 686 632 l 334 342 l 564 0 z "},"λ":{"ha":758,"x_min":-71,"x_max":555,"o":"m 412 -25 l 350 478 l 75 0 l -71 0 l 309 648 l 296 710 q 222 766 285 766 q 178 762 203 766 q 121 747 153 758 l 119 876 q 190 895 157 889 q 250 900 222 900 q 383 869 330 900 q 447 755 436 838 l 555 21 l 412 -25 z "},"μ":{"ha":758,"x_min":-86,"x_max":586,"o":"m 383 109 q 322 20 361 56 q 225 -16 283 -16 q 151 7 174 -16 q 119 65 127 29 l 53 -253 l -86 -253 l 100 632 l 240 632 l 157 236 q 151 176 149 200 q 162 137 153 151 q 188 117 171 122 q 227 111 205 111 q 312 156 271 111 q 370 272 354 200 l 446 632 l 586 632 l 488 170 q 495 124 482 138 q 530 111 507 111 q 578 121 554 111 l 571 1 q 535 -11 555 -5 q 481 -16 515 -16 q 441 -8 460 -16 q 407 15 422 0 q 385 54 392 31 q 383 109 378 77 z "},"ν":{"ha":758,"x_min":66,"x_max":671,"o":"m 171 0 l 66 632 l 216 632 l 286 147 q 421 366 366 245 q 524 632 476 486 l 671 632 q 608 469 643 551 q 530 307 574 387 q 432 149 486 227 q 310 0 378 72 l 171 0 z "},"ξ":{"ha":758,"x_min":-26,"x_max":636,"o":"m 129 258 q 130 190 119 215 q 169 152 140 165 q 242 132 197 138 q 349 122 288 126 q 512 65 465 115 q 542 -64 558 16 q 514 -132 533 -98 q 463 -192 494 -165 q 387 -235 431 -218 q 289 -253 343 -252 l 297 -132 q 371 -110 347 -126 q 401 -64 395 -93 q 381 -16 408 -31 q 307 1 354 -1 q 154 20 220 5 q 46 64 87 35 q -11 139 4 93 q -12 253 -26 186 q 60 379 3 326 q 221 457 117 432 q 159 489 183 467 q 122 541 135 511 q 108 603 110 570 q 113 668 106 636 q 155 764 123 721 q 233 837 187 807 q 331 883 278 867 q 439 900 385 900 q 545 888 492 900 q 636 852 599 876 l 562 736 q 494 765 530 755 q 412 774 458 774 q 306 739 353 774 q 249 652 260 704 q 264 553 236 591 q 376 514 293 514 l 530 514 l 504 387 l 350 387 q 199 348 258 387 q 129 258 140 309 z "},"ο":{"ha":758,"x_min":-32,"x_max":661,"o":"m 646 315 q 593 181 629 241 q 504 77 557 121 q 386 9 452 33 q 244 -16 319 -16 q 115 9 171 -16 q 25 77 60 33 q -21 181 -9 121 q -16 315 -32 241 q 37 449 0 387 q 126 554 74 510 q 246 623 179 599 q 386 647 313 647 q 516 623 461 647 q 606 554 571 599 q 651 449 640 510 q 646 315 661 387 m 505 315 q 509 396 514 358 q 485 462 504 435 q 435 505 467 489 q 358 521 403 521 q 275 505 314 521 q 206 462 236 489 q 155 396 176 435 q 125 315 134 358 q 121 234 115 271 q 144 170 126 197 q 195 126 163 142 q 272 111 228 111 q 355 126 317 111 q 424 170 393 142 q 475 234 454 197 q 505 315 496 271 z "},"ρ":{"ha":758,"x_min":-86,"x_max":647,"o":"m 632 315 q 581 181 615 241 q 497 77 546 121 q 390 9 449 33 q 269 -16 332 -16 q 180 1 216 -16 q 117 50 144 17 l 52 -253 l -86 -253 l 33 315 q 76 437 46 378 q 151 544 106 497 q 256 618 196 590 q 392 647 317 647 q 515 623 463 647 q 599 554 567 599 q 639 449 631 510 q 632 315 647 387 m 492 315 q 498 396 500 358 q 480 461 496 433 q 436 505 464 489 q 367 521 408 521 q 249 473 301 521 q 174 315 197 425 l 144 179 q 286 111 193 111 q 358 127 325 111 q 419 170 392 143 q 464 235 446 197 q 492 315 482 272 z "},"ς":{"ha":758,"x_min":-31,"x_max":656,"o":"m 143 322 q 349 122 103 136 q 512 65 465 115 q 542 -64 558 16 q 514 -132 533 -98 q 463 -192 494 -165 q 387 -235 431 -218 q 289 -253 343 -252 l 297 -132 q 371 -110 347 -126 q 401 -64 395 -93 q 381 -16 408 -31 q 307 1 354 -1 q 52 89 134 9 q 3 322 -31 168 q 55 453 18 393 q 144 556 92 513 q 264 623 197 599 q 404 647 330 647 q 546 624 484 647 q 656 541 608 602 l 550 441 q 480 502 518 482 q 376 521 441 521 q 228 467 293 521 q 143 322 163 414 z "},"σ":{"ha":758,"x_min":-32,"x_max":757,"o":"m 526 505 q 568 469 550 492 q 597 419 586 447 q 612 360 608 392 q 607 293 615 328 q 557 167 593 224 q 472 70 522 110 q 360 6 422 29 q 229 -17 297 -17 q 107 6 160 -17 q 22 72 54 29 q -21 174 -11 115 q -17 307 -32 233 q 38 439 0 379 q 129 542 75 500 q 248 608 182 585 q 386 632 314 632 l 757 632 l 730 505 l 526 505 m 354 505 q 203 451 262 505 q 123 307 143 397 q 120 229 115 265 q 142 167 125 193 q 188 125 160 140 q 256 110 216 110 q 334 124 298 110 q 396 164 370 139 q 441 222 422 189 q 467 293 460 256 q 462 424 482 364 q 385 505 441 484 l 354 505 z "},"τ":{"ha":758,"x_min":40,"x_max":699,"o":"m 66 632 l 699 632 l 672 505 l 427 505 l 358 184 q 363 125 349 139 q 406 111 378 111 q 436 115 421 111 q 461 125 452 119 l 465 9 q 351 -16 407 -16 q 232 25 272 -16 q 208 140 192 65 l 286 505 l 40 505 l 66 632 z "},"υ":{"ha":758,"x_min":4,"x_max":659,"o":"m 245 -16 q 133 1 182 -16 q 54 50 85 17 q 14 130 24 82 q 18 243 4 178 l 100 632 l 240 632 l 158 243 q 179 144 143 176 q 277 111 215 111 q 362 133 325 111 q 428 189 400 154 q 473 266 456 224 q 498 349 490 309 q 515 482 514 422 q 498 595 515 542 l 644 646 q 657 506 659 581 q 639 347 656 431 q 593 219 625 283 q 512 102 561 154 q 396 17 463 50 q 245 -16 329 -16 z "},"φ":{"ha":758,"x_min":-28,"x_max":667,"o":"m 456 647 q 551 623 509 647 q 620 557 593 599 q 657 458 647 515 q 653 335 667 401 q 532 102 623 192 q 317 -8 441 12 l 265 -253 l 125 -253 l 176 -8 q 77 30 119 1 q 9 100 35 58 q -22 197 -16 142 q -14 315 -28 252 q 55 482 4 404 q 178 607 106 559 l 240 498 q 168 421 197 469 q 126 315 139 374 q 131 195 111 248 q 204 122 150 143 l 285 503 q 344 610 300 574 q 456 647 389 647 m 345 122 q 451 199 408 144 q 513 335 494 254 q 510 462 529 414 q 457 510 492 510 q 416 458 428 510 l 345 122 z "},"χ":{"ha":758,"x_min":-125,"x_max":699,"o":"m 351 -268 l 257 56 l 36 -253 l -125 -253 l 205 183 l 81 589 l 216 648 l 311 311 l 538 632 l 699 632 l 364 183 l 490 -205 l 351 -268 z "},"ψ":{"ha":758,"x_min":-33,"x_max":699,"o":"m 635 328 q 585 178 615 241 q 514 72 555 115 q 422 3 473 28 q 313 -31 371 -22 l 265 -253 l 125 -253 l 172 -31 q 14 73 61 -12 q 3 328 -33 158 l 66 632 l 207 632 l 143 328 q 136 182 125 243 q 200 98 147 122 l 340 758 l 481 758 l 340 98 q 439 182 401 122 q 496 328 476 241 l 559 632 l 699 632 l 635 328 z "},"ω":{"ha":758,"x_min":-35,"x_max":667,"o":"m 427 505 l 378 275 q 406 111 343 111 q 459 153 440 111 q 498 293 478 195 q 513 367 507 328 q 521 447 518 407 q 522 524 524 486 q 515 595 521 561 l 656 644 q 665 569 663 612 q 663 478 667 525 q 654 383 660 431 q 639 293 648 335 q 604 168 625 225 q 551 71 582 111 q 482 7 521 31 q 393 -16 443 -16 q 308 19 339 -16 q 272 110 277 54 q 199 19 245 54 q 98 -16 153 -16 q 20 7 49 -16 q -22 71 -9 31 q -33 168 -35 111 q -17 293 -31 225 q 7 383 -7 335 q 38 478 21 431 q 76 569 56 525 q 117 644 96 612 l 235 595 q 198 524 215 561 q 168 447 182 486 q 143 367 154 407 q 123 293 132 328 q 105 153 103 195 q 142 111 107 111 q 237 275 203 111 l 286 505 l 427 505 z "},"ϊ":{"ha":758,"x_min":167,"x_max":648,"o":"m 465 9 q 351 -16 407 -16 q 232 25 272 -16 q 208 140 192 65 l 286 505 l 167 505 l 193 632 l 453 632 l 357 182 q 362 122 347 136 q 404 109 376 109 q 435 113 419 109 q 460 122 450 117 l 465 9 m 612 760 l 441 760 l 478 931 l 648 931 l 612 760 m 359 760 l 189 760 l 225 931 l 396 931 l 359 760 z "},"ϋ":{"ha":758,"x_min":4,"x_max":659,"o":"m 245 -16 q 133 1 182 -16 q 54 50 85 17 q 14 130 24 82 q 18 243 4 178 l 100 632 l 240 632 l 158 243 q 179 144 143 176 q 277 111 215 111 q 362 133 325 111 q 428 189 400 154 q 473 266 456 224 q 498 349 490 309 q 515 482 514 422 q 498 595 515 542 l 644 646 q 657 506 659 581 q 639 347 656 431 q 593 219 625 283 q 512 102 561 154 q 396 17 463 50 q 245 -16 329 -16 m 612 759 l 441 759 l 478 930 l 648 930 l 612 759 m 359 759 l 189 759 l 225 930 l 396 930 l 359 759 z "},"ό":{"ha":758,"x_min":-32,"x_max":661,"o":"m 646 315 q 593 181 629 241 q 504 77 557 121 q 386 9 452 33 q 244 -16 319 -16 q 115 9 171 -16 q 25 77 60 33 q -21 181 -9 121 q -16 315 -32 241 q 37 449 0 387 q 126 554 74 510 q 246 623 179 599 q 386 647 313 647 q 516 623 461 647 q 606 554 571 599 q 651 449 640 510 q 646 315 661 387 m 505 315 q 509 396 514 358 q 485 462 504 435 q 435 505 467 489 q 358 521 403 521 q 275 505 314 521 q 206 462 236 489 q 155 396 176 435 q 125 315 134 358 q 121 234 115 271 q 144 170 126 197 q 195 126 163 142 q 272 111 228 111 q 355 126 317 111 q 424 170 393 142 q 475 234 454 197 q 505 315 496 271 m 593 1136 l 457 758 l 347 758 l 427 1136 l 593 1136 z "},"ύ":{"ha":758,"x_min":4,"x_max":659,"o":"m 245 -16 q 133 1 182 -16 q 54 50 85 17 q 14 130 24 82 q 18 243 4 178 l 100 632 l 240 632 l 158 243 q 179 144 143 176 q 277 111 215 111 q 362 133 325 111 q 428 189 400 154 q 473 266 456 224 q 498 349 490 309 q 515 482 514 422 q 498 595 515 542 l 644 646 q 657 506 659 581 q 639 347 656 431 q 593 219 625 283 q 512 102 561 154 q 396 17 463 50 q 245 -16 329 -16 m 593 1136 l 457 758 l 347 758 l 427 1136 l 593 1136 z "},"ώ":{"ha":758,"x_min":-35,"x_max":667,"o":"m 427 505 l 378 275 q 406 111 343 111 q 459 153 440 111 q 498 293 478 195 q 513 367 507 328 q 521 447 518 407 q 522 524 524 486 q 515 595 521 561 l 656 644 q 665 569 663 612 q 663 478 667 525 q 654 383 660 431 q 639 293 648 335 q 604 168 625 225 q 551 71 582 111 q 482 7 521 31 q 393 -16 443 -16 q 308 19 339 -16 q 272 110 277 54 q 199 19 245 54 q 98 -16 153 -16 q 20 7 49 -16 q -22 71 -9 31 q -33 168 -35 111 q -17 293 -31 225 q 7 383 -7 335 q 38 478 21 431 q 76 569 56 525 q 117 644 96 612 l 235 595 q 198 524 215 561 q 168 447 182 486 q 143 367 154 407 q 123 293 132 328 q 105 153 103 195 q 142 111 107 111 q 237 275 203 111 l 286 505 l 427 505 m 593 1136 l 457 758 l 347 758 l 427 1136 l 593 1136 z "},"Ё":{"ha":758,"x_min":-33,"x_max":720,"o":"m 532 0 l -33 0 l 154 885 l 720 885 l 693 758 l 268 758 l 215 514 l 547 514 l 521 387 l 189 387 l 134 126 l 558 126 l 532 0 m 667 966 l 496 966 l 532 1137 l 703 1137 l 667 966 m 414 966 l 243 966 l 279 1137 l 450 1137 l 414 966 z "},"Ђ":{"ha":758,"x_min":-33,"x_max":642,"o":"m 28 885 l 421 885 l 395 758 l 268 758 l 207 473 q 312 601 245 555 q 463 647 379 647 q 601 584 559 647 q 614 390 642 521 l 571 187 q 535 93 559 132 q 479 31 511 54 q 408 -4 447 7 q 328 -16 370 -16 q 249 1 271 -16 l 292 122 q 312 114 300 117 q 343 111 323 111 q 431 187 415 111 l 473 390 q 467 492 489 464 q 393 521 446 521 q 253 458 315 521 q 167 283 191 395 l 107 0 l -33 0 l 127 758 l 1 758 l 28 885 z "},"Ѓ":{"ha":758,"x_min":-33,"x_max":720,"o":"m 693 758 l 268 758 l 107 0 l -33 0 l 154 885 l 720 885 l 693 758 m 646 1084 l 317 918 l 278 1011 l 592 1206 l 646 1084 z "},"Є":{"ha":758,"x_min":-7,"x_max":752,"o":"m 635 271 q 567 153 605 205 q 481 62 528 100 q 378 5 434 25 q 255 -16 321 -16 q 105 23 162 -16 q 22 125 49 61 q -6 272 -5 189 q 12 443 -7 354 q 45 559 25 502 q 93 667 65 616 q 156 760 120 718 q 235 834 191 803 q 330 882 279 865 q 441 900 382 900 q 499 892 471 900 q 549 870 527 885 q 586 832 572 854 q 603 781 601 810 l 625 885 l 752 885 l 688 584 l 562 584 q 563 642 566 608 q 544 705 560 675 q 499 754 528 735 q 422 774 469 774 q 332 752 372 774 q 261 695 292 731 q 208 612 231 659 q 170 514 186 565 l 516 514 l 489 387 l 142 387 q 135 284 134 334 q 151 196 136 234 q 197 134 166 157 q 281 111 229 111 q 426 166 368 111 q 532 314 485 222 l 635 271 z "},"Ѕ":{"ha":758,"x_min":-49,"x_max":710,"o":"m 595 243 q 550 134 581 182 q 476 53 519 86 q 380 2 433 20 q 272 -16 328 -16 q 164 7 210 -16 q 94 81 119 29 l 78 0 l -49 0 l 12 289 l 139 289 q 137 212 129 245 q 166 156 146 179 q 217 122 186 134 q 285 110 248 110 q 392 139 347 110 q 452 232 437 168 q 451 289 458 265 q 426 331 444 313 q 379 364 408 350 q 314 393 350 378 q 224 430 268 410 q 149 480 180 450 q 103 554 118 510 q 103 664 89 597 q 146 766 115 722 q 219 840 176 810 q 311 885 261 869 q 414 900 361 900 q 513 874 475 900 q 567 806 551 848 l 583 885 l 710 885 l 652 610 l 525 610 q 510 731 542 688 q 408 775 478 775 q 301 747 347 775 q 244 667 254 718 q 244 622 237 640 q 268 588 252 603 q 313 559 285 572 q 378 530 340 546 q 468 490 424 513 q 545 435 513 468 q 593 356 578 403 q 595 243 608 310 z "},"І":{"ha":758,"x_min":39,"x_max":652,"o":"m 464 0 l 39 0 l 65 126 l 205 126 l 340 758 l 200 758 l 227 885 l 652 885 l 625 758 l 481 758 l 346 126 l 490 126 l 464 0 z "},"Ї":{"ha":758,"x_min":39,"x_max":703,"o":"m 464 0 l 39 0 l 65 126 l 205 126 l 340 758 l 200 758 l 227 885 l 652 885 l 625 758 l 481 758 l 346 126 l 490 126 l 464 0 m 667 966 l 496 966 l 532 1137 l 703 1137 l 667 966 m 414 966 l 243 966 l 279 1137 l 450 1137 l 414 966 z "},"Ј":{"ha":758,"x_min":-20,"x_max":720,"o":"m 603 338 q 476 77 567 170 q 237 -16 385 -16 q 53 46 119 -16 q -20 232 -14 109 l 117 279 q 155 156 119 200 q 265 111 191 111 q 344 130 311 111 q 400 180 376 149 q 438 252 424 211 q 463 338 453 293 l 579 885 l 720 885 l 603 338 z "},"Љ":{"ha":758,"x_min":-191,"x_max":713,"o":"m 545 262 q 531 366 558 332 q 446 400 504 400 l 411 400 l 353 126 l 387 126 q 487 160 446 126 q 545 262 529 195 m 437 526 l 471 526 q 656 462 599 526 q 685 264 713 397 q 572 67 657 134 q 359 0 488 0 l 186 0 l 347 758 l 235 758 l 113 187 q 79 93 102 132 q 26 31 56 54 q -37 -4 -3 7 q -106 -16 -71 -16 q -158 -11 -139 -16 q -191 1 -176 -5 l -144 117 q -127 113 -138 114 q -109 111 -117 111 q -28 187 -43 111 l 121 885 l 514 885 l 437 526 z "},"Њ":{"ha":758,"x_min":-66,"x_max":713,"o":"m -66 0 l 121 885 l 261 885 l 184 526 l 297 526 l 374 885 l 514 885 l 437 526 l 471 526 q 656 462 599 526 q 685 264 713 397 q 572 67 657 134 q 359 0 488 0 l 186 0 l 271 400 l 158 400 l 74 0 l -66 0 m 545 262 q 531 366 558 332 q 446 400 504 400 l 411 400 l 353 126 l 387 126 q 487 160 446 126 q 545 262 529 195 z "},"Ћ":{"ha":758,"x_min":-33,"x_max":642,"o":"m 28 885 l 421 885 l 395 758 l 268 758 l 207 473 q 312 601 245 555 q 463 647 379 647 q 601 584 559 647 q 614 390 642 521 l 532 0 l 392 0 l 473 390 q 467 492 489 464 q 393 521 446 521 q 253 458 315 521 q 167 283 191 395 l 107 0 l -33 0 l 127 758 l 1 758 l 28 885 z "},"Ќ":{"ha":758,"x_min":-33,"x_max":750,"o":"m 561 0 l 397 0 l 253 412 l 179 343 l 107 0 l -33 0 l 154 885 l 294 885 l 221 538 l 570 885 l 750 885 l 364 518 l 561 0 m 646 1084 l 317 918 l 278 1011 l 592 1206 l 646 1084 z "},"Ў":{"ha":758,"x_min":-65,"x_max":747,"o":"m 747 885 l 314 129 q 201 16 267 47 q 56 -16 136 -16 q -3 -10 28 -16 q -65 8 -33 -4 l -8 138 q 42 122 18 126 q 85 118 65 118 q 182 175 147 118 l 221 236 l 117 885 l 262 885 l 335 407 l 597 885 l 747 885 m 694 1044 q 453 953 583 953 q 250 1044 322 953 l 349 1125 q 475 1061 399 1061 q 629 1125 551 1061 l 694 1044 z "},"Џ":{"ha":758,"x_min":-33,"x_max":720,"o":"m 532 0 l 319 0 l 272 -216 l 132 -216 l 179 0 l -33 0 l 154 885 l 294 885 l 134 126 l 418 126 l 579 885 l 720 885 l 532 0 z "},"А":{"ha":758,"x_min":-107,"x_max":607,"o":"m 460 0 l 440 211 l 147 211 l 40 0 l -107 0 l 357 885 l 518 885 l 607 0 l 460 0 m 211 335 l 429 335 l 399 700 l 211 335 z "},"Б":{"ha":758,"x_min":-33,"x_max":720,"o":"m 693 758 l 268 758 l 218 526 l 371 526 q 582 462 515 526 q 621 264 648 397 q 498 67 593 134 q 258 0 404 0 l -33 0 l 154 885 l 720 885 l 693 758 m 481 262 q 458 366 494 332 q 345 400 421 400 l 192 400 l 134 126 l 286 126 q 414 160 363 126 q 481 262 465 195 z "},"В":{"ha":758,"x_min":-33,"x_max":688,"o":"m 615 243 q 494 61 589 122 q 249 0 400 0 l -33 0 l 154 885 l 421 885 q 528 876 476 885 q 616 842 579 867 q 670 771 653 817 q 672 654 688 726 q 611 532 657 587 q 492 452 566 476 q 602 378 571 425 q 615 243 633 330 m 529 636 q 528 699 538 675 q 498 737 518 724 q 451 754 478 750 q 395 758 424 758 l 268 758 l 215 514 l 342 514 q 400 518 371 514 q 455 535 429 522 q 501 573 481 549 q 529 636 521 597 m 479 257 q 453 355 493 323 q 330 387 414 387 l 189 387 l 134 126 l 275 126 q 412 158 358 126 q 479 257 465 191 z "},"Г":{"ha":758,"x_min":-33,"x_max":720,"o":"m 693 758 l 268 758 l 107 0 l -33 0 l 154 885 l 720 885 l 693 758 z "},"Д":{"ha":758,"x_min":-113,"x_max":650,"o":"m -40 126 q 36 188 5 157 q 92 274 66 218 q 143 421 118 329 q 201 667 168 514 l 248 885 l 650 885 l 489 126 l 591 126 l 518 -216 l 392 -216 l 439 0 l 60 0 l 12 -216 l -113 -216 l -40 126 m 342 667 q 294 462 315 547 q 250 314 273 376 q 195 207 227 252 q 118 126 164 163 l 349 126 l 484 758 l 361 758 l 342 667 z "},"Е":{"ha":758,"x_min":-33,"x_max":720,"o":"m 532 0 l -33 0 l 154 885 l 720 885 l 693 758 l 268 758 l 215 514 l 547 514 l 521 387 l 189 387 l 134 126 l 558 126 l 532 0 z "},"Ж":{"ha":758,"x_min":-140,"x_max":827,"o":"m 179 0 l 253 351 l 237 392 l -4 0 l -140 0 l 189 500 l 47 885 l 187 885 l 292 533 l 367 885 l 507 885 l 432 533 l 686 885 l 827 885 l 521 500 l 639 0 l 503 0 l 425 392 l 393 351 l 319 0 l 179 0 z "},"З":{"ha":758,"x_min":-1,"x_max":690,"o":"m 607 240 q 561 135 594 182 q 480 54 527 87 q 378 3 433 21 q 265 -16 322 -16 q 149 2 201 -16 q 62 55 97 19 q 13 146 28 91 q 9 278 -1 201 l 145 300 q 173 161 134 212 q 292 111 212 111 q 406 146 359 111 q 467 240 454 182 q 436 350 481 313 q 286 387 390 387 l 313 514 q 396 523 359 514 q 463 550 434 532 q 511 595 492 568 q 538 658 530 622 q 539 704 543 682 q 523 741 536 725 q 487 765 510 756 q 433 774 465 774 q 356 759 391 774 q 293 719 321 745 q 247 659 266 693 q 220 585 229 624 l 94 585 l 157 885 l 284 885 l 262 781 q 300 832 276 810 q 353 870 324 854 q 414 892 382 885 q 475 900 446 900 q 569 883 526 900 q 640 834 611 865 q 679 758 668 802 q 679 658 690 713 q 651 582 670 617 q 604 521 631 547 q 540 479 576 495 q 463 460 504 463 q 539 436 507 456 q 588 387 570 416 q 611 319 606 357 q 607 240 615 281 z "},"И":{"ha":758,"x_min":-33,"x_max":720,"o":"m 154 885 l 294 885 l 165 275 l 543 885 l 720 885 l 532 0 l 392 0 l 528 642 l 129 0 l -33 0 l 154 885 z "},"Й":{"ha":758,"x_min":-33,"x_max":720,"o":"m 154 885 l 294 885 l 165 275 l 543 885 l 720 885 l 532 0 l 392 0 l 528 642 l 129 0 l -33 0 l 154 885 m 694 1043 q 453 951 583 951 q 250 1043 322 951 l 349 1124 q 475 1060 399 1060 q 629 1124 551 1060 l 694 1043 z "},"К":{"ha":758,"x_min":-33,"x_max":750,"o":"m 561 0 l 397 0 l 253 412 l 179 343 l 107 0 l -33 0 l 154 885 l 294 885 l 221 538 l 570 885 l 750 885 l 364 518 l 561 0 z "},"Л":{"ha":758,"x_min":-129,"x_max":720,"o":"m 720 885 l 532 0 l 392 0 l 553 758 l 314 758 l 192 187 q 156 93 180 132 q 100 31 132 54 q 29 -4 68 7 q -52 -16 -9 -16 q -129 1 -107 -16 l -86 122 q -67 114 -78 117 q -36 111 -56 111 q 52 187 36 111 l 200 885 l 720 885 z "},"М":{"ha":758,"x_min":-33,"x_max":720,"o":"m 532 0 l 392 0 l 518 599 l 361 281 l 253 281 l 233 599 l 107 0 l -33 0 l 154 885 l 321 885 l 351 485 l 551 885 l 720 885 l 532 0 z "},"Н":{"ha":758,"x_min":-33,"x_max":720,"o":"m 532 0 l 392 0 l 473 387 l 189 387 l 107 0 l -33 0 l 154 885 l 294 885 l 215 514 l 500 514 l 579 885 l 720 885 l 532 0 z "},"О":{"ha":758,"x_min":-14,"x_max":701,"o":"m 4 443 q 60 614 24 532 q 150 760 96 697 q 276 862 204 823 q 440 900 349 900 q 589 862 532 900 q 673 760 646 823 q 701 614 700 697 q 682 443 701 532 q 628 272 664 354 q 538 125 591 189 q 412 23 485 61 q 245 -16 339 -16 q 96 23 153 -16 q 13 125 40 61 q -14 272 -14 189 q 4 443 -14 354 m 144 443 q 129 323 132 383 q 137 217 125 264 q 181 140 149 170 q 273 111 214 111 q 377 140 334 111 q 454 217 421 170 q 508 323 486 264 q 542 443 529 383 q 558 562 554 503 q 550 668 562 621 q 505 745 538 715 q 414 774 472 774 q 247 686 317 774 q 144 443 178 599 z "},"П":{"ha":758,"x_min":-33,"x_max":720,"o":"m 532 0 l 392 0 l 553 758 l 268 758 l 107 0 l -33 0 l 154 885 l 720 885 l 532 0 z "},"Р":{"ha":758,"x_min":-33,"x_max":724,"o":"m 697 621 q 574 423 668 488 q 335 358 479 358 l 182 358 l 107 0 l -33 0 l 154 885 l 446 885 q 657 818 591 885 q 697 621 724 751 m 557 623 q 534 724 571 690 q 421 758 497 758 l 268 758 l 210 485 l 363 485 q 490 519 439 485 q 557 623 542 553 z "},"С":{"ha":758,"x_min":-5,"x_max":753,"o":"m 636 271 q 567 153 606 205 q 482 62 529 100 q 378 5 435 25 q 256 -16 322 -16 q 106 23 163 -16 q 22 125 50 61 q -5 272 -5 189 q 12 443 -5 354 q 67 614 32 532 q 157 760 103 697 q 281 862 211 823 q 441 900 351 900 q 499 892 471 900 q 550 870 528 885 q 587 832 572 854 q 604 781 602 810 l 627 885 l 753 885 l 682 550 l 555 550 q 562 632 564 591 q 544 703 559 672 q 499 754 529 734 q 424 774 469 774 q 320 745 364 774 q 242 668 275 715 q 188 562 210 621 q 153 443 165 503 q 137 323 140 383 q 145 217 134 264 q 190 140 157 170 q 283 111 224 111 q 427 166 370 111 q 533 314 485 221 l 636 271 z "},"Т":{"ha":758,"x_min":39,"x_max":751,"o":"m 684 562 l 558 562 l 600 758 l 481 758 l 346 126 l 486 126 l 460 0 l 39 0 l 65 126 l 205 126 l 340 758 l 220 758 l 178 562 l 53 562 l 121 885 l 751 885 l 684 562 z "},"У":{"ha":758,"x_min":-65,"x_max":747,"o":"m 747 885 l 314 129 q 201 16 267 47 q 56 -16 136 -16 q -3 -10 28 -16 q -65 8 -33 -4 l -8 138 q 42 122 18 126 q 85 118 65 118 q 182 175 147 118 l 221 236 l 117 885 l 262 885 l 335 407 l 597 885 l 747 885 z "},"Ф":{"ha":758,"x_min":-12,"x_max":690,"o":"m 677 452 q 633 331 664 386 q 559 235 603 277 q 460 165 515 193 q 345 126 406 136 l 318 0 l 179 0 l 205 126 q 39 235 90 149 q 16 452 -12 322 q 58 570 28 515 q 131 666 87 624 q 228 736 174 708 q 343 777 282 765 l 367 885 l 505 885 l 484 778 q 583 739 541 766 q 651 668 625 711 q 683 570 676 625 q 677 452 690 515 m 538 452 q 530 573 551 521 q 454 646 509 625 l 372 257 q 478 329 435 278 q 538 452 522 380 m 155 452 q 160 331 140 382 q 233 258 179 279 l 315 644 q 211 572 253 624 q 155 452 170 519 z "},"Х":{"ha":758,"x_min":-82,"x_max":753,"o":"m 579 0 l 290 0 l 317 126 l 367 126 l 315 326 l 180 126 l 231 126 l 204 0 l -82 0 l -56 126 l 21 126 l 261 447 l 158 758 l 94 758 l 121 885 l 401 885 l 375 758 l 318 758 l 367 562 l 500 758 l 444 758 l 471 885 l 753 885 l 726 758 l 659 758 l 422 447 l 526 126 l 606 126 l 579 0 z "},"Ц":{"ha":758,"x_min":-33,"x_max":720,"o":"m 675 126 l 602 -216 l 475 -216 l 522 0 l -33 0 l 154 885 l 294 885 l 134 126 l 418 126 l 579 885 l 720 885 l 558 126 l 675 126 z "},"Ч":{"ha":758,"x_min":43,"x_max":720,"o":"m 154 885 l 294 885 l 211 494 q 217 393 196 421 q 292 364 239 364 q 433 427 370 364 q 519 602 496 490 l 579 885 l 720 885 l 532 0 l 392 0 l 478 411 q 374 283 440 329 q 224 237 307 237 q 84 301 126 237 q 71 494 43 364 l 154 885 z "},"Ш":{"ha":758,"x_min":-81,"x_max":766,"o":"m 367 885 l 507 885 l 346 126 l 465 126 l 627 885 l 766 885 l 579 0 l -81 0 l 107 885 l 248 885 l 86 126 l 205 126 l 367 885 z "},"Щ":{"ha":758,"x_min":-81,"x_max":766,"o":"m -81 0 l 107 885 l 248 885 l 86 126 l 205 126 l 367 885 l 507 885 l 346 126 l 465 126 l 627 885 l 766 885 l 606 126 l 718 126 l 644 -216 l 518 -216 l 566 0 l -81 0 z "},"Ъ":{"ha":758,"x_min":46,"x_max":648,"o":"m 121 885 l 374 885 l 297 526 l 404 526 q 591 462 533 526 q 621 264 648 397 q 508 67 593 134 q 292 0 422 0 l 46 0 l 207 758 l 94 758 l 121 885 m 481 262 q 467 366 494 332 q 380 400 439 400 l 271 400 l 212 126 l 322 126 q 423 160 380 126 q 481 262 465 195 z "},"Ы":{"ha":758,"x_min":-81,"x_max":766,"o":"m 418 264 q 306 67 390 134 q 93 0 221 0 l -81 0 l 107 885 l 248 885 l 171 526 l 204 526 q 389 462 332 526 q 418 264 446 397 m 278 262 q 264 366 292 332 q 179 400 237 400 l 144 400 l 86 126 l 121 126 q 221 160 179 126 q 278 262 262 195 m 627 885 l 766 885 l 579 0 l 439 0 l 627 885 z "},"Ь":{"ha":758,"x_min":-33,"x_max":648,"o":"m 621 264 q 498 67 593 134 q 258 0 404 0 l -33 0 l 154 885 l 294 885 l 218 526 l 371 526 q 582 462 515 526 q 621 264 648 397 m 481 262 q 458 366 494 332 q 345 400 421 400 l 192 400 l 134 126 l 286 126 q 414 160 363 126 q 481 262 465 195 z "},"Э":{"ha":758,"x_min":-24,"x_max":694,"o":"m 98 314 q 142 166 106 222 q 262 111 176 111 q 356 134 315 111 q 429 196 397 157 q 482 284 460 234 q 519 387 504 334 l 172 387 l 199 514 l 545 514 q 549 612 551 565 q 531 695 546 659 q 484 752 515 731 q 403 774 453 774 q 318 754 356 774 q 252 705 281 735 q 206 642 223 675 q 184 584 189 608 l 57 584 l 121 885 l 248 885 l 225 781 q 263 832 239 810 q 317 870 288 854 q 377 892 346 885 q 438 900 409 900 q 542 882 498 900 q 616 834 586 865 q 664 760 646 803 q 687 667 681 718 q 689 559 694 616 q 672 443 685 502 q 617 272 653 354 q 528 125 582 189 q 401 23 474 61 q 235 -16 328 -16 q 121 5 169 -16 q 42 62 73 25 q -5 153 11 100 q -24 271 -21 205 l 98 314 z "},"Ю":{"ha":758,"x_min":-81,"x_max":775,"o":"m 107 885 l 248 885 l 168 514 l 281 514 q 568 900 378 900 q 677 441 775 900 q 374 -16 581 -16 q 253 387 179 -16 l 142 387 l 60 0 l -81 0 l 107 885 m 404 441 q 378 307 389 368 q 366 202 368 245 q 372 135 364 158 q 401 111 380 111 q 439 135 421 111 q 474 202 457 158 q 506 307 490 245 q 538 441 522 368 q 563 576 553 515 q 575 681 574 637 q 569 749 576 725 q 542 774 561 774 q 502 749 521 774 q 468 681 484 725 q 435 576 452 637 q 404 441 419 515 z "},"Я":{"ha":758,"x_min":-79,"x_max":720,"o":"m 250 366 q 160 391 200 372 q 95 441 121 410 q 61 518 69 473 q 65 621 53 562 q 187 818 92 751 q 428 885 282 885 l 720 885 l 532 0 l 392 0 l 467 358 l 403 358 l 98 0 l -79 0 l 250 366 m 205 623 q 228 519 191 553 q 343 485 265 485 l 494 485 l 553 758 l 401 758 q 272 724 323 758 q 205 623 220 690 z "},"а":{"ha":758,"x_min":-41,"x_max":633,"o":"m -32 182 q 19 279 -20 237 q 113 349 58 321 q 232 390 167 376 q 363 404 297 404 q 425 403 399 404 q 476 399 450 401 l 481 424 q 458 498 492 473 q 363 522 425 522 q 244 506 306 522 q 122 460 182 490 l 89 570 q 235 626 158 606 q 390 647 311 647 q 489 635 441 647 q 570 597 536 624 q 619 529 604 571 q 619 424 633 486 l 530 0 l 392 0 l 411 93 q 296 13 367 41 q 150 -16 225 -16 q 66 -3 104 -16 q 3 35 28 9 q -31 97 -21 60 q -32 182 -41 134 m 212 110 q 292 120 254 110 q 362 150 330 131 q 416 195 395 168 q 444 253 437 221 l 450 277 q 389 283 418 282 q 338 283 359 283 q 176 256 235 283 q 109 189 118 229 q 212 110 92 110 z "},"б":{"ha":758,"x_min":-24,"x_max":713,"o":"m 146 301 q 162 163 126 215 q 277 111 197 111 q 410 163 351 111 q 489 301 469 215 q 472 440 507 389 q 357 492 437 492 q 217 440 271 492 q 146 301 164 389 m 26 441 q 87 627 49 543 q 178 772 126 711 q 291 866 231 832 q 416 900 351 900 q 468 894 449 900 q 503 879 488 888 q 531 865 518 871 q 566 859 545 859 q 614 868 593 859 q 668 900 636 878 l 713 807 q 634 754 681 777 q 539 732 587 732 q 488 738 507 732 q 455 753 469 745 q 428 767 441 761 q 390 774 414 774 q 328 758 358 774 q 269 708 297 742 q 218 620 241 673 q 179 490 195 567 q 273 585 218 553 q 385 618 328 618 q 504 598 452 618 q 590 538 557 578 q 635 439 624 498 q 629 301 646 380 q 578 176 614 235 q 492 76 543 118 q 379 9 441 33 q 250 -16 317 -16 q 33 96 90 -16 q 26 441 -24 207 z "},"в":{"ha":758,"x_min":-33,"x_max":643,"o":"m 600 174 q 510 44 582 87 q 319 0 437 0 l -33 0 l 100 632 l 428 632 q 512 626 471 632 q 585 601 554 619 q 629 551 615 583 q 632 467 643 518 q 584 381 623 419 q 479 325 546 343 q 585 275 555 314 q 600 174 614 236 m 489 450 q 488 483 494 471 q 470 503 482 496 q 440 512 458 510 q 404 514 422 514 l 215 514 l 189 387 l 378 387 q 414 390 396 387 q 448 399 432 392 q 474 418 464 406 q 489 450 485 431 m 465 195 q 448 244 472 228 q 374 261 424 261 l 161 261 l 134 126 l 346 126 q 427 143 396 126 q 465 195 458 160 z "},"г":{"ha":758,"x_min":-33,"x_max":699,"o":"m 100 632 l 699 632 l 673 514 l 215 514 l 107 0 l -33 0 l 100 632 z "},"д":{"ha":758,"x_min":-113,"x_max":596,"o":"m -40 126 q 33 174 3 147 q 85 243 62 201 q 126 345 109 285 q 163 488 144 404 l 193 632 l 596 632 l 489 126 l 591 126 l 518 -216 l 392 -216 l 439 0 l 60 0 l 12 -216 l -113 -216 l -40 126 m 297 460 q 276 372 289 421 q 242 276 262 323 q 192 189 222 229 q 118 126 161 149 l 349 126 l 431 514 l 309 514 l 297 460 z "},"е":{"ha":758,"x_min":-31,"x_max":665,"o":"m 118 262 q 157 154 114 197 q 288 111 200 111 q 410 133 355 111 q 509 189 465 154 l 559 90 q 413 7 486 29 q 260 -16 340 -16 q 128 9 186 -16 q 34 77 71 33 q -17 181 -3 121 q -14 315 -31 241 q 38 448 1 387 q 129 553 75 509 q 249 622 182 597 q 389 647 315 647 q 522 621 465 647 q 612 545 578 595 q 655 424 646 496 q 647 262 665 353 l 118 262 m 515 386 q 472 484 517 447 q 361 521 428 521 q 234 484 294 521 q 150 386 174 447 l 515 386 z "},"ж":{"ha":758,"x_min":-140,"x_max":772,"o":"m 179 0 l 228 232 l 210 261 l 9 0 l -140 0 l 144 355 l -7 632 l 147 632 l 262 396 l 313 632 l 453 632 l 403 396 l 625 632 l 772 632 l 504 355 l 639 0 l 496 0 l 397 261 l 368 232 l 319 0 l 179 0 z "}}}
